<?xml version="1.0" encoding="utf-8"?>
<!-- Generator: Adobe Illustrator 26.1.0, SVG Export Plug-In . SVG Version: 6.00 Build 0)  -->
<svg version="1.1" id="Layer_1" xmlns="http://www.w3.org/2000/svg" xmlns:xlink="http://www.w3.org/1999/xlink" x="0px" y="0px"
	 viewBox="0 0 968 900" style="enable-background:new 0 0 968 900;" xml:space="preserve">
<style type="text/css">
	
		.st0{opacity:0.1111;fill:none;stroke:#D6FFEE;stroke-width:0.5925;stroke-linecap:round;stroke-miterlimit:4;enable-background:new    ;}
	
		.st1{opacity:0.2222;fill:none;stroke:#CFFFEB;stroke-width:0.7748;stroke-linecap:round;stroke-miterlimit:4;enable-background:new    ;}
	
		.st2{opacity:0.3333;fill:none;stroke:#C8FFE8;stroke-width:0.9571;stroke-linecap:round;stroke-miterlimit:4;enable-background:new    ;}
	
		.st3{opacity:0.4444;fill:none;stroke:#C1FFE5;stroke-width:1.1394;stroke-linecap:round;stroke-miterlimit:4;enable-background:new    ;}
	
		.st4{opacity:0.5556;fill:none;stroke:#BAFFE2;stroke-width:1.3217;stroke-linecap:round;stroke-miterlimit:4;enable-background:new    ;}
	
		.st5{opacity:0.6667;fill:none;stroke:#ABEBD0;stroke-width:1.504;stroke-linecap:round;stroke-miterlimit:4;enable-background:new    ;}
	
		.st6{opacity:0.7778;fill:none;stroke:#8FC4AE;stroke-width:1.6863;stroke-linecap:round;stroke-miterlimit:4;enable-background:new    ;}
	
		.st7{opacity:0.8889;fill:none;stroke:#7BA895;stroke-width:1.8686;stroke-linecap:round;stroke-miterlimit:4;enable-background:new    ;}
	.st8{fill:none;stroke:#658A7A;stroke-width:2.0509;stroke-linecap:round;stroke-miterlimit:4;}
</style>
<path class="st0" d="M773.6,344l-76.5,239.4c-13.8,43.2-59.9,66.9-103.1,53.1l-259.2-83c-43.2-13.8-67-60-53.2-103.2L358.1,211
	c13.8-43.2,59.9-66.9,103.1-53.1l259.2,83C763.6,254.7,787.4,300.9,773.6,344z"/>
<path class="st1" d="M771,349.2l-79,247.2c-13.8,43.2-59.9,66.9-103.1,53.1l-267-85.5c-43.2-13.8-67-60-53.2-103.2l79-247.2
	c13.8-43.2,59.9-66.9,103.1-53.1l267,85.5C761,259.9,784.8,306.1,771,349.2z"/>
<path class="st2" d="M768.4,354.4l-81.5,255c-13.8,43.2-59.9,66.9-103.1,53.1l-274.8-88c-43.2-13.8-67-60-53.2-103.2l81.5-255
	c13.8-43.2,59.9-66.9,103.1-53.1l274.8,88C758.4,265.1,782.2,311.2,768.4,354.4z"/>
<path class="st3" d="M765.8,359.6l-84,262.9c-13.8,43.2-59.9,66.9-103.1,53.1L296,585.1c-43.2-13.8-67-60-53.2-103.2l84-262.9
	c13.8-43.2,59.9-66.9,103.1-53.1l282.7,90.5C755.8,270.2,779.6,316.4,765.8,359.6z"/>
<path class="st4" d="M763.2,364.8l-86.5,270.7c-13.8,43.2-59.9,66.9-103.1,53.1l-290.5-93c-43.2-13.8-67-60-53.2-103.2l86.5-270.7
	c13.8-43.2,59.9-66.9,103.1-53.1l290.5,93C753.1,275.4,776.9,321.6,763.2,364.8z"/>
<path class="st5" d="M760.5,369.9l-89,278.5c-13.8,43.2-59.9,66.9-103.1,53.1l-298.3-95.5c-43.2-13.8-67-60-53.2-103.2l89-278.5
	c13.8-43.2,59.9-66.9,103.1-53.1l298.3,95.5C750.5,280.6,774.3,326.8,760.5,369.9z"/>
<path class="st6" d="M757.9,375.1l-91.5,286.3c-13.8,43.2-59.9,66.9-103.1,53.1l-306.1-98c-43.2-13.8-67-60-53.2-103.2l91.5-286.3
	c13.8-43.2,59.9-66.9,103.1-53.1l306.1,98C747.9,285.8,771.7,332,757.9,375.1z"/>
<path class="st7" d="M755.3,380.3l-94,294.1c-13.8,43.2-59.9,66.9-103.1,53.1L244.4,627.1c-43.2-13.8-67-60-53.2-103.2l94-294.1
	c13.8-43.2,59.9-66.9,103.1-53.1l313.9,100.5C745.3,291,769.1,337.1,755.3,380.3z"/>
<path class="st8" d="M752.7,385.5l-96.5,301.9c-13.8,43.2-59.9,66.9-103.1,53.1l-321.7-103c-43.2-13.8-67-60-53.2-103.2l96.5-301.9
	c13.8-43.2,59.9-66.9,103.1-53.1l321.7,103C742.7,296.1,766.5,342.3,752.7,385.5z"/>
</svg>
