<svg viewBox="187.5 41.353383458646476 2774.999999999999 1992.481203007519" xmlns="http://www.w3.org/2000/svg" xmlns:xlink="http://www.w3.org/1999/xlink" overflow="visible" width="2774.999999999999px" height="1992.481203007519px"><defs><path d="M20,400 L380,400 C391.045695,400 400,391.045695 400,380 L400,20 C400,8.954305 391.045695,-2.02906125e-15 380,0 L20,0 C8.954305,2.02906125e-15 -1.3527075e-15,8.954305 0,20 L0,380 C1.3527075e-15,391.045695 8.954305,400 20,400 Z" id="mastersceneone-on-one-path-1"/><path d="M20,400 L380,400 C391.045695,400 400,391.045695 400,380 L400,20 C400,8.954305 391.045695,-2.02906125e-15 380,0 L20,0 C8.954305,2.02906125e-15 -1.3527075e-15,8.954305 0,20 L0,380 C1.3527075e-15,391.045695 8.954305,400 20,400 Z" id="mastersceneone-on-one-path-3"/><path d="M20,400 L660,400 C671.045695,400 680,391.045695 680,380 L680,20 C680,8.954305 671.045695,-2.02906125e-15 660,0 L20,0 C8.954305,2.02906125e-15 -1.3527075e-15,8.954305 0,20 L0,380 C1.3527075e-15,391.045695 8.954305,400 20,400 Z" id="mastersceneone-on-one-path-5"/><path d="M20,400 L660,400 C671.045695,400 680,391.045695 680,380 L680,20 C680,8.954305 671.045695,-2.02906125e-15 660,0 L20,0 C8.954305,2.02906125e-15 -1.3527075e-15,8.954305 0,20 L0,380 C1.3527075e-15,391.045695 8.954305,400 20,400 Z" id="mastersceneone-on-one-path-7"/><path d="M346,1 L403,44 C455.330837,60.5927043 498.49333,98.0479325 522.293031,147.519222 L574,255 L574,255 L617,159 L692,193 L638.025428,319.887591 C620.730898,360.544906 573.751646,379.484186 533.09433,362.189656 C518.03103,355.782133 505.295877,344.907933 496.607485,331.034533 L454,263 L454,263 L473.56662,500.594673 C474.507448,512.019006 472.594589,523.498081 468,534 L468,534 L468,534 L122.243501,534 C67.0150256,534 22.2435006,489.228475 22.2435006,434 C22.2435006,427.344215 22.9079885,420.705057 24.2270788,414.181295 L66.6882657,204.183034 C82.3396526,126.776718 138.279412,63.6979364 213.259839,38.9060209 L216,38 L216,38 L271,0 L324.45715,50.637 L346,1 Z" id="mastersceneone-on-one-path-11"/><polygon id="mastersceneone-on-one-path-13" points="14.61 657.775 139.738 657.775 179.047 345.471 215.475 657.775 327.432 657.775 315.989 -1.70530257e-13 3.41060513e-13 -1.70530257e-13"/><rect id="mastersceneone-on-one-path-9" x="0" y="0" width="1400" height="928"/></defs><g id="Master/Scene/One on One" stroke="none" stroke-width="1" fill="none" fill-rule="evenodd"><g id="Furniture" transform="translate(1800.000000, 0.000000) scale(1 1)"><g id="Furniture/Plant1" stroke="none" stroke-width="1" fill="none" fill-rule="evenodd"><path d="M829,1677.24692 L372,1677.24692 L292,2000 L371.663392,2000 L440.672066,1780.05394 C447.212621,1759.20772 466.530829,1745.02212 488.379019,1745.02212 L712.297918,1745.02212 C734.146108,1745.02212 753.464316,1759.20772 760.004872,1780.05394 L829.013545,2000 L829.013545,2000 L909,2000 L829,1677.24692 Z" id="Chair" fill="#E7D6A0"/><rect id="Rectangle" fill="#CCB465" x="302" y="1634" width="600" height="60" rx="10"/><g id="Group" transform="translate(154.000000, 643.000000)"><path d="M354.247014,887.396156 L654.247014,887.396156 L693.664504,826.841752 C712.117014,798.494418 743.648667,781.396156 777.472719,781.396156 L817.911008,781.396156 C873.098455,781.396156 924.634526,753.814888 955.247014,707.896156 C975.34872,677.743597 967.200894,637.004465 937.048335,616.902759 C931.705872,613.341117 925.86957,610.582914 919.72603,608.716336 L795.247014,570.896156 C672.197812,533.510394 539.437623,584.066711 472.424187,693.830097 L354.247014,887.396156 L354.247014,887.396156 Z" id="Path-70" fill="#CAEFDD" fill-rule="nonzero"/><path d="M510.590647,822.853008 C571.48246,711.61757 694.934406,649.983776 820.206634,667.876508 L824.003257,668.443085 L872.862176,676.047586 L871.631852,683.952414 L822.772933,676.347913 C700.767572,657.358752 579.937201,716.097631 519.423256,823.427164 L517.608024,826.694417 L491.755703,873.920704 L484.738326,870.079296 L510.590647,822.853008 Z" id="Path-74" fill="#000" fill-rule="nonzero"/><path d="M710.753786,194.321039 C692.946563,261.275481 679.177904,308.353234 669.44781,335.554298 L661.227291,358.50433 C646.194804,400.600225 639.044035,421.887103 631.720128,447.023034 C621.839435,480.933954 615.335496,511.255886 611.79883,541.284409 C603.616018,610.76165 619.387833,799.336924 647.63231,886.396156 L352.63231,886.396156 C310.235271,757.186134 300.433423,620.178207 313.85814,506.193886 C319.386902,459.251201 329.08108,413.69115 342.962841,365.632956 L343.697327,363.10125 C353.693085,328.795423 362.653855,302.384206 381.756288,249.073031 L386.698468,235.286765 C394.338851,213.93285 402.10994,178.584828 410.011735,129.242699 C423.416384,45.538379 502.138764,-11.4507562 585.843083,1.95390165 C587.611521,2.23710453 589.374866,2.55123753 591.13231,2.89615633 C674.909661,19.3384401 729.495518,100.582506 713.053234,184.359857 C712.396771,187.704692 711.629857,191.026899 710.753786,194.321039 Z" id="Path-69" fill="#CAEFDD" fill-rule="nonzero"/><path d="M596.292783,137.39663 L604.201245,138.60337 L492.201245,872.60337 L484.292783,871.39663 L596.292783,137.39663 Z M508.258763,168.693648 L516.235265,169.306352 L462.235265,872.306352 L454.258763,871.693648 L508.258763,168.693648 Z" id="Combined-Shape" fill="#000" fill-rule="nonzero"/><path d="M265.775994,512.913526 C304.98305,505.459243 343.625332,505.347172 381.009432,513.869972 C461.581218,532.238669 522.175521,586.794013 557.790214,663.728666 C575.528886,702.04764 589.795233,776.630694 600.589256,887.477826 L318.247014,887.396156 L307.236836,856.059495 C288.931563,803.959871 231.857117,776.564137 179.757493,794.86941 C173.120781,797.201228 166.74867,800.226898 160.747014,803.896156 L143.881719,814.207166 C100.33371,840.831305 43.4479438,827.111796 16.8238051,783.563787 C14.9479754,780.495569 13.2528291,777.320479 11.7470141,774.054714 C-14.0012045,718.212782 3.6998034,651.950451 53.8654067,616.387768 C101.364783,582.71521 138.169715,559.67423 164.280203,547.264829 C198.791088,530.863013 232.454515,519.248807 265.775994,512.913526 Z" id="Path-69" fill="#CAEFDD" fill-rule="nonzero"/><path d="M118.505555,710.0872 C195.41909,637.69799 316.452879,641.365681 388.842089,718.279216 C414.492708,745.532999 431.5771,779.707722 437.990719,816.563474 L438.181803,817.681131 L447.191785,871.337595 L439.302243,872.662405 L430.29226,819.005941 C424.293705,783.283202 407.842369,750.139632 383.016489,723.762134 C314.349022,650.80295 199.999373,646.629026 126.211951,713.853828 L123.988473,715.9128 L118.505555,710.0872 Z" id="Path-76" fill="#000" fill-rule="nonzero"/><path d="M863.470533,555.884667 C695.950188,630.636423 594.875682,740.341534 560.247014,885 L618.247014,886.396156 L318.247014,886.396156 C404.64592,555.776344 578.133819,358.029453 838.710713,293.155485 C894.624408,279.234994 951.236168,313.277267 965.156605,369.190976 C967.209192,377.435528 968.247014,385.899937 968.247014,394.396156 C968.247014,464.184752 927.201974,527.44611 863.470533,555.884667 Z" id="Path-69" fill="#A8DEC4" fill-rule="nonzero"/><path d="M785.692006,403.710787 L788.802022,411.081526 C633.620767,476.558849 520.392716,628.171328 449.229078,866.279529 L447.085479,873.521405 L439.408549,871.270908 C510.334708,629.326533 624.137331,474.033796 780.927626,405.75326 L785.692006,403.710787 Z" id="Path-72" fill="#000" fill-rule="nonzero"/><path d="M769.197555,483.140125 L771.296473,490.859875 C629.665522,529.367829 532.117195,654.496714 478.73611,866.885637 L477.132021,873.348375 L469.362007,871.443938 C522.473198,654.752829 620.932093,525.511874 764.823309,484.360182 L769.197555,483.140125 Z" id="Path-72" fill="#000" fill-rule="nonzero"/><path d="M274.375393,115.869779 C503.62314,278.406655 618.247014,534.582114 618.247014,884.396156 L323.528304,886.808027 C284.420461,659.245866 200.730142,483.890265 72.4573488,360.741226 C16.4534886,306.97435 7.33828112,220.676849 50.8733454,156.396156 C100.091588,83.7240969 198.903202,64.7110221 271.575262,113.929265 C272.515542,114.566084 273.44897,115.212964 274.375393,115.869779 Z" id="Path-69" fill="#8ED1B0" fill-rule="nonzero"/><path d="M431.788606,441.140664 C487.602934,547.45367 511.135671,694.043181 502.513269,880.918305 L502.242142,886.593519 L494.251886,886.198794 C503.459898,699.804843 480.788573,553.752236 426.36436,448.05008 L424.705422,444.859336 L431.788606,441.140664 Z M204.161091,255.656055 C371.129039,433.225143 460.407633,641.06225 471.918535,879.009883 L472.243546,886.229634 L464.250482,886.562679 C454.390311,649.918589 367.442824,443.278365 203.329683,266.484512 L198.332938,261.136258 L204.161091,255.656055 Z M251.422821,440.568076 C364.123074,587.741348 421.101618,734.885779 422.229919,881.939996 L422.247014,886.396156 L414.247014,886.396156 C414.247014,741.205618 359.020555,595.711362 248.439105,449.852016 L245.071208,445.431924 L251.422821,440.568076 Z" id="Combined-Shape" fill="#000" fill-rule="nonzero"/><path d="M207,871 L687,871 C692.522847,871 697,875.477153 697,881 L697,931 C697,964.137085 670.137085,991 637,991 L257,991 C223.862915,991 197,964.137085 197,931 L197,881 C197,875.477153 201.477153,871 207,871 Z" id="Vase" fill="#DFE9EE"/><path d="M579,965 L579,973 L551,973 L551,965 L579,965 Z M659,945 L659,953 L631,953 L631,945 L659,945 Z M619,925 L619,933 L591,933 L591,925 L619,925 Z M649,895 L649,903 L621,903 L621,895 L649,895 Z" id="Combined-Shape" fill="#000" fill-rule="nonzero"/></g></g></g><g transform="translate(0.000000, 200.000000) scale(1 1)" id="Master/Character/Sitting"><defs><rect id="mastercharactersitting-path-1" x="0" y="0" width="1400" height="928"/><path d="M346,1 L403,44 C455.330837,60.5927043 498.49333,98.0479325 522.293031,147.519222 L574,255 L574,255 L617,159 L692,193 L637.210403,321.803615 C619.915873,362.46093 572.93662,381.40021 532.279305,364.10568 C517.498602,357.818366 504.952779,347.227337 496.274699,333.711035 L465,285 L465,285 C484.333333,388.333333 494.666667,454.666667 496,484 C497.333333,513.333333 487.666667,530 467,534 L122.243501,534 C67.0150256,534 22.2435006,489.228475 22.2435006,434 C22.2435006,427.344215 22.9079885,420.705057 24.2270788,414.181295 L66.6882657,204.183034 C82.3396526,126.776718 138.279412,63.6979364 213.259839,38.9060209 L216,38 L216,38 L271,0 L324.45715,50.637 L346,1 Z" id="mastercharactersitting-path-3"/></defs><g id="Master/Character/Sitting" stroke="none" stroke-width="1" fill="none" fill-rule="evenodd"><g id="Chair" transform="translate(100.000000, 800.000000) scale(1 1)"><g id="Chair/Wooden" stroke="none" stroke-width="1" fill="none" fill-rule="evenodd"><path d="M927.228215,677.299364 L620.956284,677.299364 C613.031846,677.299364 607.640064,669.261609 610.648498,661.932283 L650.658439,564.473401 L936.73598,544.771101 L936.73598,500.215923 L508.137788,500.215923 L508.137788,544.771101 L581.432149,560.303036 L536.06831,677.299364 L508.143359,677.299364 L433.164275,604.570833 L443.774018,173.951723 C444.14283,158.860884 432.090153,146.51353 416.990044,146.51353 C364.024895,135.542932 309.41068,135.170896 256.301795,145.420815 L249.091582,146.81205 C233.061087,149.905293 221.611211,164.12285 222.010107,180.44007 L230.902814,540.850245 C231.901169,581.690635 248.892134,620.509334 278.221021,648.957815 L376.340532,744.13213 L425.263237,744.13213 L512.164632,744.13213 L411,1000 L466.711737,1000 L576.902785,744.13213 L577.043179,744.13213 L874.084789,744.13213 L944.288263,999 L1000,999 L927.228215,677.299364 Z" id="Chair-back" fill="#C4A182"/><path d="M942,1000 L1074.87415,1000 C1085.91985,1000 1094.87415,991.045695 1094.87415,980 C1094.87415,972.371944 1090.53508,965.408128 1083.68762,962.046648 L996,919 L996,919 L912,919 L912,970 C912,986.568542 925.431458,1000 942,1000 Z" id="Fill-21" fill="#DBDAC6"/><path d="M715.769613,1000 L861.405462,1000 C872.451157,1000 881.405462,991.045695 881.405462,980 C881.405462,972.354734 877.046994,965.378353 870.176068,962.025672 L782,919 L782,919 L698,919 L686.729706,962.471135 C682.571628,978.509433 692.20245,994.88183 708.240748,999.039907 C710.699603,999.677388 713.229465,1000 715.769613,1000 Z" id="Fill-21" fill="#DBDAC6"/><path d="M756.9617,500.388088 L468,501.101129 L468,501.101129 L468,564.729184 C468,626.163668 517.888201,675.965099 579.429722,675.965099 L835.168735,675.965099 L902.228998,919 L1017,919 L951.698343,652.747072 C929.714508,563.112891 849.252131,500.160352 756.9617,500.388088 Z" id="Fill-27" fill="#696089"/><path d="M766.994528,500 L380,500 L380,500 L380,564.866537 C380,626.277202 429.861891,676.059325 491.370958,676.059325 L746.975102,676.059325 L698.003064,919 L831,919 L901.326101,679.433851 C923.104815,605.244572 880.617658,527.447142 806.428379,505.668427 C793.621185,501.908797 780.342152,500 766.994528,500 Z" id="Fill-29" fill="#696089"/><path d="M884.899444,572.512005 C909.518797,603.504674 916.734761,638.802468 906.489395,678.011257 L905.572106,681.495393 C895.663355,718.860558 878.589709,774.851804 854.344479,849.498461 L852.803666,854.237792 L845.196334,851.762208 L848.253532,842.34966 C872.406186,767.842725 889.240401,712.378997 898.749276,675.988743 C908.266786,639.565444 901.809654,607.149779 879.32166,578.359324 L878.635299,577.487995 L884.899444,572.512005 Z" id="Path-11" fill="#000" fill-rule="nonzero"/><g id="Chair-front" transform="translate(199.000000, 500.000000)"><path d="M516.905212,177.160734 L210.503626,177.160734 C202.575833,177.160734 197.181769,169.1195 200.191476,161.787001 L240.218355,64.2859289 L538.080175,48.7060387 L538.080175,0.00063441095 L97.63737,0.00063441095 L97.63737,44.5751001 L170.962759,60.1137589 L0.791675324,499.000634 L56.5269969,499.000634 L166.431477,244.022433 L463.739288,244.022433 L534,500 L589.735322,500 L516.905212,177.160734 Z" id="Chair" fill="#AF8358"/><polygon id="Stroke-7" fill="#000" fill-rule="nonzero" points="566.665072 172.19414 566.678865 180.194128 211.12576 180.807128 211.111968 172.80714"/></g></g></g><g id="Head" transform="translate(560.999650, 572.000000)" fill="#ffeb81"><path d="M173.4931,66.499221 C182.1061,110.758221 197.9031,184.720221 112.0001,190.645221 C47.3491,195.103221 34.1221,133.336221 28.0001,98.645221 C19.0001,47.645221 36.0001,13.645221 84.0001,2.64522101 C149.3581,-12.333779 168.3391,40.016221 173.4931,66.499221"/><path d="M140,217 L140,172 L66,172 L64,214 L-6.39488462e-13,246.644721 L37.2,279.966721 C78.318,316.799721 141.503,313.346721 178.363,272.252721 L201.333,246.644721 L140,217 Z" id="Neck"/></g><g id="Hair" transform="translate(403.999650, 378.000000) scale(1 1)"><g id="Hair/Afro Bun" stroke="none" stroke-width="1" fill="none" fill-rule="evenodd"><path d="M156.413451,243.033158 C154.378451,249.690158 152.758451,256.050158 151.515451,262.130158 C113.651451,246.106158 86.4224511,214.982158 86.1464511,214.664158 C75.3874511,202.064158 56.4524511,200.572158 43.8514511,211.331158 C34.4654511,219.338158 31.2464511,231.910158 34.6724511,243.012158 C18.5444511,240.467158 3.29245108,251.305158 0.456451082,267.451158 C-1.74154892,279.973158 4.17445108,292.036158 14.4164511,298.269158 C4.54445108,304.635158 -1.06854892,316.511158 1.13645108,328.795158 C3.61245108,342.587158 15.1494511,352.471158 28.5154511,353.421158 C23.6044511,362.081158 23.1014511,372.992158 28.1524511,382.414158 C35.7714511,396.630158 53.2054511,402.208158 67.5964511,395.272158 C68.7574511,403.536158 73.3334511,411.277158 80.8624511,416.208158 C92.5644511,423.871158 107.638451,422.301158 117.513451,413.287158 C119.335451,411.624158 120.981451,409.706158 122.395451,407.547158 C133.107451,391.192158 150.134451,366.729158 165.238451,347.390158 C197.045451,390.510158 262.501451,392.829158 262.501451,392.829158 C317.591451,392.829158 297.994451,237.733158 314.163451,210.996158 C332.782451,180.211158 190.097451,132.853158 156.413451,243.033158" id="Hair" fill="#ffeb81"/></g></g><g id="Face" transform="translate(592.999650, 622.000000) scale(1 1)" fill="#000"><defs><path d="M16,0.828427125 C24.836556,0.828427125 32,7.99187113 32,16.8284271 C32,25.6649831 24.836556,32.8284271 16,32.8284271 C7.163444,32.8284271 0,25.6649831 0,16.8284271 C0,7.99187113 7.163444,0.828427125 16,0.828427125 Z" id="facedark-glasses-path-1"/><path d="M16.8284271,0.828427125 C25.6649831,0.828427125 32.8284271,7.99187113 32.8284271,16.8284271 C32.8284271,25.6649831 25.6649831,32.8284271 16.8284271,32.8284271 C7.99187113,32.8284271 0.828427125,25.6649831 0.828427125,16.8284271 C0.828427125,7.99187113 7.99187113,0.828427125 16.8284271,0.828427125 Z" id="facedark-glasses-path-3"/></defs><g id="Face/Dark Glasses" stroke="none" stroke-width="1" fill="none" fill-rule="evenodd"><path d="M139.505488,21.7624637 L147.358805,20.2375363 L147.914623,23.1292784 C150.492,36.6861902 151.956285,46.6187181 152.640849,56.8252335 C153.601715,71.1512888 152.68093,83.6925106 149.422756,94.7127057 C141.400988,121.844902 119.647922,138.009871 81.4351761,140.907001 L80.2721732,140.990729 L79.7278268,133.009271 C115.453825,130.572709 134.63761,116.504402 141.751032,92.4445228 C144.707273,82.445563 145.561191,70.815079 144.658782,57.3606006 C143.998859,47.5214545 142.57044,37.8441959 140.038812,24.5363568 L139.505488,21.7624637 Z" id="Stroke-9" fill="#000" fill-rule="nonzero"/><g id="Group" transform="translate(85.000000, 41.000000) rotate(-5.000000) translate(-85.000000, -41.000000) translate(12.000000, 17.000000)"><path d="M122,0 C135.254834,0 146,10.745166 146,24 C146,37.254834 135.254834,48 122,48 C110.108321,48 100.236654,39.3512987 98.3319809,28.0008768 L96.6680191,28.0008768 C94.7633455,39.3512987 84.891679,48 73,48 C61.108321,48 51.2366545,39.3512987 49.3319809,28.0008768 L15,28 C11.2145483,28 8.13090132,31.0047834 8.00405902,34.7593502 L8,35 C8,37.209139 6.209139,39 4,39 C1.790861,39 0,37.209139 0,35 C0,26.8205929 6.54678637,20.1702698 14.6861718,20.0032178 L15,20 L49.3318133,20.000122 C51.2360754,8.64920863 61.1079722,0 73,0 C84.8920278,0 94.7639246,8.64920863 96.6681867,20.000122 L98.3318133,20.000122 C100.236075,8.64920863 110.107972,0 122,0 Z" id="Glasses" fill="#FFA896"/><g id="Path" transform="translate(106.000000, 7.171573)"><mask id="facedark-glasses-mask-2" fill="#ffffff"><use xlink:href="#facedark-glasses-path-1" fill="#ffffff"/></mask><use id="Mask" fill="#006AD6" xlink:href="#facedark-glasses-path-1"/><path d="M29.8284271,5.82842712 L35.4852814,11.4852814 L8.48528137,38.4852814 L2.82842712,32.8284271 L29.8284271,5.82842712 Z M25,-3 L30.6568542,2.65685425 L3.65685425,29.6568542 L-2,24 L25,-3 Z" id="Combined-Shape" fill-opacity=".5" fill="#FFF" fill-rule="nonzero" mask="url(#facedark-glasses-mask-2)"/></g><g id="Path" transform="translate(56.171573, 7.171573)"><mask id="facedark-glasses-mask-4" fill="#ffffff"><use xlink:href="#facedark-glasses-path-3" fill="#ffffff"/></mask><use id="Mask" fill="#006AD6" xlink:href="#facedark-glasses-path-3"/><path d="M30.8284271,5.82842712 L36.4852814,11.4852814 L9.48528137,38.4852814 L3.82842712,32.8284271 L30.8284271,5.82842712 Z M25,-2 L30.6568542,3.65685425 L3.65685425,30.6568542 L-2,25 L25,-2 Z" id="Combined-Shape" fill-opacity=".5" fill="#FFF" fill-rule="nonzero" mask="url(#facedark-glasses-mask-4)"/></g></g></g></g><g id="Torso" transform="translate(0.000000, 372.000000)"><mask id="mastercharactersitting-mask-2" fill="#ffffff"><use xlink:href="#mastercharactersitting-path-1" fill="#ffffff"/></mask><g id="Mask"/><g mask="url(#mastercharactersitting-mask-2)"><g transform="translate(100.000000, 288.000000) scale(1 1)" id="Upper Body"><defs><path d="M541.1735,347.65 L415.6305,310.677 C395.7185,304.813 381.7655,286.9 380.9535,266.158 L375.9105,137.351 C374.1845,93.243 348.3815,53.644 308.7295,34.249 L245,3.003 C227.954,37.964 169.1585,0 169,0 L94.7005,37.625 C47.7605,61.447 21.8255,113.079 30.7405,164.958 L48.8965,270.606 L0.8965,1078.243 L398.4105,1078.243 L369.1635,435.644 L513.1465,442.819 L541.1735,347.65 Z" id="upper-bodylong-dress-path-1"/></defs><g id="Upper Body/Long Dress" stroke="none" stroke-width="1" fill="none" fill-rule="evenodd"><g id="Group" transform="translate(356.000000, 101.000000)"><path d="M517.265348,341.9581 L500.066348,397.0571 L547.794348,411.4631 L564.193348,423.7471 C575.051348,431.8811 587.909348,436.9241 601.402348,438.3431 L642.743348,442.6881 C650.861348,443.5411 658.851348,440.1871 663.928348,433.7951 C669.911348,426.2621 669.683348,415.5381 663.386348,408.2651 L638.510348,379.5341 C628.811348,368.3311 613.711348,363.4081 599.273348,366.7411 L517.265348,341.9581 Z" id="Hand" fill="#ffeb81"/><path d="M612.896893,401.929794 L616.437186,404.81768 L617.354582,405.591543 L618.47104,406.552525 C619.49439,407.441791 620.597952,408.423243 621.765404,409.488533 C626.052272,413.400264 630.339316,417.649388 634.35095,422.09889 C639.236308,427.517484 643.374558,432.862721 646.537365,438.042135 L646.962589,438.747382 L649.008408,442.184623 L642.133925,446.27626 L640.088107,442.839018 C637.175128,437.944835 633.191639,432.76016 628.409301,427.45583 C624.58672,423.216016 620.479961,419.145583 616.373028,415.398041 C615.11581,414.25084 613.938393,413.207326 612.864399,412.279943 L612.167333,411.6819 L610.990494,410.693983 L607.845942,408.133655 L612.896893,401.929794 Z M624.852566,389.220415 L628.34451,391.628288 C628.711578,391.886824 629.260757,392.285855 629.970002,392.820343 C631.365713,393.872151 632.914945,395.101164 634.57965,396.498892 C639.325225,400.483397 644.068052,405.036798 648.503402,410.09626 C654.89903,417.391836 660.10913,425.123665 663.713435,433.224842 L664.080549,434.06421 L665.660139,437.73911 L658.310338,440.898291 L656.730748,437.22339 C653.479415,429.659198 648.587823,422.328395 642.487694,415.369898 C638.339775,410.638313 633.886243,406.362653 629.435459,402.625661 C628.054107,401.465843 626.763174,400.434631 625.589761,399.538843 L625.155293,399.209285 C624.799038,398.940811 624.476418,398.702158 624.1899,398.493937 L623.606997,398.077534 L620.313263,395.807883 L624.852566,389.220415 Z" id="Combined-Shape" fill="#000" fill-rule="nonzero"/><g id="Dress" transform="translate(0.000048, 0.000000)"><mask id="upper-bodylong-dress-mask-2" fill="#ffffff"><use xlink:href="#upper-bodylong-dress-path-1" fill="#ffffff"/></mask><use id="Long-Dress" fill="#FFA896" xlink:href="#upper-bodylong-dress-path-1"/><path d="M-5.65200371,1033.03409 C-2.29337366,1035.23202 0.598208247,1038.06833 2.85956565,1041.37985 L3.19402218,1041.88012 C10.0259714,1052.31995 24.0275169,1055.24472 34.4673494,1048.41277 C37.0716595,1046.70848 39.2957088,1044.48443 41,1041.88012 C50.2513137,1027.74328 69.2111574,1023.78278 83.3479963,1033.03409 C86.7066263,1035.23202 89.5982082,1038.06833 91.8595657,1041.37985 L92.1940222,1041.88012 C99.0259714,1052.31995 113.027517,1055.24472 123.467349,1048.41277 C126.071659,1046.70848 128.295709,1044.48443 130,1041.88012 C139.251314,1027.74328 158.211157,1023.78278 172.347996,1033.03409 C175.706626,1035.23202 178.598208,1038.06833 180.859566,1041.37985 L181.194022,1041.88012 C188.025971,1052.31995 202.027517,1055.24472 212.467349,1048.41277 C215.071659,1046.70848 217.295709,1044.48443 219,1041.88012 C228.251314,1027.74328 247.211157,1023.78278 261.347996,1033.03409 C264.706626,1035.23202 267.598208,1038.06833 269.859566,1041.37985 L270.194022,1041.88012 C277.025971,1052.31995 291.027517,1055.24472 301.467349,1048.41277 C304.071659,1046.70848 306.295709,1044.48443 308,1041.88012 C317.251314,1027.74328 336.211157,1023.78278 350.347996,1033.03409 C353.706626,1035.23202 356.598208,1038.06833 358.859566,1041.37985 L359.194022,1041.88012 C366.025971,1052.31995 380.027517,1055.24472 390.467349,1048.41277 C393.071659,1046.70848 395.295709,1044.48443 397,1041.88012 C406.251314,1027.74328 425.211157,1023.78278 439.347996,1033.03409 C442.706626,1035.23202 445.598208,1038.06833 447.859566,1041.37985 L448.194022,1041.88012 L470.444022,1075.88012 L463.75,1080.26076 L441.5,1046.26076 C439.795709,1043.65645 437.571659,1041.4324 434.967349,1039.72811 C424.634046,1032.96588 410.811346,1035.76226 403.905392,1045.94353 L403.694022,1046.26076 C401.386199,1049.78732 398.374558,1052.79897 394.847996,1055.10679 C380.711157,1064.3581 361.751314,1060.3976 352.5,1046.26076 C350.795709,1043.65645 348.571659,1041.4324 345.967349,1039.72811 C335.634046,1032.96588 321.811346,1035.76226 314.905392,1045.94353 L314.694022,1046.26076 C312.386199,1049.78732 309.374558,1052.79897 305.847996,1055.10679 C291.711157,1064.3581 272.751314,1060.3976 263.5,1046.26076 C261.795709,1043.65645 259.571659,1041.4324 256.967349,1039.72811 C246.634046,1032.96588 232.811346,1035.76226 225.905392,1045.94353 L225.694022,1046.26076 C223.386199,1049.78732 220.374558,1052.79897 216.847996,1055.10679 C202.711157,1064.3581 183.751314,1060.3976 174.5,1046.26076 C172.795709,1043.65645 170.571659,1041.4324 167.967349,1039.72811 C157.634046,1032.96588 143.811346,1035.76226 136.905392,1045.94353 L136.694022,1046.26076 C134.386199,1049.78732 131.374558,1052.79897 127.847996,1055.10679 C113.711157,1064.3581 94.7513137,1060.3976 85.5,1046.26076 C83.7957088,1043.65645 81.5716595,1041.4324 78.9673494,1039.72811 C68.6340458,1032.96588 54.8113464,1035.76226 47.9053917,1045.94353 L47.6940222,1046.26076 C45.3861988,1049.78732 42.3745578,1052.79897 38.8479963,1055.10679 C24.7111574,1064.3581 5.75131367,1060.3976 -3.5,1046.26076 C-5.20429115,1043.65645 -7.42834051,1041.4324 -10.0326506,1039.72811 C-20.3659542,1032.96588 -34.1886536,1035.76226 -41.0946083,1045.94353 L-41.3059778,1046.26076 L-48,1041.88012 C-38.7486863,1027.74328 -19.7888426,1023.78278 -5.65200371,1033.03409 Z M-5.65200371,1007.03409 C-2.29337366,1009.23202 0.598208247,1012.06833 2.85956565,1015.37985 L3.19402218,1015.88012 C10.0259714,1026.31995 24.0275169,1029.24472 34.4673494,1022.41277 C37.0716595,1020.70848 39.2957088,1018.48443 41,1015.88012 C50.2513137,1001.74328 69.2111574,997.782777 83.3479963,1007.03409 C86.7066263,1009.23202 89.5982082,1012.06833 91.8595657,1015.37985 L92.1940222,1015.88012 C99.0259714,1026.31995 113.027517,1029.24472 123.467349,1022.41277 C126.071659,1020.70848 128.295709,1018.48443 130,1015.88012 C139.251314,1001.74328 158.211157,997.782777 172.347996,1007.03409 C175.706626,1009.23202 178.598208,1012.06833 180.859566,1015.37985 L181.194022,1015.88012 C188.025971,1026.31995 202.027517,1029.24472 212.467349,1022.41277 C215.071659,1020.70848 217.295709,1018.48443 219,1015.88012 C228.251314,1001.74328 247.211157,997.782777 261.347996,1007.03409 C264.706626,1009.23202 267.598208,1012.06833 269.859566,1015.37985 L270.194022,1015.88012 C277.025971,1026.31995 291.027517,1029.24472 301.467349,1022.41277 C304.071659,1020.70848 306.295709,1018.48443 308,1015.88012 C317.251314,1001.74328 336.211157,997.782777 350.347996,1007.03409 C353.706626,1009.23202 356.598208,1012.06833 358.859566,1015.37985 L359.194022,1015.88012 C366.025971,1026.31995 380.027517,1029.24472 390.467349,1022.41277 C393.071659,1020.70848 395.295709,1018.48443 397,1015.88012 C406.251314,1001.74328 425.211157,997.782777 439.347996,1007.03409 C442.706626,1009.23202 445.598208,1012.06833 447.859566,1015.37985 L448.194022,1015.88012 L470.444022,1049.88012 L463.75,1054.26076 L441.5,1020.26076 C439.795709,1017.65645 437.571659,1015.4324 434.967349,1013.72811 C424.634046,1006.96588 410.811346,1009.76226 403.905392,1019.94353 L403.694022,1020.26076 C401.386199,1023.78732 398.374558,1026.79897 394.847996,1029.10679 C380.711157,1038.3581 361.751314,1034.3976 352.5,1020.26076 C350.795709,1017.65645 348.571659,1015.4324 345.967349,1013.72811 C335.634046,1006.96588 321.811346,1009.76226 314.905392,1019.94353 L314.694022,1020.26076 C312.386199,1023.78732 309.374558,1026.79897 305.847996,1029.10679 C291.711157,1038.3581 272.751314,1034.3976 263.5,1020.26076 C261.795709,1017.65645 259.571659,1015.4324 256.967349,1013.72811 C246.634046,1006.96588 232.811346,1009.76226 225.905392,1019.94353 L225.694022,1020.26076 C223.386199,1023.78732 220.374558,1026.79897 216.847996,1029.10679 C202.711157,1038.3581 183.751314,1034.3976 174.5,1020.26076 C172.795709,1017.65645 170.571659,1015.4324 167.967349,1013.72811 C157.634046,1006.96588 143.811346,1009.76226 136.905392,1019.94353 L136.694022,1020.26076 C134.386199,1023.78732 131.374558,1026.79897 127.847996,1029.10679 C113.711157,1038.3581 94.7513137,1034.3976 85.5,1020.26076 C83.7957088,1017.65645 81.5716595,1015.4324 78.9673494,1013.72811 C68.6340458,1006.96588 54.8113464,1009.76226 47.9053917,1019.94353 L47.6940222,1020.26076 C45.3861988,1023.78732 42.3745578,1026.79897 38.8479963,1029.10679 C24.7111574,1038.3581 5.75131367,1034.3976 -3.5,1020.26076 C-5.20429115,1017.65645 -7.42834051,1015.4324 -10.0326506,1013.72811 C-20.3659542,1006.96588 -34.1886536,1009.76226 -41.0946083,1019.94353 L-41.3059778,1020.26076 L-48,1015.88012 C-38.7486863,1001.74328 -19.7888426,997.782777 -5.65200371,1007.03409 Z M439.347996,981.000371 C442.706626,983.198298 445.598208,986.034608 447.859566,989.346125 L448.194022,989.846397 L470.444022,1023.8464 L463.75,1028.22704 L441.5,994.227043 C439.795709,991.622733 437.571659,989.398684 434.967349,987.694393 C424.634046,980.932157 410.811346,983.728538 403.905392,993.909807 L403.694022,994.227043 C401.386199,997.753605 398.374558,1000.76525 394.847996,1003.07307 C380.711157,1012.32438 361.751314,1008.36388 352.5,994.227043 C350.795709,991.622733 348.571659,989.398684 345.967349,987.694393 C335.634046,980.932157 321.811346,983.728538 314.905392,993.909807 L314.694022,994.227043 C312.386199,997.753605 309.374558,1000.76525 305.847996,1003.07307 C291.711157,1012.32438 272.751314,1008.36388 263.5,994.227043 C261.795709,991.622733 259.571659,989.398684 256.967349,987.694393 C246.634046,980.932157 232.811346,983.728538 225.905392,993.909807 L225.694022,994.227043 C223.386199,997.753605 220.374558,1000.76525 216.847996,1003.07307 C202.711157,1012.32438 183.751314,1008.36388 174.5,994.227043 C172.795709,991.622733 170.571659,989.398684 167.967349,987.694393 C157.634046,980.932157 143.811346,983.728538 136.905392,993.909807 L136.694022,994.227043 C134.386199,997.753605 131.374558,1000.76525 127.847996,1003.07307 C113.711157,1012.32438 94.7513137,1008.36388 85.5,994.227043 C83.7957088,991.622733 81.5716595,989.398684 78.9673494,987.694393 C68.6340458,980.932157 54.8113464,983.728538 47.9053917,993.909807 L47.6940222,994.227043 C45.3861988,997.753605 42.3745578,1000.76525 38.8479963,1003.07307 C24.7111574,1012.32438 5.75131367,1008.36388 -3.5,994.227043 C-5.20429115,991.622733 -7.42834051,989.398684 -10.0326506,987.694393 C-20.3659542,980.932157 -34.1886536,983.728538 -41.0946083,993.909807 L-41.3059778,994.227043 L-48,989.846397 C-38.7486863,975.709558 -19.7888426,971.749057 -5.65200371,981.000371 C-2.29337366,983.198298 0.598208247,986.034608 2.85956565,989.346125 L3.19402218,989.846397 C10.0259714,1000.28623 24.0275169,1003.211 34.4673494,996.379047 C37.0716595,994.674756 39.2957088,992.450707 41,989.846397 C50.2513137,975.709558 69.2111574,971.749057 83.3479963,981.000371 C86.7066263,983.198298 89.5982082,986.034608 91.8595657,989.346125 L92.1940222,989.846397 C99.0259714,1000.28623 113.027517,1003.211 123.467349,996.379047 C126.071659,994.674756 128.295709,992.450707 130,989.846397 C139.251314,975.709558 158.211157,971.749057 172.347996,981.000371 C175.706626,983.198298 178.598208,986.034608 180.859566,989.346125 L181.194022,989.846397 C188.025971,1000.28623 202.027517,1003.211 212.467349,996.379047 C215.071659,994.674756 217.295709,992.450707 219,989.846397 C228.251314,975.709558 247.211157,971.749057 261.347996,981.000371 C264.706626,983.198298 267.598208,986.034608 269.859566,989.346125 L270.194022,989.846397 C277.025971,1000.28623 291.027517,1003.211 301.467349,996.379047 C304.071659,994.674756 306.295709,992.450707 308,989.846397 C317.251314,975.709558 336.211157,971.749057 350.347996,981.000371 C353.706626,983.198298 356.598208,986.034608 358.859566,989.346125 L359.194022,989.846397 C366.025971,1000.28623 380.027517,1003.211 390.467349,996.379047 C393.071659,994.674756 395.295709,992.450707 397,989.846397 C406.251314,975.709558 425.211157,971.749057 439.347996,981.000371 Z" id="Combined-Shape" fill="#FFFCD6" fill-rule="nonzero" opacity=".5" mask="url(#upper-bodylong-dress-mask-2)"/><path d="M115.610467,40.0107953 L116.418004,40.6006126 C121.100901,44.0209573 127.669876,42.9974564 131.090221,38.3145593 C134.510566,33.6316622 133.487065,27.0626868 128.804168,23.642342 L127.996631,23.0525247 C123.313734,19.6321799 116.744758,20.6556809 113.324414,25.338578 C109.904069,30.0214751 110.92757,36.5904505 115.610467,40.0107953 Z M136.856693,54.4835909 L137.702808,55.0165921 C142.609417,58.1074604 149.092654,56.6355113 152.183522,51.7289018 C155.274391,46.8222923 153.802442,40.3390556 148.895832,37.2481873 L148.049718,36.7151862 C143.143108,33.6243179 136.659871,35.0962669 133.569003,40.0028764 C130.478135,44.9094859 131.950084,51.3927226 136.856693,54.4835909 Z M159.413164,67.3533532 L160.304593,67.806514 C165.473979,70.4343891 171.794909,68.3740871 174.422784,63.2047007 C177.050659,58.0353143 174.990357,51.7143849 169.820971,49.0865098 L168.929542,48.6333489 C163.760155,46.0054738 157.439226,48.0657758 154.811351,53.2351623 C152.183476,58.4045487 154.243778,64.725478 159.413164,67.3533532 Z M183.538404,77.8442473 L184.480091,78.1807371 C189.940925,80.1320383 195.949648,77.287 197.900949,71.8261661 C199.85225,66.3653321 197.007212,60.3566094 191.546378,58.4053082 L190.604691,58.0688183 C185.143857,56.1175171 179.135134,58.9625555 177.183833,64.4233894 C175.232532,69.8842233 178.07757,75.892946 183.538404,77.8442473 Z M209.524321,84.6939205 L210.511169,84.8555678 C216.233895,85.7929585 221.632985,81.9136785 222.570376,76.1909534 C223.507767,70.4682284 219.628487,65.0691378 213.905762,64.1317471 L212.918913,63.9700998 C207.196188,63.0327091 201.797097,66.9119891 200.859707,72.6347141 C199.922316,78.3574392 203.801596,83.7565298 209.524321,84.6939205 Z M237.109902,85.8581792 L238.105958,85.7694555 C243.882078,85.2549478 248.147458,80.1553862 247.63295,74.3792659 C247.118443,68.6031456 242.018881,64.3377659 236.242761,64.8522737 L235.246705,64.9409974 C229.470584,65.4555051 225.205205,70.5550667 225.719712,76.331187 C226.23422,82.1073073 231.333782,86.372687 237.109902,85.8581792 Z M264.360058,79.236784 L265.284469,78.8553883 C270.645124,76.6436781 273.197849,70.5050632 270.986138,65.1444083 C268.774428,59.7837533 262.635813,57.2310292 257.275158,59.4427394 L256.350746,59.8241352 C250.990092,62.0358454 248.437367,68.1744602 250.649078,73.5351152 C252.860788,78.8957701 258.999403,81.4484942 264.360058,79.236784 Z M288.341954,64.9164451 L289.121187,64.2897115 C293.639955,60.6552894 294.356858,54.0458233 290.722436,49.5270558 C287.088014,45.0082884 280.478548,44.2913848 275.95978,47.9258069 L275.180547,48.5525405 C270.661779,52.1869626 269.944876,58.7964287 273.579298,63.3151962 C277.21372,67.8339637 283.823186,68.5508672 288.341954,64.9164451 Z M307.494998,45.494324 L308.119491,44.7132936 C311.74092,40.1841061 311.005036,33.5767263 306.475848,29.9552979 C301.946661,26.3338695 295.339281,27.0697536 291.717852,31.5989411 L291.093359,32.3799716 C287.471931,36.9091591 288.207815,43.5165388 292.737003,47.1379672 C297.26619,50.7593957 303.87357,50.0235115 307.494998,45.494324 Z" id="Path-10" fill="#FFFCD6" fill-rule="nonzero" opacity=".5" mask="url(#upper-bodylong-dress-mask-2)"/></g><polygon id="Path-9" fill="#000" fill-rule="nonzero" points="361.996023 194.823589 383.996023 684.823589 376.004074 685.182411 354.004074 195.182411"/><path d="M335.355248,341.2374 L324.010248,397.8314 L372.983248,407.1704 L390.576248,417.6734 C402.225248,424.6274 415.539248,428.2994 429.106248,428.2994 L470.675248,428.2994 C478.837248,428.2994 486.434248,424.1284 490.814248,417.2404 C495.977248,409.1234 494.629248,398.4814 487.607248,391.9074 L459.865248,365.9334 C449.046248,355.8054 433.516248,352.4884 419.504248,357.3124 L335.355248,341.2374 Z" id="Hand" fill="#ffeb81"/><path d="M436.731808,390.88416 L440.366043,393.26027 L441.346801,393.92243 C441.530918,394.048162 441.724182,394.180853 441.926276,394.320379 L442.906481,395.002661 C444.076796,395.823747 445.338932,396.731961 446.674234,397.720113 C451.578947,401.349707 456.484448,405.32066 461.076391,409.516283 C466.115273,414.12027 470.469345,418.719545 473.944255,423.259187 L474.458873,423.939679 L476.852694,427.144304 L470.443444,431.931946 L468.049623,428.727321 C464.829108,424.415995 460.62615,419.941382 455.680148,415.422259 C451.309895,411.429193 446.613042,407.627138 441.9154,404.150782 L440.837485,403.358986 C439.778101,402.586639 438.775643,401.87317 437.842073,401.223361 L436.58639,400.359466 L435.705799,399.76939 L432.356909,397.58194 L436.731808,390.88416 Z M447.293051,376.994694 L451.036414,379.034684 C451.420558,379.249242 451.977016,379.570648 452.687043,379.996642 L452.929381,380.14251 C454.557344,381.125534 456.364785,382.28294 458.307349,383.609638 C463.848158,387.393801 469.387098,391.790265 474.569386,396.764746 C481.015781,402.952645 486.450265,409.60405 490.544624,416.702126 L490.994022,417.492639 L492.948883,420.982412 L485.969336,424.892134 L484.014475,421.402361 C480.290343,414.754126 475.181125,408.441149 469.029429,402.536131 C464.190272,397.891021 458.99195,393.764918 453.795497,390.215937 C451.980019,388.976035 450.29785,387.898847 448.794111,386.990834 L448.198912,386.634874 C448.010562,386.523381 447.832382,386.419065 447.664733,386.321976 L447.073215,385.984764 L443.467442,384.020697 L447.293051,376.994694 Z" id="Combined-Shape" fill="#000" fill-rule="nonzero"/><path d="M193.193934,270.910848 C217.419601,296.908244 284.125457,328.301959 334.486999,337.033743 L336.008043,337.291377 L340.090948,337.966438 L317.121353,452.544472 L313.075789,452.134069 L311.520861,451.951618 C311.025358,451.890783 310.487183,451.822465 309.907217,451.74635 L308.642945,451.576934 C306.059116,451.223759 303.144898,450.784044 299.924077,450.249237 C289.211952,448.470526 277.285493,446.011217 264.446678,442.76224 C227.76672,433.48005 191.083252,419.728291 156.813898,400.619625 C133.614165,387.683404 112.320404,372.68719 93.3465444,355.478787 L92.1386015,354.377372 L97.5444948,348.480228 C116.341785,365.711642 137.540369,380.71303 160.709964,393.632446 C194.319004,412.37292 230.362388,425.884727 266.409283,435.006715 C279.024865,438.1992 290.734633,440.613826 301.234507,442.357294 L302.780316,442.610445 C305.313844,443.019473 307.632356,443.364378 309.722006,443.650041 L310.718,443.783 L330.628,344.467 L329.964371,344.344434 C278.956303,334.715093 213.721539,303.859462 188.127996,277.196574 L187.341162,276.364752 L193.193934,270.910848 Z" id="Stroke-217" fill="#000" fill-rule="nonzero"/></g></g></g></g></g></g></g><g transform="translate(1800.000000, 1100.000000) scale(-1, 1) translate(-1800.000000, -1100.000000) translate(1100.000000, 200.000000) scale(1 1)" id="Master/Character/Standing"><g id="Master/Character/Standing" stroke="none" stroke-width="1" fill="none" fill-rule="evenodd"><g id="Head" transform="translate(561.000000, 338.000000)" fill="#ccb2ff"><path d="M173.4931,66.499221 C182.1061,110.758221 197.9031,184.720221 112.0001,190.645221 C47.3491,195.103221 34.1221,133.336221 28.0001,98.645221 C19.0001,47.645221 36.0001,13.645221 84.0001,2.64522101 C149.3581,-12.333779 168.3391,40.016221 173.4931,66.499221"/><path d="M140,217 L140,172 L66,172 L64,214 L-6.39488462e-13,246.644721 L37.2,279.966721 C78.318,316.799721 141.503,313.346721 178.363,272.252721 L201.333,246.644721 L140,217 Z" id="Neck"/></g><g id="Hair" transform="translate(404.000000, 144.000000) scale(1 1)"><g id="Hair/Big Bun" stroke="none" stroke-width="1" fill="none" fill-rule="evenodd"><path d="M398.499373,134.717091 C363.591862,94.313508 336.502569,111.047428 285.710645,159.370277 C283.535862,161.439483 281.293086,163.300365 279.222293,165.215331 C223.781834,154.964453 195.70464,175.206807 181.49806,197.56544 C168.169392,191.496039 153.363871,188.112798 137.76943,188.112798 C79.3542676,188.112798 32,235.545268 32,294.055898 C32,352.56753 79.3542676,400 137.76943,400 C196.183592,400 243.53786,352.56753 243.53786,294.055898 C243.53786,292.022749 243.474866,290.004623 243.361877,287.999517 C260.605154,283.44346 279.638252,277.896869 297.745442,271.551039 C327.804438,285.010888 364.224798,280.700211 390.578165,257.508288 C426.617563,225.79116 429.892236,171.053374 398.499373,134.717091" id="Hair" fill="#ccb2ff"/></g></g><g id="Face" transform="translate(593.000000, 388.000000) scale(1 1)"><g id="Face/Joy" stroke="none" stroke-width="1" fill="none" fill-rule="evenodd"><path d="M138.007134,13.7702134 L145.857426,12.2297866 L147.549095,20.8795674 L148.018253,23.3396028 C150.609344,37.0644778 152.103078,47.4422921 152.719024,57.8208348 L152.76153,58.5622057 C153.98411,80.6614745 150.609705,98.5962452 141.031202,112.508343 C129.646431,129.04392 110.03365,138.785988 81.1510446,140.92809 L80.2729757,140.990675 L79.7270243,133.009325 C106.810648,131.156714 124.44055,122.497958 134.441949,107.971632 C142.846582,95.7644971 145.907418,79.4963265 144.773744,59.0041074 L144.689081,57.5786659 C144.070509,47.8319356 142.627723,37.9089558 140.153411,24.804129 L139.313239,20.428357 L138.007134,13.7702134 Z" id="Stroke" fill="#000" fill-rule="nonzero"/><path d="M69.2960622,41.3611777 C73.6428499,31.9223266 84.1941459,28.5822275 93.4636887,33.0439982 C94.4902431,33.5381165 95.718734,34.6252244 97.1491612,36.3053218 C98.0063928,37.312193 98.1679403,38.738128 97.5576764,39.9112493 C96.9815028,41.0188383 95.7339867,41.6022219 94.5145797,41.3343114 L90.0931795,40.3629051 L90.0931795,40.3629051 C84.2789536,39.3841272 79.6261768,40.6177516 76.1348493,44.0637782 C75.701543,44.4914622 74.9916259,45.055657 74.0050979,45.7563628 C72.8378417,46.585428 71.3098349,46.7072721 70.0259468,46.0736574 C68.8492633,45.4929496 68.2893558,44.1267425 68.7200906,42.8872777 C68.9800934,42.1390909 69.1720839,41.6303909 69.2960622,41.3611777 Z" id="Eye-L" fill="#000" fill-rule="nonzero" transform="translate(84.570459, 40.088476) rotate(13.000000) translate(-84.570459, -40.088476)"/><path d="M107.725603,39.3611777 C112.072391,29.9223266 122.623687,26.5822275 131.893229,31.0439982 C132.919784,31.5381165 134.148275,32.6252244 135.578702,34.3053218 C136.435933,35.312193 136.597481,36.738128 135.987217,37.9112493 C135.411043,39.0188383 134.163527,39.6022219 132.94412,39.3343114 L128.52272,38.3629051 L128.52272,38.3629051 C122.708494,37.3841272 118.055718,38.6177516 114.56439,42.0637782 C114.131084,42.4914622 113.421167,43.055657 112.434639,43.7563628 C111.267382,44.585428 109.739376,44.7072721 108.455487,44.0736574 C107.278804,43.4929496 106.718897,42.1267425 107.149631,40.8872777 C107.409634,40.1390909 107.601625,39.6303909 107.725603,39.3611777 Z" id="Eye-R" fill="#000" fill-rule="nonzero" transform="translate(123.000000, 38.088476) scale(-1, 1) rotate(16.000000) translate(-123.000000, -38.088476)"/></g></g><g id="Lower Body" transform="translate(200.000000, 1068.000000) scale(1 1)"><g id="Lower Body/Scrubs" stroke="none" stroke-width="1" fill="none" fill-rule="evenodd"><g id="Group" transform="translate(303.000000, 0.000000)"><path d="M307.1759,731.1315 C245.0229,731.1315 245.0229,730.3085 245.0229,713.2265 L245.0229,650.0455 L307.1759,650.0455 C350.3259,659.0345 441.3629,690.2755 441.3629,721.9695 C441.3629,731.1315 380.0299,731.1315 307.1759,731.1315" id="R-Foot" fill="#EFEED8"/><path d="M25.5504,731.1315 C-16.2276,731.1315 33.9884,650.0455 66.5054,650.0455 C92.8564,650.0455 109.9294,646.9585 115.0754,660.1295 C128.7444,695.1155 136.4374,731.1315 109.9294,731.1315 L25.5504,731.1315 Z" id="L-Foot" fill="#EFEED8"/><polygon id="Pants" fill="#52D6C0" points="14.61 657.775 139.738 657.775 179.047 345.471 215.475 657.775 327.432 657.775 315.989 5.68434189e-14 -5.68434189e-13 5.68434189e-14"/><polygon id="Stroke-7" fill="#000" fill-rule="nonzero" points="193.728313 196.797278 201.665687 197.796322 157.367687 549.742322 149.430313 548.743278"/></g></g></g><g id="Upper Body" transform="translate(100.000000, 428.000000) scale(1 1)"><g id="Upper Body/Scrubs 1" stroke="none" stroke-width="1" fill="none" fill-rule="evenodd"><g id="Group" transform="translate(343.000000, 124.000000)"><path d="M258,3 L246.665291,74.6827 L182,0 L87.9998915,48.06 C51.7268915,66.762 25.6102915,100.9397 16.1562915,140.6397 L7.96929145,175.0187 L65.9602915,190.4777 L42,516 L396.467,514.285 L374.183291,180.4517 L420.757291,163.3747 L414.970291,126.6547 C409.874291,94.3197 389.275291,66.5257 359.821291,52.2427 L258,3 Z" id="Scrubs" fill="#52D6C0"/><polygon id="Stroke-12" fill="#000" fill-rule="nonzero" points="210.68669 26.7774018 278.48869 105.504402 272.426893 110.724998 204.624893 31.9979982"/><g id="Clipboard" transform="translate(92.850874, 130.254935)"><path d="M108.015917,11.1813647 L102.172917,8.27936465 C94.7599173,4.59736465 85.9489173,5.13636465 79.0399173,9.69336465 L31.9629173,40.7463647 C25.0539173,45.3043647 21.0909173,53.1913647 21.5579173,61.4553647 L21.9249173,67.9693647 L108.015917,11.1813647 Z" id="Fill-14" fill="#C7CBD1"/><path d="M266.280017,219.915765 L148.611017,297.533765 C143.805017,300.703765 137.340017,299.376765 134.170017,294.571765 L1.72301731,93.7817647 C-1.44598269,88.9767647 -0.119982687,82.5107647 4.68501731,79.3417647 L122.355017,1.72376465 C127.160017,-1.44623535 133.625017,-0.120235346 136.795017,4.68476465 L269.241017,205.475765 C272.411017,210.280765 271.085017,216.745765 266.280017,219.915765" id="Fill-16" fill="#AF8358"/><path d="M93.9307322,15.6806546 L98.3357274,22.3586796 L86.9757072,29.8516546 L87.5910386,36.2552019 C88.4373529,45.0774948 84.2707667,53.6160499 76.7929955,58.4022036 L76.4344152,58.6272655 L76.0495619,58.8584032 C68.435923,63.3293651 58.9562741,63.1755848 51.4879253,58.4505906 L51.4879253,58.4505906 L47.4717072,55.9096546 L36.5537024,63.1116747 L32.1487072,56.4336497 L41.6877072,50.1406546 L86.1105677,20.8390323 L86.1097072,20.8396546 L93.9307322,15.6806546 Z M79.4167072,34.8376546 L54.7977072,51.0766546 L55.7649231,51.689874 C60.4866447,54.6771618 66.424655,54.9000409 71.3043229,52.3464759 L71.6353609,52.1680667 L71.9629586,51.981052 L72.2768381,51.7925865 C77.3448375,48.673634 80.1959117,42.9434598 79.6276356,37.01954 L79.6276356,37.01954 L79.4167072,34.8376546 Z" id="Combined-Shape" fill="#000" fill-rule="nonzero"/></g><path d="M272.884291,174.8506 C252.767291,181.2216 197.980291,217.7106 197.980291,217.7106 L234.018291,279.7426 C234.018291,279.7426 283.166291,270.1836 299.706291,248.2776 C307.138291,238.4366 305.518291,227.2966 284.954291,201.3386 C299.998291,189.7156 293.001291,168.4796 272.884291,174.8506" id="Hand" fill="#ccb2ff"/><path d="M197.980491,217.7109 L93.9664915,279.6139 L102.941491,236.7219 L94.5744915,224.0369 C91.4044915,219.2309 92.7304915,212.7659 97.5364915,209.5959 L109.089491,201.9749 L15.3054915,176.9739 C15.3054915,176.9739 -21.7935085,336.5369 19.5264915,376.3839 C73.5024915,428.4359 239.597491,303.4059 239.597491,303.4059 C239.597491,303.4059 236.168491,251.3219 197.980491,217.7109" id="Sleeve" fill="#EFEED8"/><path d="M505.217191,47.876 C511.975191,31.26 505.678191,21.022 489.539191,17.852 C475.982191,15.189 459.379191,38.358 452.188191,51.013 C451.011191,52.685 449.958191,54.592 449.050191,56.758 C449.037191,56.781 449.032191,56.793 449.032191,56.793 L449.035191,56.792 C446.334191,63.251 444.927191,72.005 445.448191,83.74 C448.131191,144.178 478.411191,145.17 478.411191,145.17 L501.991191,148.645 L504.224191,123.081 C504.224191,123.081 524.825191,110.919 534.257191,89.822 C543.688191,68.725 519.365191,54.081 505.217191,47.876 L505.217191,47.876 Z" id="Hand" fill="#ccb2ff"/><g id="Pen" transform="translate(395.975586, 5.067796)"><path d="M144.690906,107.501804 L6.98890582,24.512804 C0.157905819,20.396804 -2.04209418,11.521804 2.07490582,4.69080401 L2.07490582,4.69080401 C3.65990582,2.06080401 7.07590582,1.21380401 9.70490582,2.79880401 L155.014906,90.371804 C169.072906,98.844804 181.673906,109.528804 192.332906,122.012804 L192.352906,122.036804 C193.768906,123.695804 192.257906,126.201804 190.129906,125.724804 L190.099906,125.717804 C174.082906,122.125804 158.749906,115.974804 144.690906,107.501804" id="Fill-26" fill="#C7CBD1"/><polygon id="Fill-28" fill="#7D95B7" points="139.861306 81.240104 21.8853058 10.139104 11.5613058 27.269104 129.538306 98.370104"/><path d="M172.589406,102.728604 C167.037406,98.209604 161.165406,94.079604 155.014406,90.372604 L139.861406,81.239604 L129.537406,98.369604 L144.691406,107.501604 C150.841406,111.208604 157.236406,114.471604 163.826406,117.269604 L172.589406,102.728604 Z" id="Fill-30" fill="#406189"/><path d="M19.3909618,0.462605172 L46.8233355,16.9958304 C52.0258876,20.1321319 53.7023382,26.8918724 50.5668794,32.0956337 C47.4828595,37.2114603 40.895172,38.9168174 35.7289455,35.9911937 L35.4675051,35.8384361 L8.03450507,19.3054361 L12.1639066,12.4535719 L39.5965765,28.986373 C41.0159101,29.841574 42.8600361,29.3844864 43.7150748,27.9661333 C44.538351,26.5997837 44.1447011,24.8389652 42.8471597,23.946459 L42.6934499,23.8474028 L15.2614499,7.31440284 L19.3909618,0.462605172 Z" id="Stroke-32" fill="#000" fill-rule="nonzero"/></g><path d="M443.911691,141.4473 L448.627691,116.8753 L446.118691,90.7313 C444.786691,76.8543 452.078691,63.5753 464.502691,57.2523 L480.813691,48.9513 C484.477691,47.0863 488.939691,47.9303 491.669691,51.0043 C495.022691,54.7803 494.631691,60.5713 490.800691,63.8613 L473.295691,78.8953 C483.731691,93.3063 487.172691,111.6313 482.675691,128.8463 L478.411691,145.1703 L443.911691,141.4473 Z" id="Hand" fill="#ccb2ff"/><path d="M478.999198,45.386226 C484.285111,42.6956619 490.721945,43.9130212 494.660683,48.3480691 C499.423338,53.7115605 498.94938,61.8930815 493.658368,66.6738937 L493.406825,66.8954798 L478.613,79.6 L478.66305,79.6788974 C488.01211,94.3538498 490.955131,112.277398 486.702676,129.245058 L486.545838,129.857923 L478.805545,127.836077 C482.949192,111.972829 479.867737,95.1002785 470.409201,81.7345214 L470.055971,81.2411054 L467.896591,78.2592328 L488.194657,60.8264351 C490.329791,58.9928167 490.547892,55.764932 488.678874,53.6601265 C487.209768,52.005903 484.840471,51.5103509 482.840727,52.4137423 L482.627941,52.5158982 L466.31698,60.8168781 C455.485051,66.3296188 449.075637,77.836393 450.062485,89.9220285 L450.100391,90.3488119 L442.136992,91.1131881 C440.662858,75.7554151 448.63747,61.0526019 462.2735,53.9014837 L462.688442,53.6871018 L478.999198,45.386226 Z" id="Stroke-36" fill="#000" fill-rule="nonzero"/><path d="M439.127491,135.4312 L424.637491,226.7132 L414.841491,165.5442 L374.183491,180.4522 L391.681491,367.1022 C402.173491,375.8922 416.047491,380.4192 433.952491,382.2702 C496.567491,388.7422 496.567491,244.1022 515.714491,148.8862 C486.735491,131.2912 439.127491,135.4312 439.127491,135.4312" id="Sleeve" fill="#EFEED8"/><polygon id="Stroke-40" fill="#000" fill-rule="nonzero" points="380.989 511.5 380.989 519.5 57 519.5 57 511.5"/><polygon id="Stroke-44" fill="#000" fill-rule="nonzero" points="366.537899 137.233857 374.517434 136.662007 392.399284 386.183543 384.419749 386.755393"/><polygon id="Stroke-46" fill="#000" fill-rule="nonzero" points="199.372095 212.227686 203.463505 219.102304 85.4348876 289.346714 81.3434778 282.472096"/><polygon id="Stroke-48" fill="#000" fill-rule="nonzero" points="426.054024 192.276885 433.955107 193.531032 422.042959 268.577115 414.141876 267.322968"/></g></g></g></g></g><g id="Speech-Bubble" transform="translate(1100.000000, 409.500000) scale(-1, 1) translate(-1100.000000, -409.500000) translate(796.000000, 61.000000)" fill="#000" fill-rule="nonzero"><path d="M304,0 C471.894564,0 608,136.105436 608,304 C608,466.643422 480.275206,599.455121 319.656944,607.603771 C320.830112,657.221963 346.599057,684.004175 398,689.018901 L398,689.018901 L397.2232,696.981099 L395.530465,696.807388 C341.259815,690.960741 312.966824,660.977927 311.659115,607.897324 L309.027196,607.959273 L309.027196,607.959273 L304,608 C136.105436,608 0,471.894564 0,304 C0,136.105436 136.105436,0 304,0 Z M304,8 C140.523714,8 8,140.523714 8,304 C8,467.476286 140.523714,600 304,600 C467.476286,600 600,467.476286 600,304 C600,140.523714 467.476286,8 304,8 Z" id="Combined-Shape"/></g><g id="Organ" transform="translate(735.000000, 0.000000) scale(1.46 1.46)"><g id="Organ/Touch" stroke="none" stroke-width="1" fill="none" fill-rule="evenodd"><g id="Group" transform="translate(250.100730, 250.243185) rotate(-45.000000) translate(-250.100730, -250.243185) translate(145.100730, 140.243185)"><path d="M38.759717,120.398001 C35.7460662,111.95652 34.8940027,102.777049 36.4677594,93.7198001 L47.0522038,32.7960964 C47.8530504,28.1854086 51.8852197,24.7701705 56.6763308,24.8446678 C61.0518863,24.9133451 64.8000345,28.096943 65.872098,32.3398001 C69.5667012,46.965726 71.8900874,61.8302763 73.2822567,76.0418107 L87.2586588,58.295144 L130.896648,2.88424455 C133.805537,-0.809194603 138.765431,-0.977977672 141.919929,2.50826571 C145.833368,6.8360964 146.814638,14.6024456 144.10014,19.7672075 L115.288288,74.5937684 L166.559929,22.5771546 C170.828394,18.2481599 177.859082,18.1305938 182.27305,22.5259377 C186.243527,26.4801176 186.426278,32.8729218 183.029664,37.3287948 L138.995908,95.1073133 L189.516754,56.3093239 C193.632733,53.1490065 199.570405,53.8602234 202.808712,58.0332393 C205.928288,62.0514403 205.097177,67.8820223 201.26522,71.2285832 L152.832627,113.538424 L197.128288,94.0724985 C200.709982,92.4987419 204.89813,93.3938742 207.522997,96.296943 C211.345643,100.523504 210.379505,107.186361 205.512733,110.151123 L162.086595,136.615144 L50.1904049,219.630805 L49.6764344,219.397591 C19.4788867,205.695417 0.0617967998,175.623971 5.40012479e-13,142.463186 L5.40012479e-13,142.463186 L5.40012479e-13,142.463186 L38.759717,120.398001 Z" id="Hand" fill="#ffbf80"/><path d="M98.5657481,73.308341 L102.490418,66.3371885 L106.225564,68.4417211 C106.774753,68.7578269 107.622178,69.26392 108.730799,69.9550558 C110.861341,71.283278 113.228812,72.8472508 115.774463,74.6393805 C123.03788,79.7528005 130.299193,85.683869 137.088308,92.3780392 C146.239912,101.401659 153.811747,111.113704 159.264501,121.469745 L159.726678,122.358981 L161.552373,125.918031 L154.434272,129.569421 L152.608577,126.010371 C147.548625,116.146389 140.317854,106.797297 131.471427,98.0745861 C125.019076,91.7124712 118.093104,86.0553094 111.169235,81.1809303 C108.969328,79.6322029 106.915289,78.2666095 105.051807,77.0908767 L104.498524,76.7438594 C104.149961,76.5265582 103.82167,76.3244624 103.514579,76.1377085 L102.319439,75.4249347 L102.051324,75.2706759 L98.5657481,73.308341 Z" id="Stroke-24" fill="#000" fill-rule="nonzero"/><path d="M70.1329373,72.3786613 L73.1350467,75.0220189 C73.993704,75.7780667 74.8302501,76.5396284 75.6448738,77.306585 C87.2313138,88.2150533 94.1747442,99.9643848 97.2428132,112.014063 C99.4527907,120.693632 99.4725102,128.652797 98.1647366,135.409159 L98.0307216,136.074284 C97.7846444,137.247753 97.5388792,138.167351 97.3333088,138.811836 L97.2254056,139.135961 L95.9081758,142.912852 L88.3543938,140.278393 L89.6984408,136.419173 C89.7283289,136.323884 89.7764809,136.162244 89.8384943,135.93691 C89.9965422,135.362621 90.1578667,134.677524 90.3105175,133.888883 C91.4060913,128.22881 91.389288,121.446709 89.4901709,113.988028 C86.7980791,103.41498 80.6433736,93.0002904 70.1610009,83.1312858 C69.6611814,82.6607128 69.1519907,82.1919787 68.6333619,81.7251184 L67.8483316,81.0262376 L64.8462222,78.3828801 L70.1329373,72.3786613 Z" id="Stroke-26" fill="#000" fill-rule="nonzero"/></g></g></g></g></svg>