<svg viewBox="487.5 379.6992481203006 2100 1654.1353383458645" xmlns="http://www.w3.org/2000/svg" xmlns:xlink="http://www.w3.org/1999/xlink" overflow="visible" width="2100px" height="1654.1353383458645px"><defs><path d="M541.1735,347.65 L415.6305,310.677 C395.7185,304.813 381.7655,286.9 380.9535,266.158 L375.9105,137.351 C374.1845,93.243 348.3815,53.644 308.7295,34.249 L245,3.003 C227.954,37.964 169.1585,0 169,0 L94.7005,37.625 C47.7605,61.447 21.8255,113.079 30.7405,164.958 L48.8965,270.606 L0.8965,1078.243 L398.4105,1078.243 L369.1635,435.644 L513.1465,442.819 L541.1735,347.65 Z" id="masterscenecaretaking-path-1"/><path d="M11.4192911,0.775248193 L105.392236,0.775248193 C110.54643,0.775248193 114.856327,4.69275663 115.346847,9.82355671 L127.053229,132.271311 L127.053229,132.271311 L170.896196,141.521231 C180.147047,143.47296 186.767515,151.635945 186.767515,161.090441 L186.767515,199.987847 L186.767515,199.987847 L35.3734577,199.285443 C25.0060558,199.237343 16.3941816,191.274887 15.5350387,180.943033 L1.45368637,11.6039357 C0.99601491,6.10008418 5.08675209,1.26731495 10.5906036,0.809643492 C10.8662382,0.78672316 11.1427051,0.775248193 11.4192911,0.775248193 Z" id="masterscenecaretaking-path-3"/><path d="M346,1 L403,44 C455.330837,60.5927043 498.49333,98.0479325 522.293031,147.519222 L574,255 L574,255 L617,159 L692,193 L637.210403,321.803615 C619.915873,362.46093 572.93662,381.40021 532.279305,364.10568 C517.498602,357.818366 504.952779,347.227337 496.274699,333.711035 L465,285 L465,285 C484.333333,388.333333 494.666667,454.666667 496,484 C497.333333,513.333333 487.666667,530 467,534 L122.243501,534 C67.0150256,534 22.2435006,489.228475 22.2435006,434 C22.2435006,427.344215 22.9079885,420.705057 24.2270788,414.181295 L66.6882657,204.183034 C82.3396526,126.776718 138.279412,63.6979364 213.259839,38.9060209 L216,38 L216,38 L271,0 L324.45715,50.637 L346,1 Z" id="masterscenecaretaking-path-7"/><rect id="masterscenecaretaking-path-5" x="0" y="0" width="1400" height="928"/></defs><g id="Master/Scene/Caretaking" stroke="none" stroke-width="1" fill="none" fill-rule="evenodd"><g id="Furniture" transform="translate(322.000000, 0.000000) scale(1 1)"><g id="Furniture/Shelf" stroke="none" stroke-width="1" fill="none" fill-rule="evenodd"><rect id="Rectangle" fill="#E7D6A0" x="200" y="400" width="800" height="1600"/><rect id="Rectangle" fill="#CCB465" x="250" y="450" width="700" height="400" rx="20"/><rect id="Rectangle-Copy" fill="#CCB465" x="250" y="900" width="700" height="400" rx="20"/><rect id="Rectangle-Copy-2" fill="#CCB465" x="250" y="1350" width="700" height="600" rx="20"/><path d="M704,1766 L704,1770 C704,1794.30053 684.300529,1814 660,1814 L660,1814 L540,1814 C515.699471,1814 496,1794.30053 496,1770 L496,1770 L496,1766 L704,1766 Z M695.779,1774 L504.22,1774 L504.232694,1774.1157 C506.252971,1791.86681 521.183407,1805.69975 539.404674,1805.99518 L539.404674,1805.99518 L540,1806 L660,1806 C678.490493,1806 693.725069,1792.05976 695.767306,1774.1157 L695.767306,1774.1157 L695.779,1774 Z M904,1646 L904,1654 L296,1654 L296,1646 L904,1646 Z M704,1486 L704,1490 C704,1514.30053 684.300529,1534 660,1534 L660,1534 L540,1534 C515.699471,1534 496,1514.30053 496,1490 L496,1490 L496,1486 L704,1486 Z M695.779,1494 L504.22,1494 L504.232694,1494.1157 C506.252971,1511.86681 521.183407,1525.69975 539.404674,1525.99518 L539.404674,1525.99518 L540,1526 L660,1526 C678.490493,1526 693.725069,1512.05976 695.767306,1494.1157 L695.767306,1494.1157 L695.779,1494 Z" id="Combined-Shape" fill="#000" fill-rule="nonzero"/><g id="Book" transform="translate(270.000000, 470.000000)"><rect id="Rectangle" fill="#5C9970" x="0" y="0" width="100" height="360" rx="10"/><rect id="Rectangle" fill="#FFF" x="20" y="20" width="60" height="120"/><path d="M80,260 L80,340 L20,340 L20,260 L80,260 Z M72,268 L28,268 L28,332 L72,332 L72,268 Z" id="Rectangle-Copy-3" fill="#000" fill-rule="nonzero"/><rect id="Rectangle-Copy-4" fill="#000" x="30" y="30" width="60" height="8"/><rect id="Rectangle-Copy-6" fill="#000" x="30" y="86" width="60" height="8"/><rect id="Rectangle-Copy-7" fill="#000" x="30" y="58" width="60" height="8"/><rect id="Rectangle-Copy-5" fill="#000" x="30" y="114" width="40" height="8"/></g><g id="Book-Copy" transform="translate(390.000000, 470.000000)"><rect id="Rectangle" fill="#5C9970" x="0" y="0" width="100" height="360" rx="10"/><rect id="Rectangle" fill="#FFF" x="20" y="20" width="60" height="120"/><path d="M80,260 L80,340 L20,340 L20,260 L80,260 Z M72,268 L28,268 L28,332 L72,332 L72,268 Z" id="Rectangle-Copy-3" fill="#000" fill-rule="nonzero"/><rect id="Rectangle-Copy-4" fill="#000" x="30" y="30" width="60" height="8"/><rect id="Rectangle-Copy-6" fill="#000" x="30" y="86" width="60" height="8"/><rect id="Rectangle-Copy-7" fill="#000" x="30" y="58" width="60" height="8"/><rect id="Rectangle-Copy-5" fill="#000" x="30" y="114" width="40" height="8"/></g><g id="Book-Copy-2" transform="translate(510.000000, 470.000000)"><rect id="Rectangle" fill="#5C9970" x="0" y="0" width="100" height="360" rx="10"/><rect id="Rectangle" fill="#FFF" x="20" y="20" width="60" height="120"/><path d="M80,260 L80,340 L20,340 L20,260 L80,260 Z M72,268 L28,268 L28,332 L72,332 L72,268 Z" id="Rectangle-Copy-3" fill="#000" fill-rule="nonzero"/><rect id="Rectangle-Copy-4" fill="#000" x="30" y="30" width="60" height="8"/><rect id="Rectangle-Copy-6" fill="#000" x="30" y="86" width="60" height="8"/><rect id="Rectangle-Copy-7" fill="#000" x="30" y="58" width="60" height="8"/><rect id="Rectangle-Copy-5" fill="#000" x="30" y="114" width="40" height="8"/></g><g id="Book-Copy-3" transform="translate(630.000000, 470.000000)"><rect id="Rectangle" fill="#5C9970" x="0" y="0" width="100" height="360" rx="10"/><rect id="Rectangle" fill="#FFF" x="20" y="20" width="60" height="120"/><path d="M80,260 L80,340 L20,340 L20,260 L80,260 Z M72,268 L28,268 L28,332 L72,332 L72,268 Z" id="Rectangle-Copy-3" fill="#000" fill-rule="nonzero"/><rect id="Rectangle-Copy-4" fill="#000" x="30" y="30" width="60" height="8"/><rect id="Rectangle-Copy-6" fill="#000" x="30" y="86" width="60" height="8"/><rect id="Rectangle-Copy-7" fill="#000" x="30" y="58" width="60" height="8"/><rect id="Rectangle-Copy-5" fill="#000" x="30" y="114" width="40" height="8"/></g><g id="Book-Copy-4" transform="translate(750.000000, 926.245679)"><rect id="Rectangle" fill="#A04687" x="0" y="0" width="100" height="360" rx="10"/><rect id="Rectangle" fill="#FFF" x="20" y="20" width="60" height="120"/><path d="M80,260 L80,340 L20,340 L20,260 L80,260 Z M72,268 L28,268 L28,332 L72,332 L72,268 Z" id="Rectangle-Copy-3" fill="#000" fill-rule="nonzero"/><rect id="Rectangle-Copy-4" fill="#000" x="30" y="30" width="60" height="8"/><rect id="Rectangle-Copy-6" fill="#000" x="30" y="86" width="60" height="8"/><rect id="Rectangle-Copy-7" fill="#000" x="30" y="58" width="60" height="8"/><rect id="Rectangle-Copy-5" fill="#000" x="30" y="114" width="40" height="8"/></g><g id="Book-Copy-5" transform="translate(830.000000, 656.245679) rotate(-20.000000) translate(-830.000000, -656.245679) translate(780.000000, 476.245679)"><rect id="Rectangle" fill="#A04687" x="0" y="0" width="100" height="360" rx="10"/><rect id="Rectangle" fill="#FFF" x="20" y="20" width="60" height="120"/><path d="M80,260 L80,340 L20,340 L20,260 L80,260 Z M72,268 L28,268 L28,332 L72,332 L72,268 Z" id="Rectangle-Copy-3" fill="#000" fill-rule="nonzero"/><rect id="Rectangle-Copy-4" fill="#000" x="30" y="30" width="60" height="8"/><rect id="Rectangle-Copy-6" fill="#000" x="30" y="86" width="60" height="8"/><rect id="Rectangle-Copy-7" fill="#000" x="30" y="58" width="60" height="8"/><rect id="Rectangle-Copy-5" fill="#000" x="30" y="114" width="40" height="8"/></g><g id="Book-Copy-6" transform="translate(630.000000, 920.000000)"><rect id="Rectangle" fill="#406080" x="0" y="0" width="100" height="360" rx="10"/><rect id="Rectangle" fill="#FFF" x="20" y="20" width="60" height="120"/><path d="M80,260 L80,340 L20,340 L20,260 L80,260 Z M72,268 L28,268 L28,332 L72,332 L72,268 Z" id="Rectangle-Copy-3" fill="#000" fill-rule="nonzero"/><rect id="Rectangle-Copy-4" fill="#000" x="30" y="30" width="60" height="8"/><rect id="Rectangle-Copy-6" fill="#000" x="30" y="86" width="60" height="8"/><rect id="Rectangle-Copy-7" fill="#000" x="30" y="58" width="60" height="8"/><rect id="Rectangle-Copy-5" fill="#000" x="30" y="114" width="40" height="8"/></g><g id="Book-Copy-7" transform="translate(510.000000, 920.000000)"><rect id="Rectangle" fill="#A04687" x="0" y="0" width="100" height="360" rx="10"/><rect id="Rectangle" fill="#FFF" x="20" y="20" width="60" height="120"/><path d="M80,260 L80,340 L20,340 L20,260 L80,260 Z M72,268 L28,268 L28,332 L72,332 L72,268 Z" id="Rectangle-Copy-3" fill="#000" fill-rule="nonzero"/><rect id="Rectangle-Copy-4" fill="#000" x="30" y="30" width="60" height="8"/><rect id="Rectangle-Copy-6" fill="#000" x="30" y="86" width="60" height="8"/><rect id="Rectangle-Copy-7" fill="#000" x="30" y="58" width="60" height="8"/><rect id="Rectangle-Copy-5" fill="#000" x="30" y="114" width="40" height="8"/></g><g id="Book-Copy-8" transform="translate(390.000000, 920.000000)"><rect id="Rectangle" fill="#406080" x="0" y="0" width="100" height="360" rx="10"/><rect id="Rectangle" fill="#FFF" x="20" y="20" width="60" height="120"/><path d="M80,260 L80,340 L20,340 L20,260 L80,260 Z M72,268 L28,268 L28,332 L72,332 L72,268 Z" id="Rectangle-Copy-3" fill="#000" fill-rule="nonzero"/><rect id="Rectangle-Copy-4" fill="#000" x="30" y="30" width="60" height="8"/><rect id="Rectangle-Copy-6" fill="#000" x="30" y="86" width="60" height="8"/><rect id="Rectangle-Copy-7" fill="#000" x="30" y="58" width="60" height="8"/><rect id="Rectangle-Copy-5" fill="#000" x="30" y="114" width="40" height="8"/></g><g id="Book-Copy-9" transform="translate(270.000000, 920.000000)"><rect id="Rectangle" fill="#406080" x="0" y="0" width="100" height="360" rx="10"/><rect id="Rectangle" fill="#FFF" x="20" y="20" width="60" height="120"/><path d="M80,260 L80,340 L20,340 L20,260 L80,260 Z M72,268 L28,268 L28,332 L72,332 L72,268 Z" id="Rectangle-Copy-3" fill="#000" fill-rule="nonzero"/><rect id="Rectangle-Copy-4" fill="#000" x="30" y="30" width="60" height="8"/><rect id="Rectangle-Copy-6" fill="#000" x="30" y="86" width="60" height="8"/><rect id="Rectangle-Copy-7" fill="#000" x="30" y="58" width="60" height="8"/><rect id="Rectangle-Copy-5" fill="#000" x="30" y="114" width="40" height="8"/></g></g></g><g transform="translate(766.000000, 200.000000) scale(1 1)" id="Master/Character/Standing"><g id="Master/Character/Standing" stroke="none" stroke-width="1" fill="none" fill-rule="evenodd"><g id="Head" transform="translate(561.000000, 338.000000)" fill="#ffbf80"><path d="M173.4931,66.499221 C182.1061,110.758221 197.9031,184.720221 112.0001,190.645221 C47.3491,195.103221 34.1221,133.336221 28.0001,98.645221 C19.0001,47.645221 36.0001,13.645221 84.0001,2.64522101 C149.3581,-12.333779 168.3391,40.016221 173.4931,66.499221"/><path d="M140,217 L140,172 L66,172 L64,214 L-6.39488462e-13,246.644721 L37.2,279.966721 C78.318,316.799721 141.503,313.346721 178.363,272.252721 L201.333,246.644721 L140,217 Z" id="Neck"/></g><g id="Hair" transform="translate(404.000000, 144.000000) scale(1 1)"><g id="Hair/Big Bun" stroke="none" stroke-width="1" fill="none" fill-rule="evenodd"><path d="M398.499373,134.717091 C363.591862,94.313508 336.502569,111.047428 285.710645,159.370277 C283.535862,161.439483 281.293086,163.300365 279.222293,165.215331 C223.781834,154.964453 195.70464,175.206807 181.49806,197.56544 C168.169392,191.496039 153.363871,188.112798 137.76943,188.112798 C79.3542676,188.112798 32,235.545268 32,294.055898 C32,352.56753 79.3542676,400 137.76943,400 C196.183592,400 243.53786,352.56753 243.53786,294.055898 C243.53786,292.022749 243.474866,290.004623 243.361877,287.999517 C260.605154,283.44346 279.638252,277.896869 297.745442,271.551039 C327.804438,285.010888 364.224798,280.700211 390.578165,257.508288 C426.617563,225.79116 429.892236,171.053374 398.499373,134.717091" id="Hair" fill="#ffbf80"/></g></g><g id="Face" transform="translate(593.000000, 388.000000) scale(1 1)"><g id="Face/Glasses" stroke="none" stroke-width="1" fill="none" fill-rule="evenodd"><path d="M139.505488,21.7624637 L147.358805,20.2375363 L147.914623,23.1292784 C150.492,36.6861902 151.956285,46.6187181 152.640849,56.8252335 C153.601715,71.1512888 152.68093,83.6925106 149.422756,94.7127057 C141.400988,121.844902 119.647922,138.009871 81.4351761,140.907001 L80.2721732,140.990729 L79.7278268,133.009271 C115.453825,130.572709 134.63761,116.504402 141.751032,92.4445228 C144.707273,82.445563 145.561191,70.815079 144.658782,57.3606006 C143.998859,47.5214545 142.57044,37.8441959 140.038812,24.5363568 L139.505488,21.7624637 Z" id="Stroke-9" fill="#000" fill-rule="nonzero"/><path d="M134,17 C147.254834,17 158,27.745166 158,41 C158,54.254834 147.254834,65 134,65 C122.108321,65 112.236654,56.3512987 110.331981,45.0008768 L108.668019,45.0008768 C106.763346,56.3512987 96.891679,65 85,65 C73.108321,65 63.2366545,56.3512987 61.3319809,45.0008768 L27,45 C23.2145483,45 20.1309013,48.0047834 20.004059,51.7593502 L20,52 C20,54.209139 18.209139,56 16,56 C13.790861,56 12,54.209139 12,52 C12,43.8205929 18.5467864,37.1702698 26.6861718,37.0032178 L27,37 L61.3318133,37.000122 C63.2360754,25.6492086 73.1079722,17 85,17 C96.8920278,17 106.763925,25.6492086 108.668187,37.000122 L110.331813,37.000122 C112.236075,25.6492086 122.107972,17 134,17 Z M85,25 C76.163444,25 69,32.163444 69,41 C69,49.836556 76.163444,57 85,57 C93.836556,57 101,49.836556 101,41 C101,32.163444 93.836556,25 85,25 Z M134,25 C125.163444,25 118,32.163444 118,41 C118,49.836556 125.163444,57 134,57 C142.836556,57 150,49.836556 150,41 C150,32.163444 142.836556,25 134,25 Z" id="Glasses" fill="#73C8FF" transform="translate(85.000000, 41.000000) rotate(-5.000000) translate(-85.000000, -41.000000)"/></g></g><g id="Lower Body" transform="translate(200.000000, 1068.000000) scale(1 1)"><g id="Lower Body/Scrubs" stroke="none" stroke-width="1" fill="none" fill-rule="evenodd"><g id="Group" transform="translate(303.000000, 0.000000)"><path d="M307.1759,731.1315 C245.0229,731.1315 245.0229,730.3085 245.0229,713.2265 L245.0229,650.0455 L307.1759,650.0455 C350.3259,659.0345 441.3629,690.2755 441.3629,721.9695 C441.3629,731.1315 380.0299,731.1315 307.1759,731.1315" id="R-Foot" fill="#EFEED8"/><path d="M25.5504,731.1315 C-16.2276,731.1315 33.9884,650.0455 66.5054,650.0455 C92.8564,650.0455 109.9294,646.9585 115.0754,660.1295 C128.7444,695.1155 136.4374,731.1315 109.9294,731.1315 L25.5504,731.1315 Z" id="L-Foot" fill="#EFEED8"/><polygon id="Pants" fill="#52D6C0" points="14.61 657.775 139.738 657.775 179.047 345.471 215.475 657.775 327.432 657.775 315.989 5.68434189e-14 -5.68434189e-13 5.68434189e-14"/><polygon id="Stroke-7" fill="#000" fill-rule="nonzero" points="193.728313 196.797278 201.665687 197.796322 157.367687 549.742322 149.430313 548.743278"/></g></g></g><g id="Upper Body" transform="translate(100.000000, 428.000000) scale(1 1)"><g id="Upper Body/Scrubs 2" stroke="none" stroke-width="1" fill="none" fill-rule="evenodd"><g id="Group-36" transform="translate(292.000000, 130.000000)"><path d="M869.678784,445.925788 L869.678784,445.925788 C871.545207,441.733917 869.759462,436.818772 865.634065,434.795525 L824.284973,414.508986 L884.665558,423.799824 C889.620609,424.562747 894.238501,421.125389 894.916434,416.169395 C895.548609,411.551008 892.520187,407.220971 887.956483,406.221362 L829.185838,393.344185 L898.054432,390.00775 C903.69705,389.733818 908.100604,385.036136 908,379.40132 C907.899512,374.032025 903.73197,369.615483 898.366305,369.194975 L829.588022,363.799248 L890.561046,350.457109 C895.65939,349.340959 898.917803,344.351324 897.878627,339.246349 C896.950232,334.688035 892.86096,331.462133 888.202128,331.614718 L824.313872,333.696836 L824.313872,333.696836 L802.986078,334.391276 C812.481955,324.68834 821.879093,313.901692 830.249097,302.258408 C832.845231,298.648041 832.359961,293.67042 829.170184,290.568268 C826.253748,287.731637 821.79962,287.183774 818.279908,289.229849 L767.816651,318.57895 C760.314835,322.941426 754.198989,329.127709 749.932707,336.424135 L715.78319,328.088452 L703,398.277353 L813.238158,435.187199 L859.134097,450.554987 C863.319701,451.955882 867.887018,449.950656 869.678784,445.925788" id="Hand-Color" fill="#ffbf80"/><path d="M828.288808,346.334396 L829.087328,350.63016 C829.136897,350.91606 829.198396,351.288344 829.269394,351.74314 L829.343467,352.225295 C829.57525,353.757413 829.806145,355.514317 830.021122,357.472219 C831.817063,373.828737 831.426091,391.568294 827.297018,408.353542 C826.173198,412.922023 824.786228,417.308041 823.11911,421.487776 L822.696484,422.528399 L821.168085,426.224883 L813.775117,423.168085 L815.303516,419.471601 C817.001269,415.365526 818.404421,411.012549 819.528611,406.44256 C823.399758,390.705819 823.771263,373.849498 822.068915,358.345369 L821.931796,357.143466 C821.79294,355.971427 821.649357,354.889785 821.505438,353.905776 L821.433471,353.421941 C821.373679,353.026707 821.317579,352.672839 821.266122,352.361897 L821.157849,351.733416 L820.424433,347.801229 L828.288808,346.334396 Z M799.088884,329.913048 L807.086952,330.088884 L806.999034,334.087918 C806.578285,353.226037 800.85048,367.896023 791.521631,378.55402 C788.086205,382.478915 784.394372,385.577609 780.684542,387.94168 C779.368093,388.78058 778.135543,389.470213 777.01553,390.022259 L776.570142,390.237481 C776.150632,390.435921 775.809687,390.584391 775.55568,390.686285 L771.702594,392.169325 L768.830675,384.702594 L772.56404,383.266634 C772.667418,383.226872 772.927283,383.114372 773.323672,382.92232 L773.478679,382.846558 C774.342695,382.42069 775.32092,381.873357 776.385307,381.195082 C779.477863,379.224366 782.588418,376.613561 785.501886,373.28499 C793.476425,364.174262 798.470935,351.551242 798.980881,334.681802 L799.000966,333.912082 L799.088884,329.913048 Z" id="Combined-Shape" fill="#000" fill-rule="nonzero"/><path d="M182,39 C225.333333,55 261.333333,60.6666667 290,56 C318.666667,51.3333333 335.333333,39.6666667 340,21 L387,112 L340,179 L208,179 L182,39 Z" id="Path-2" fill="#EFEED8"/><path d="M531,198 L475.3898,92.7726 C465.1708,73.1846 448.7518,57.5326 428.6988,48.2606 L365.5558,20.9646 L324.6078,0.4476 L299,134 L199.2858,6.8296 L168.4998,23.1726 L168.5378,22.9086 L112.8418,52.7196 C83.9688,68.1726 61.4278,93.2586 49.1388,123.6136 L20,198 L163,510 L418.341112,510 C427.043324,510 434.149894,503.044939 434.337398,494.344748 L439,278 L439,278 L531,198 Z" id="Scrubs-Color" fill="#52D6C0"/><path d="M269.861967,168 L132.671765,168 L142.303343,290 L261.300564,290 L269.861967,168 Z M261.281,176 L253.842,282 L149.696,282 L141.328,176 L261.281,176 Z" id="Pocket" fill="#000" fill-rule="nonzero"/><polygon id="Stroke-12" fill="#000" fill-rule="nonzero" points="423 505.5 423 513.5 158 513.5 158 505.5"/><path d="M20,198 L115,270 L101,353 L194,518 L125,584 L49.2563452,468.964324 C-3.09816876,389.450906 -14.2985816,289.769523 18.9780013,200.695921 L20,198 Z M531,198 L541.837862,215.790453 C568.87818,260.17739 612.135782,292.294462 662.447219,305.338168 L662.447219,305.338168 L746,327 L723.2898,426.8416 C580.429933,412.280533 485.666667,362.666667 439,278 L439,278 L531,198 Z" id="Fill-8" fill="#EFEED8"/><polygon id="Path" fill="#000" fill-rule="nonzero" points="198.260733 506.085139 203.739267 511.914861 120.739267 589.914861 115.260733 584.085139"/><polygon id="Stroke-10" fill="#000" fill-rule="nonzero" points="227.179071 36.5723456 311.179071 146.572346 304.820929 151.427654 220.820929 41.4276544"/><polygon id="Stroke-34" fill="#000" fill-rule="nonzero" points="437.001219 178.901265 444.998781 179.098735 440.998781 341.098735 433.001219 340.901265"/></g></g></g></g></g><g transform="translate(1279.000000, 200.000000) scale(1 1)" id="Master/Character/Sitting"><defs><rect id="mastercharactersitting-path-1" x="0" y="0" width="1400" height="928"/><path d="M346,1 L403,44 C455.330837,60.5927043 498.49333,98.0479325 522.293031,147.519222 L574,255 L574,255 L617,159 L692,193 L637.210403,321.803615 C619.915873,362.46093 572.93662,381.40021 532.279305,364.10568 C517.498602,357.818366 504.952779,347.227337 496.274699,333.711035 L465,285 L465,285 C484.333333,388.333333 494.666667,454.666667 496,484 C497.333333,513.333333 487.666667,530 467,534 L122.243501,534 C67.0150256,534 22.2435006,489.228475 22.2435006,434 C22.2435006,427.344215 22.9079885,420.705057 24.2270788,414.181295 L66.6882657,204.183034 C82.3396526,126.776718 138.279412,63.6979364 213.259839,38.9060209 L216,38 L216,38 L271,0 L324.45715,50.637 L346,1 Z" id="mastercharactersitting-path-3"/></defs><g id="Master/Character/Sitting" stroke="none" stroke-width="1" fill="none" fill-rule="evenodd"><g id="Chair" transform="translate(100.000000, 800.000000) scale(1 1)"><defs><path d="M11.4192911,0.775248193 L105.392236,0.775248193 C110.54643,0.775248193 114.856327,4.69275663 115.346847,9.82355671 L127.053229,132.271311 L127.053229,132.271311 L170.896196,141.521231 C180.147047,143.47296 186.767515,151.635945 186.767515,161.090441 L186.767515,199.987847 L186.767515,199.987847 L35.3734577,199.285443 C25.0060558,199.237343 16.3941816,191.274887 15.5350387,180.943033 L1.45368637,11.6039357 C0.99601491,6.10008418 5.08675209,1.26731495 10.5906036,0.809643492 C10.8662382,0.78672316 11.1427051,0.775248193 11.4192911,0.775248193 Z" id="chairwheelchair-2-path-1"/></defs><g id="Chair/Wheelchair 2" stroke="none" stroke-width="1" fill="none" fill-rule="evenodd"><g id="Group" transform="translate(114.000000, 142.000000)"><path d="M217.6995,6.67757451 C265.3605,-2.53442549 314.3755,-2.21242549 361.9125,7.62657451 C375.4645,7.62357451 386.2845,18.7055745 385.9565,32.2535745 L385.9565,32.2535745 L376.5045,338.850575 L388.584762,363.129246 C405.956125,359.304773 424.005267,357.286921 442.5252,357.282761 C580.5962,357.250775 692.5502,469.153775 692.582214,607.224775 C692.6142,745.295775 580.7112,857.250775 442.6392,857.282787 C304.5682,857.313775 192.6142,745.410775 192.583185,607.339775 C192.569512,550.104878 211.790484,497.357956 244.136664,455.210941 L237.4555,448.730575 C211.1275,423.196575 195.8705,318.350575 194.9665,281.685575 L194.9665,281.685575 L186.9295,38.1235745 C186.5685,23.4755745 196.8415,10.7095745 211.2275,7.92857451 L211.2275,7.92857451 Z M806.6887,707.199771 C848.1087,707.190775 881.6957,740.761775 881.704696,782.182775 C881.7147,823.603775 848.1437,857.190775 806.7227,857.199771 C765.3007,857.209775 731.7147,823.637775 731.704696,782.216775 C731.6957,740.795775 765.2667,707.209775 806.6887,707.199771 Z M442.5342,397.282763 C430.522502,397.285335 418.665015,398.289574 407.057107,400.255938 L443.8115,474.127575 L296.4325,505.929575 L273.06016,483.261587 C246.767494,519.041153 232.571907,562.095854 232.583187,607.329775 C232.5952,663.422775 254.4512,716.153775 294.1242,755.808775 C333.7972,795.463775 386.5372,817.294775 442.6302,817.282784 C498.7232,817.269775 551.4542,795.413775 591.1092,755.740775 C630.7632,716.067775 652.5952,663.326775 652.582212,607.233775 C652.5692,551.140775 630.7132,498.410775 591.0412,458.755775 C551.3682,419.100775 498.6282,397.269775 442.5342,397.282763 Z M806.6967,747.199773 C787.3987,747.203775 771.7007,762.908775 771.704698,782.207775 C771.7097,801.506775 787.4137,817.203775 806.7127,817.199773 C826.0117,817.195775 841.7097,801.490775 841.704698,782.191775 C841.7007,762.892775 825.9957,747.195775 806.6967,747.199773 Z M442.573,567.282272 C464.665,567.277275 482.577,585.181275 482.582997,607.273275 C482.588,629.364275 464.682,647.277275 442.592,647.282272 C420.5,647.287275 402.588,629.383275 402.582997,607.291275 C402.577,585.199275 420.482,567.287275 442.573,567.282272 Z" id="Back-of-chair" fill="#B7D2DD"/><g id="Legs" transform="translate(274.000000, 239.000000)"><g id="Cast" transform="translate(584.267949, 242.237206) rotate(-30.000000) translate(-584.267949, -242.237206) translate(466.267949, 31.737206)"><path d="M117.14026,356.560889 L67.2445091,374.153726 L65.9796133,398.328069 C65.402449,409.358674 73.8766375,418.768631 84.9072431,419.345795 C85.2432093,419.363375 85.5795655,419.372474 85.9159907,419.373084 L189.296614,419.560724 C189.357116,419.560834 189.417617,419.560889 189.478118,419.560889 L213.70272,419.560889 C221.778235,419.560889 228.955581,414.414111 231.546352,406.765461 C233.691756,400.431655 230.296385,393.557897 223.962579,391.412494 C223.544732,391.270959 223.119462,391.152367 222.688672,391.057247 L203.571698,386.836162 L203.571698,386.836162 L117.14026,356.560889 Z" id="Foot" fill="#ff8095"/><g id="Combined-Shape" transform="translate(4.421162, 220.198730)"><mask id="chairwheelchair-2-mask-2" fill="#fff"><use xlink:href="#chairwheelchair-2-path-1"/></mask><use id="Mask" fill="#EFEED8" xlink:href="#chairwheelchair-2-path-1"/><path d="M145.357143,74.30372 L148.03503,80.0026819 L77.9171429,113.09115 L92.9261429,140.50615 L136.763512,120.7377 L139.342947,126.482088 L95.9591429,146.04515 L106.616143,165.51015 L164.767143,140.33015 L164.767515,140.145327 L165.194143,140.14515 L168.235177,138.82889 L168.803143,140.14515 L171.053229,140.145327 L171.053229,200.775248 L164.767515,200.775248 L164.767143,147.19215 L145.910143,155.35815 L145.910372,200.775248 L139.624658,200.775248 L139.624143,158.08015 L109.653143,171.05815 L125.094308,199.260209 L119.583579,202.290288 L72.2201429,115.78015 L51.8051429,125.41415 L91.3231704,199.287143 L85.7832885,202.263354 L46.1111429,128.10115 L25.7841429,137.69315 L58.3308486,199.301586 L52.7756103,202.24891 L20.0911429,140.38015 L-0.464969688,150.081422 L-3.14285714,144.38246 L145.357143,74.30372 Z M145.357143,35.7210429 L148.03503,41.4200047 L-0.464969688,111.498745 L-3.14285714,105.799783 L145.357143,35.7210429 Z M52.9314191,-25.1968504 L101.207143,17.9731496 L145.357143,-2.86163429 L148.03503,2.83732753 L-0.464969688,72.9160677 L-3.14285714,67.2171059 L32.5661429,50.3651496 L-0.72707235,21.2589303 L3.4049598,16.5120386 L38.7761429,47.4341496 L62.0241429,36.4641496 L14.1750398,-6.32351936 L18.3599905,-11.023622 L68.2031429,33.5471496 L95.0271429,20.8891496 L48.7464683,-20.4967477 L52.9314191,-25.1968504 Z" fill="#C2C0A1" fill-rule="nonzero" mask="url(#chairwheelchair-2-mask-2)"/></g><path d="M109.154501,221.284955 L11.9083673,221.7202 C4.63890514,215.331588 0.635695177,206.007065 1.01064366,196.33655 L5.32248738,85.1272783 L5.32248738,85.1272783 L2.35134421,0.273449273 L39.8745042,5.0642342 C90.2143745,11.4913979 127.758222,54.6060209 127.203802,105.351499 L126.318033,186.425073 C126.169237,200.044188 119.858022,212.862541 109.154501,221.284955 L109.154501,221.284955 L109.154501,221.284955 Z" id="Path-3" fill="#FFA896"/></g><path d="M408.915076,456 L563.432115,456 C574.47781,456 583.432115,447.045695 583.432115,436 C583.432115,428.319535 579.033859,421.317522 572.114954,417.98311 L485,376 L485,376 L391.050391,376 L379.90264,418.365961 C375.686477,434.389087 385.257911,450.796273 401.281037,455.012436 C403.772751,455.66808 406.338547,456 408.915076,456 Z" id="Fill-21" fill="#193256"/><path d="M394.504461,89.2273995 L292,121 L292,121 L0.629042286,121 C1,214 50.4909338,243 112,243 L267.768584,243 C278.581621,243 289.386749,242.415392 300.136664,241.248734 L413,229 L413,229 L383.003064,376 L510,376 L535.751584,211.287038 C545.135585,151.264845 504.085219,95.0000074 444.063025,85.6160066 C427.484286,83.0240503 410.532295,84.2593625 394.504461,89.2273995 Z" id="Pants" fill="#FFA896"/><polygon id="Path-2" fill="#000" fill-rule="nonzero" points="423.359715 220.051578 424.640285 227.948422 313.640285 245.948422 312.359715 238.051578"/></g><path d="M250,357.261975 C256.48044,357.261975 262.903291,357.508548 269.259682,357.992825 L644,358 L644,398 L410.019249,415.176268 C430.413781,432.184671 448.057656,452.380023 462.185834,474.997282 L609.909,475 C645.64,475 672.605,507.426 666.091,542.559 L666.091,542.559 L666.091,672.917575 C666.091,683.96327 675.045305,692.917575 686.091,692.917575 L686.091,692.917575 L909.3689,692.917575 C913.9729,692.917575 917.7049,696.649575 917.7049,701.254575 C917.7049,724.865575 898.5639,744.006575 874.9529,744.006575 L874.9529,744.006575 L678.60565,744.005659 C685.261007,755.206343 689.0828,768.28779 689.0828,782.261775 C689.0828,823.682775 655.5038,857.261775 614.0828,857.261775 C572.6618,857.261775 539.0828,823.682775 539.0828,782.261775 C539.0828,740.840775 572.6618,707.261775 614.0828,707.261775 C615.01292,707.261775 615.939086,707.278706 616.861007,707.312279 C613.07943,698.610194 611.282312,688.892066 612,678.771575 L612,678.771575 L612,676.261575 C612,649.199622 590.061953,627.261575 563,627.261575 L563,627.261575 L499.211584,627.262778 C489.022428,755.982272 381.338596,857.261975 250,857.261975 C111.929,857.261975 -8.52651283e-13,745.332975 -8.52651283e-13,607.261975 C-8.52651283e-13,469.190975 111.929,357.261975 250,357.261975 Z M614.0828,747.261775 C594.7838,747.261775 579.0828,762.962775 579.0828,782.261775 C579.0828,801.560775 594.7838,817.261775 614.0828,817.261775 C633.3818,817.261775 649.0828,801.560775 649.0828,782.261775 C649.0828,762.962775 633.3818,747.261775 614.0828,747.261775 Z M250,397.261975 C193.907,397.261975 141.172,419.105975 101.508,458.768975 C61.844,498.432975 40,551.168975 40,607.261975 C40,663.354975 61.844,716.089975 101.508,755.753975 C141.172,795.417975 193.907,817.261975 250,817.261975 C306.094,817.261975 358.829,795.417975 398.493,755.753975 C433.404104,720.84199 454.510114,675.803377 459.066298,627.261635 L284.648787,627.261357 C277.73277,639.217517 264.805957,647.261775 249.9998,647.261775 C227.9088,647.261775 209.9998,629.352775 209.9998,607.261775 C209.9998,585.170775 227.9088,567.261775 249.9998,567.261775 C264.805554,567.261775 277.732066,575.305594 284.648222,587.261216 L459.066206,587.261294 C457.375124,569.24528 453.404345,551.711738 447.294191,534.99936 L324.665,535 C289.52,535 265.343,499.698 278.045,466.929 L278.045,466.929 L315.1601,413.836425 L251.031,397.265113 Z M489.39692,534.99798 C494.445443,551.745604 497.784602,569.234233 499.211575,587.261047 L585.869213,587.261575 C600.300848,587.261575 612,575.562423 612,561.130787 C612,546.699152 600.300848,535 585.869213,535 L585.869213,535 Z M398.493,458.768975 C388.348158,448.624388 377.348237,439.645486 365.655737,431.899615 L341.85,461.203 C339.15,467.784 343.989,475 351.101,475 L351.101,475 L413.146825,474.999089 C408.573705,469.379498 403.686086,463.962191 398.493,458.768975 Z M92.8815,79.0653745 L164.3065,86.3963745 C186.5395,88.6793745 203.8975,107.243375 204.6835,129.578375 L209.0145,252.562375 C209.3055,260.841375 202.8305,267.789375 194.5515,268.080375 C194.3715,268.087375 194.1925,268.090375 194.0135,268.090375 C185.9735,268.090375 179.3185,261.718375 179.0335,253.618375 L174.7015,130.634375 C174.4405,123.189375 168.6545,117.000375 161.2425,116.239375 L89.8185,108.908375 C81.5765,108.063375 75.5815,100.695375 76.4285,92.4553745 C77.2735,84.2143745 84.6315,78.2273745 92.8815,79.0653745 Z" id="Front-of-chair" fill="#6F858E"/><path d="M614.0832,703.261275 C650.458867,703.261275 681.84203,728.047475 690.655161,762.753362 L690.915299,763.808077 L683.135101,765.670472 C675.552116,733.992389 647.104606,711.261275 614.0832,711.261275 C593.83175,711.261275 574.963475,719.781205 561.596505,734.446709 L561.162581,734.927107 L555.201819,729.591442 C570.094738,712.95375 591.31201,703.261275 614.0832,703.261275 Z" id="Stroke-24" fill="#000" fill-rule="nonzero"/><path d="M246.9998,353.261775 C385.877138,353.261775 498.722747,464.71861 500.965771,603.061426 L500.9998,607.261775 L492.9998,607.261775 C492.9998,472.758532 385.05341,363.46711 251.067854,361.294732 L246.9998,361.261775 L246.9998,353.261775 Z" id="Stroke-26" fill="#000" fill-rule="nonzero"/></g></g></g><g id="Head" transform="translate(560.999650, 572.000000)" fill="#ff8095"><path d="M173.4931,66.499221 C182.1061,110.758221 197.9031,184.720221 112.0001,190.645221 C47.3491,195.103221 34.1221,133.336221 28.0001,98.645221 C19.0001,47.645221 36.0001,13.645221 84.0001,2.64522101 C149.3581,-12.333779 168.3391,40.016221 173.4931,66.499221"/><path d="M140,217 L140,172 L66,172 L64,214 L-6.39488462e-13,246.644721 L37.2,279.966721 C78.318,316.799721 141.503,313.346721 178.363,272.252721 L201.333,246.644721 L140,217 Z" id="Neck"/></g><g id="Hair" transform="translate(403.999650, 378.000000) scale(1 1)"><g id="Hair/Afro" stroke="none" stroke-width="1" fill="none" fill-rule="evenodd"><path d="M220,426 L266,426 C265.875248,382.000719 265.875248,360.000719 266,360 C336.086028,359.59579 470,307.042002 470,209 C470,116 423.889301,0 279.735683,0 C193.832599,0 136.196769,33.0396476 106.828194,99.1189427 C48.9427313,118.372981 20,158.328928 20,218.986784 C20,342.570102 73.1570657,364.708416 181.930952,370.146691 C206.643651,371.38223 219.333333,390 220,426 Z" id="Oval" fill="#ff8095"/></g></g><g id="Face" transform="translate(592.999650, 622.000000) scale(1 1)" fill="#000"><g id="Face/Normal" stroke="none" stroke-width="1" fill="none" fill-rule="evenodd"><path d="M138.007134,13.7702134 L145.857426,12.2297866 L147.549095,20.8795674 L148.018253,23.3396028 C150.609344,37.0644778 152.103078,47.4422921 152.719024,57.8208348 L152.76153,58.5622057 C153.98411,80.6614745 150.609705,98.5962452 141.031202,112.508343 C129.646431,129.04392 110.03365,138.785988 81.1510446,140.92809 L80.2729757,140.990675 L79.7270243,133.009325 C106.810648,131.156714 124.44055,122.497958 134.441949,107.971632 C142.846582,95.7644971 145.907418,79.4963265 144.773744,59.0041074 L144.689081,57.5786659 C144.070509,47.8319356 142.627723,37.9089558 140.153411,24.804129 L139.313239,20.428357 L138.007134,13.7702134 Z" id="Stroke-9" fill="#000" fill-rule="nonzero"/><path d="M86.4723645,29.1098949 C87.6716409,37.3704166 86.9786165,44.3213927 82.8096565,44.9575153 C78.6406965,45.593638 76.9764547,39.0035684 75.7771783,30.7430466 C74.577902,22.4825248 74.290862,15.6807503 78.4667031,15.0436195 C82.6435272,14.4054806 85.2730881,20.8493731 86.4723645,29.1098949" id="Eye-L" fill="#000"/><path d="M119.472365,28.1097699 C120.671641,36.3702923 119.978616,43.3212689 115.809656,43.9573917 C111.640696,44.5945225 109.976455,38.0034442 108.777178,29.7429218 C107.577902,21.4823993 107.290862,14.6816324 111.466703,14.0434934 C115.643527,13.4063625 118.273088,19.8492474 119.472365,28.1097699" id="Eye-R" fill="#000"/></g></g><g id="Torso" transform="translate(0.000000, 372.000000)"><mask id="mastercharactersitting-mask-2" fill="#fff"><use xlink:href="#mastercharactersitting-path-1"/></mask><g id="Mask"/><g mask="url(#mastercharactersitting-mask-2)"><g transform="translate(100.000000, 288.000000) scale(1 1)" id="Upper Body"><defs><path d="M346,1 L403,44 C455.330837,60.5927043 498.49333,98.0479325 522.293031,147.519222 L574,255 L574,255 L617,159 L692,193 L637.210403,321.803615 C619.915873,362.46093 572.93662,381.40021 532.279305,364.10568 C517.498602,357.818366 504.952779,347.227337 496.274699,333.711035 L465,285 L465,285 C484.333333,388.333333 494.666667,454.666667 496,484 C497.333333,513.333333 487.666667,530 467,534 L122.243501,534 C67.0150256,534 22.2435006,489.228475 22.2435006,434 C22.2435006,427.344215 22.9079885,420.705057 24.2270788,414.181295 L66.6882657,204.183034 C82.3396526,126.776718 138.279412,63.6979364 213.259839,38.9060209 L216,38 L216,38 L271,0 L324.45715,50.637 L346,1 Z" id="upper-bodydotted-shirt-path-1"/></defs><g id="Upper Body/Dotted Shirt" stroke="none" stroke-width="1" fill="none" fill-rule="evenodd"><g id="Shirt" transform="translate(255.000000, 106.000000)"><mask id="upper-bodydotted-shirt-mask-2" fill="#fff"><use xlink:href="#upper-bodydotted-shirt-path-1"/></mask><use id="Mask" fill="#FFEFEB" xlink:href="#upper-bodydotted-shirt-path-1"/><path d="M-19,528 C-7.954305,528 1,536.954305 1,548 C1,559.045695 -7.954305,568 -19,568 C-30.045695,568 -39,559.045695 -39,548 C-39,536.954305 -30.045695,528 -19,528 Z M61,528 C72.045695,528 81,536.954305 81,548 C81,559.045695 72.045695,568 61,568 C49.954305,568 41,559.045695 41,548 C41,536.954305 49.954305,528 61,528 Z M141,528 C152.045695,528 161,536.954305 161,548 C161,559.045695 152.045695,568 141,568 C129.954305,568 121,559.045695 121,548 C121,536.954305 129.954305,528 141,528 Z M221,528 C232.045695,528 241,536.954305 241,548 C241,559.045695 232.045695,568 221,568 C209.954305,568 201,559.045695 201,548 C201,536.954305 209.954305,528 221,528 Z M301,528 C312.045695,528 321,536.954305 321,548 C321,559.045695 312.045695,568 301,568 C289.954305,568 281,559.045695 281,548 C281,536.954305 289.954305,528 301,528 Z M381,528 C392.045695,528 401,536.954305 401,548 C401,559.045695 392.045695,568 381,568 C369.954305,568 361,559.045695 361,548 C361,536.954305 369.954305,528 381,528 Z M461,528 C472.045695,528 481,536.954305 481,548 C481,559.045695 472.045695,568 461,568 C449.954305,568 441,559.045695 441,548 C441,536.954305 449.954305,528 461,528 Z M541,528 C552.045695,528 561,536.954305 561,548 C561,559.045695 552.045695,568 541,568 C529.954305,568 521,559.045695 521,548 C521,536.954305 529.954305,528 541,528 Z M621,528 C632.045695,528 641,536.954305 641,548 C641,559.045695 632.045695,568 621,568 C609.954305,568 601,559.045695 601,548 C601,536.954305 609.954305,528 621,528 Z M-19,448 C-7.954305,448 1,456.954305 1,468 C1,479.045695 -7.954305,488 -19,488 C-30.045695,488 -39,479.045695 -39,468 C-39,456.954305 -30.045695,448 -19,448 Z M61,448 C72.045695,448 81,456.954305 81,468 C81,479.045695 72.045695,488 61,488 C49.954305,488 41,479.045695 41,468 C41,456.954305 49.954305,448 61,448 Z M141,448 C152.045695,448 161,456.954305 161,468 C161,479.045695 152.045695,488 141,488 C129.954305,488 121,479.045695 121,468 C121,456.954305 129.954305,448 141,448 Z M221,448 C232.045695,448 241,456.954305 241,468 C241,479.045695 232.045695,488 221,488 C209.954305,488 201,479.045695 201,468 C201,456.954305 209.954305,448 221,448 Z M301,448 C312.045695,448 321,456.954305 321,468 C321,479.045695 312.045695,488 301,488 C289.954305,488 281,479.045695 281,468 C281,456.954305 289.954305,448 301,448 Z M381,448 C392.045695,448 401,456.954305 401,468 C401,479.045695 392.045695,488 381,488 C369.954305,488 361,479.045695 361,468 C361,456.954305 369.954305,448 381,448 Z M461,448 C472.045695,448 481,456.954305 481,468 C481,479.045695 472.045695,488 461,488 C449.954305,488 441,479.045695 441,468 C441,456.954305 449.954305,448 461,448 Z M541,448 C552.045695,448 561,456.954305 561,468 C561,479.045695 552.045695,488 541,488 C529.954305,488 521,479.045695 521,468 C521,456.954305 529.954305,448 541,448 Z M621,448 C632.045695,448 641,456.954305 641,468 C641,479.045695 632.045695,488 621,488 C609.954305,488 601,479.045695 601,468 C601,456.954305 609.954305,448 621,448 Z M-19,368 C-7.954305,368 1,376.954305 1,388 C1,399.045695 -7.954305,408 -19,408 C-30.045695,408 -39,399.045695 -39,388 C-39,376.954305 -30.045695,368 -19,368 Z M61,368 C72.045695,368 81,376.954305 81,388 C81,399.045695 72.045695,408 61,408 C49.954305,408 41,399.045695 41,388 C41,376.954305 49.954305,368 61,368 Z M141,368 C152.045695,368 161,376.954305 161,388 C161,399.045695 152.045695,408 141,408 C129.954305,408 121,399.045695 121,388 C121,376.954305 129.954305,368 141,368 Z M221,368 C232.045695,368 241,376.954305 241,388 C241,399.045695 232.045695,408 221,408 C209.954305,408 201,399.045695 201,388 C201,376.954305 209.954305,368 221,368 Z M301,368 C312.045695,368 321,376.954305 321,388 C321,399.045695 312.045695,408 301,408 C289.954305,408 281,399.045695 281,388 C281,376.954305 289.954305,368 301,368 Z M381,368 C392.045695,368 401,376.954305 401,388 C401,399.045695 392.045695,408 381,408 C369.954305,408 361,399.045695 361,388 C361,376.954305 369.954305,368 381,368 Z M461,368 C472.045695,368 481,376.954305 481,388 C481,399.045695 472.045695,408 461,408 C449.954305,408 441,399.045695 441,388 C441,376.954305 449.954305,368 461,368 Z M541,368 C552.045695,368 561,376.954305 561,388 C561,399.045695 552.045695,408 541,408 C529.954305,408 521,399.045695 521,388 C521,376.954305 529.954305,368 541,368 Z M621,368 C632.045695,368 641,376.954305 641,388 C641,399.045695 632.045695,408 621,408 C609.954305,408 601,399.045695 601,388 C601,376.954305 609.954305,368 621,368 Z M-19,288 C-7.954305,288 1,296.954305 1,308 C1,319.045695 -7.954305,328 -19,328 C-30.045695,328 -39,319.045695 -39,308 C-39,296.954305 -30.045695,288 -19,288 Z M61,288 C72.045695,288 81,296.954305 81,308 C81,319.045695 72.045695,328 61,328 C49.954305,328 41,319.045695 41,308 C41,296.954305 49.954305,288 61,288 Z M141,288 C152.045695,288 161,296.954305 161,308 C161,319.045695 152.045695,328 141,328 C129.954305,328 121,319.045695 121,308 C121,296.954305 129.954305,288 141,288 Z M221,288 C232.045695,288 241,296.954305 241,308 C241,319.045695 232.045695,328 221,328 C209.954305,328 201,319.045695 201,308 C201,296.954305 209.954305,288 221,288 Z M301,288 C312.045695,288 321,296.954305 321,308 C321,319.045695 312.045695,328 301,328 C289.954305,328 281,319.045695 281,308 C281,296.954305 289.954305,288 301,288 Z M381,288 C392.045695,288 401,296.954305 401,308 C401,319.045695 392.045695,328 381,328 C369.954305,328 361,319.045695 361,308 C361,296.954305 369.954305,288 381,288 Z M461,288 C472.045695,288 481,296.954305 481,308 C481,319.045695 472.045695,328 461,328 C449.954305,328 441,319.045695 441,308 C441,296.954305 449.954305,288 461,288 Z M541,288 C552.045695,288 561,296.954305 561,308 C561,319.045695 552.045695,328 541,328 C529.954305,328 521,319.045695 521,308 C521,296.954305 529.954305,288 541,288 Z M621,288 C632.045695,288 641,296.954305 641,308 C641,319.045695 632.045695,328 621,328 C609.954305,328 601,319.045695 601,308 C601,296.954305 609.954305,288 621,288 Z M-19,208 C-7.954305,208 1,216.954305 1,228 C1,239.045695 -7.954305,248 -19,248 C-30.045695,248 -39,239.045695 -39,228 C-39,216.954305 -30.045695,208 -19,208 Z M61,208 C72.045695,208 81,216.954305 81,228 C81,239.045695 72.045695,248 61,248 C49.954305,248 41,239.045695 41,228 C41,216.954305 49.954305,208 61,208 Z M141,208 C152.045695,208 161,216.954305 161,228 C161,239.045695 152.045695,248 141,248 C129.954305,248 121,239.045695 121,228 C121,216.954305 129.954305,208 141,208 Z M221,208 C232.045695,208 241,216.954305 241,228 C241,239.045695 232.045695,248 221,248 C209.954305,248 201,239.045695 201,228 C201,216.954305 209.954305,208 221,208 Z M301,208 C312.045695,208 321,216.954305 321,228 C321,239.045695 312.045695,248 301,248 C289.954305,248 281,239.045695 281,228 C281,216.954305 289.954305,208 301,208 Z M381,208 C392.045695,208 401,216.954305 401,228 C401,239.045695 392.045695,248 381,248 C369.954305,248 361,239.045695 361,228 C361,216.954305 369.954305,208 381,208 Z M461,208 C472.045695,208 481,216.954305 481,228 C481,239.045695 472.045695,248 461,248 C449.954305,248 441,239.045695 441,228 C441,216.954305 449.954305,208 461,208 Z M541,208 C552.045695,208 561,216.954305 561,228 C561,239.045695 552.045695,248 541,248 C529.954305,248 521,239.045695 521,228 C521,216.954305 529.954305,208 541,208 Z M621,208 C632.045695,208 641,216.954305 641,228 C641,239.045695 632.045695,248 621,248 C609.954305,248 601,239.045695 601,228 C601,216.954305 609.954305,208 621,208 Z M-19,128 C-7.954305,128 1,136.954305 1,148 C1,159.045695 -7.954305,168 -19,168 C-30.045695,168 -39,159.045695 -39,148 C-39,136.954305 -30.045695,128 -19,128 Z M61,128 C72.045695,128 81,136.954305 81,148 C81,159.045695 72.045695,168 61,168 C49.954305,168 41,159.045695 41,148 C41,136.954305 49.954305,128 61,128 Z M141,128 C152.045695,128 161,136.954305 161,148 C161,159.045695 152.045695,168 141,168 C129.954305,168 121,159.045695 121,148 C121,136.954305 129.954305,128 141,128 Z M221,128 C232.045695,128 241,136.954305 241,148 C241,159.045695 232.045695,168 221,168 C209.954305,168 201,159.045695 201,148 C201,136.954305 209.954305,128 221,128 Z M301,128 C312.045695,128 321,136.954305 321,148 C321,159.045695 312.045695,168 301,168 C289.954305,168 281,159.045695 281,148 C281,136.954305 289.954305,128 301,128 Z M381,128 C392.045695,128 401,136.954305 401,148 C401,159.045695 392.045695,168 381,168 C369.954305,168 361,159.045695 361,148 C361,136.954305 369.954305,128 381,128 Z M461,128 C472.045695,128 481,136.954305 481,148 C481,159.045695 472.045695,168 461,168 C449.954305,168 441,159.045695 441,148 C441,136.954305 449.954305,128 461,128 Z M541,128 C552.045695,128 561,136.954305 561,148 C561,159.045695 552.045695,168 541,168 C529.954305,168 521,159.045695 521,148 C521,136.954305 529.954305,128 541,128 Z M621,128 C632.045695,128 641,136.954305 641,148 C641,159.045695 632.045695,168 621,168 C609.954305,168 601,159.045695 601,148 C601,136.954305 609.954305,128 621,128 Z M-19,48 C-7.954305,48 1,56.954305 1,68 C1,79.045695 -7.954305,88 -19,88 C-30.045695,88 -39,79.045695 -39,68 C-39,56.954305 -30.045695,48 -19,48 Z M61,48 C72.045695,48 81,56.954305 81,68 C81,79.045695 72.045695,88 61,88 C49.954305,88 41,79.045695 41,68 C41,56.954305 49.954305,48 61,48 Z M141,48 C152.045695,48 161,56.954305 161,68 C161,79.045695 152.045695,88 141,88 C129.954305,88 121,79.045695 121,68 C121,56.954305 129.954305,48 141,48 Z M221,48 C232.045695,48 241,56.954305 241,68 C241,79.045695 232.045695,88 221,88 C209.954305,88 201,79.045695 201,68 C201,56.954305 209.954305,48 221,48 Z M301,48 C312.045695,48 321,56.954305 321,68 C321,79.045695 312.045695,88 301,88 C289.954305,88 281,79.045695 281,68 C281,56.954305 289.954305,48 301,48 Z M381,48 C392.045695,48 401,56.954305 401,68 C401,79.045695 392.045695,88 381,88 C369.954305,88 361,79.045695 361,68 C361,56.954305 369.954305,48 381,48 Z M461,48 C472.045695,48 481,56.954305 481,68 C481,79.045695 472.045695,88 461,88 C449.954305,88 441,79.045695 441,68 C441,56.954305 449.954305,48 461,48 Z M541,48 C552.045695,48 561,56.954305 561,68 C561,79.045695 552.045695,88 541,88 C529.954305,88 521,79.045695 521,68 C521,56.954305 529.954305,48 541,48 Z M621,48 C632.045695,48 641,56.954305 641,68 C641,79.045695 632.045695,88 621,88 C609.954305,88 601,79.045695 601,68 C601,56.954305 609.954305,48 621,48 Z" id="Combined-Shape" fill="#FFD4CB" mask="url(#upper-bodydotted-shirt-mask-2)" transform="translate(301.000000, 308.000000) rotate(15.000000) translate(-301.000000, -308.000000)"/></g><path d="M1043.77647,171.88 C1044.66953,168.677 1042.80724,165.355 1039.60486,164.435 C1036.52377,163.551 1033.2843,165.209 1032.20682,168.221 L1022.67687,194.849 L1028.28378,164.784 C1028.93328,161.302 1026.64801,157.949 1023.16499,157.271 C1019.58975,156.575 1016.14482,158.959 1015.54644,162.543 L1010.82356,190.817 L1012.77606,162.202 C1013.00458,158.847 1010.33944,156 1006.96868,156 C1004.08102,156 1001.62938,158.111 1001.20841,160.961 L997.353526,187.054 L997.777503,164.935 C997.83263,162.058 995.55839,159.671 992.674747,159.582 C989.953478,159.497 987.615091,161.495 987.282324,164.192 L985.056196,182.207 L935.314603,189.938 C914.833419,193.122 897.438345,206.605 889.283558,225.618 L876,263 L941.150091,295 L959.191654,254 L1017.97002,225.682 C1025.93237,221.799 1031.849,214.701 1034.22146,206.181 L1043.77647,171.88 Z" id="Hand-Color" fill="#ff8095"/><path d="M582.995199,184.804079 L604.538349,624.108679 L596.547951,624.500521 L575.004801,185.195921 L582.995199,184.804079 Z M480.550518,148.157768 L514.419,213.433 L579.42128,151.598164 L646.309,202.048 L654.055815,156.168276 L661.944185,157.500054 L652.00613,216.36501 L580.02,162.069 L512.22114,226.566515 L473.449482,151.842232 L480.550518,148.157768 Z" id="Combined-Shape" fill="#000" fill-rule="nonzero"/><path d="M500.4835,550 L601.02451,572.522687 L610.861074,564.652339 C623.633733,554.43238 642.358447,557.034842 651.868557,570.35097 L670.152007,595.950838 C674.332023,601.804378 673.868797,609.784661 669.038867,615.11451 L657.992325,627.305304 C651.528125,634.439087 642.12918,640 632.508255,640 L498,640 L500.4835,550 Z" id="Hand-Color" fill="#ff8095"/><polygon id="Stroke-103" fill="#000" fill-rule="nonzero" points="420.017061 314.101424 427.918239 315.354976 394.918239 523.354976 387.017061 522.101424"/><polygon id="Stroke-105" fill="#000" fill-rule="nonzero" points="375.607383 512.728043 489.607383 545.728043 487.382918 553.412557 373.382918 520.412557"/><polygon id="Stroke-107" fill="#000" fill-rule="nonzero" points="636.353718 595.345691 641.654309 589.353718 673.646282 617.654309 668.345691 623.646282"/><polygon id="Stroke-109" fill="#000" fill-rule="nonzero" points="623.859748 621.361738 626.638262 613.859748 661.140252 626.638262 658.361738 634.140252"/><polygon id="Stroke-111" fill="#000" fill-rule="nonzero" points="712.965894 313.478768 735.965894 488.478768 728.034106 489.521232 705.034106 314.521232"/><path d="M480,640 L517.506672,640 L523.978361,555.006459 C524.270339,551.059436 521.577767,547.515597 517.702337,546.745154 L489.560873,541.152456 C484.724806,540.191398 480.218584,543.895912 480.218584,548.833933 L480,640 Z" id="Fill-113" fill="#FFD4CB"/><path d="M869.776896,280.75029 L941.613347,313.279444 C945.940892,315.239419 951.0068,313.049744 952.575199,308.543007 L958.542886,291.404767 C959.8831,287.556035 958.191143,283.302068 954.582032,281.449421 L885.350279,245.89304 C881.175189,243.748503 876.07042,245.609174 874.227003,249.946395 L865.654618,270.11086 C863.918817,274.19531 865.751273,278.927735 869.776896,280.75029" id="Fill-115" fill="#FFD4CB"/></g></g></g></g></g></g></g></svg>