<svg viewBox="-112.5 567.6691729323306 2887.5 1466.1654135338342" fill="none" xmlns="http://www.w3.org/2000/svg" xmlns:xlink="http://www.w3.org/1999/xlink" overflow="visible" width="2887.5px" height="1466.1654135338342px"><g id="Master/Scene/Waiting"><g id="Master/Character/Sitting" transform="translate(620 200) scale(1 1)"><g id="Master/Character/Sitting"><g id="Chair" transform="translate(100 800) scale(1 1)"><g id="Chair/Wooden"><path id="Chair back" fill-rule="evenodd" clip-rule="evenodd" d="M927.228 677.299H620.956C613.032 677.299 607.64 669.262 610.648 661.932L650.658 564.473L936.736 544.771V500.216H508.138V544.771L581.432 560.303L536.068 677.299H508.143L433.164 604.571L443.774 173.952C444.143 158.861 432.09 146.514 416.99 146.514C364.025 135.543 309.411 135.171 256.302 145.421L249.092 146.812C233.061 149.905 221.611 164.123 222.01 180.44L230.903 540.85C231.901 581.691 248.892 620.509 278.221 648.958L376.341 744.132H425.263H512.165L411 1000H466.712L576.903 744.132H577.043H874.085L944.288 999H1000L927.228 677.299Z" fill="#C4A182"/><path id="Fill 21" fill-rule="evenodd" clip-rule="evenodd" d="M912 970C912 986.569 925.431 1000 942 1000H1074.87C1096.06 1000 1102.7 971.382 1083.69 962.047L996 919H912V970Z" fill="#DBDAC6"/><path id="Fill 21_2" fill-rule="evenodd" clip-rule="evenodd" d="M686.73 962.471C681.805 981.468 696.145 1000 715.77 1000H861.405C882.615 1000 889.238 971.327 870.176 962.026L782 919H698L686.73 962.471Z" fill="#DBDAC6"/><path id="Fill 27" fill-rule="evenodd" clip-rule="evenodd" d="M951.698 652.747C929.715 563.113 849.252 500.16 756.962 500.388L468 501.101V564.729C468 626.164 517.888 675.965 579.43 675.965H835.169L902.229 919H1017L951.698 652.747Z" fill="#696089"/><path id="Fill 29" fill-rule="evenodd" clip-rule="evenodd" d="M901.326 679.434C927.644 589.782 860.429 500 766.995 500L380 500V564.867C380 626.277 429.862 676.059 491.371 676.059H746.975L698.003 919H831L901.326 679.434Z" fill="#696089"/><path id="Path 11" d="M884.899 572.512C909.519 603.505 916.735 638.803 906.489 678.011L905.572 681.496C895.663 718.861 878.59 774.852 854.344 849.499L852.804 854.238L845.196 851.762L848.253 842.35C872.406 767.843 889.24 712.379 898.749 675.989C908.267 639.566 901.81 607.15 879.322 578.36L878.635 577.488L884.899 572.512Z" fill="black"/><g id="Chair front"><path id="Chair" fill-rule="evenodd" clip-rule="evenodd" d="M715.905 677.161H409.504C401.576 677.161 396.182 669.119 399.191 661.787L439.218 564.286L737.08 548.706V500H296.637V544.575L369.963 560.114L199.792 999H255.527L365.431 744.022H662.739L733 1000H788.735L715.905 677.161Z" fill="#AF8358"/><path id="Stroke 7" d="M765.665 672.194L765.679 680.194L410.126 680.807L410.112 672.807L765.665 672.194Z" fill="black"/></g></g></g><g id="Head"><path id="Head_2" fill-rule="evenodd" clip-rule="evenodd" d="M734.493 638.499C743.106 682.758 758.903 756.72 673 762.645C608.349 767.103 595.122 705.336 589 670.645C580 619.645 597 585.645 645 574.645C710.358 559.666 729.339 612.016 734.493 638.499" fill="#CCB2FF"/><path id="Neck" fill-rule="evenodd" clip-rule="evenodd" d="M701 789V744H627L625 786L561 818.645L598.2 851.967C639.318 888.8 702.503 885.347 739.363 844.253L762.333 818.645L701 789Z" fill="#CCB2FF"/></g><g id="Hair" transform="translate(404 378) scale(1 1)"><g id="Hair/Small Bun"><path id="Hair" fill-rule="evenodd" clip-rule="evenodd" d="M378.72 216.342C348.601 98.1622 100.531 110.088 134.104 243.447C136.071 251.261 137.945 258.668 139.743 265.714C107.581 240.298 60.8986 240.73 29.1266 268.862C-6.58192 300.477 -9.91896 355.076 21.6724 390.812C53.2638 426.547 84.8112 403.859 120.52 372.243C136.112 358.436 149.92 345.211 157.897 331.714C174.97 385.806 188.161 394.893 221.626 392.776C221.626 392.776 408.839 334.521 378.72 216.342" fill="#CCB2FF"/></g></g><g id="Face" transform="translate(593 622) scale(1 1)"><g id="Face/Dark Glasses"><path id="Stroke 9" d="M139.505 21.7625L147.359 20.2375L147.915 23.1293C150.492 36.6862 151.956 46.6187 152.641 56.8252C153.602 71.1513 152.681 83.6925 149.423 94.7127C141.401 121.845 119.648 138.01 81.4351 140.907L80.2721 140.991L79.7278 133.009C115.454 130.573 134.638 116.504 141.751 92.4445C144.707 82.4456 145.561 70.8151 144.659 57.3606C143.999 47.5215 142.57 37.8442 140.039 24.5364L139.505 21.7625Z" fill="black"/><g id="Group"><path id="Glasses" fill-rule="evenodd" clip-rule="evenodd" d="M61.0733 39.078C61.981 27.6044 71.0615 18.1278 82.9082 17.0913C94.755 16.0549 105.343 23.8107 108.229 34.9524L109.887 34.8074C110.795 23.3338 119.875 13.8572 131.722 12.8207C144.926 11.6655 156.567 21.4332 157.722 34.6376C158.877 47.842 149.11 59.4828 135.905 60.638C124.059 61.6745 113.47 53.9187 110.584 42.777L108.927 42.922C108.019 54.3956 98.9385 63.8722 87.0917 64.9087C75.245 65.9451 64.6569 58.1893 61.7705 47.0476L27.5693 50.0398C23.7983 50.3697 20.9882 53.6318 21.1891 57.3832L21.206 57.6233C21.3986 59.824 19.7706 61.7641 17.5699 61.9567C15.3692 62.1492 13.429 60.5212 13.2365 58.3205C12.5236 50.1722 18.4659 42.9766 26.5597 42.1008L26.8721 42.0703L61.0733 39.078Z" fill="#FFA896"/><g id="Path"><path id="Mask" fill-rule="evenodd" clip-rule="evenodd" d="M132.419 20.7903C141.222 20.0201 148.983 26.5319 149.753 35.3349C150.523 44.1378 144.011 51.8983 135.208 52.6685C126.405 53.4386 118.645 46.9268 117.874 38.1239C117.104 29.3209 123.616 21.5604 132.419 20.7903Z" fill="#006AD6"/><mask id="mask0_116_42901f3a1041e-f8d4-46ae-bed5-0b7ce790356e" style="mask-type:alpha" maskUnits="userSpaceOnUse" x="117" y="20" width="33" height="33" fill="#ffffff"><path id="Mask_2" fill-rule="evenodd" clip-rule="evenodd" d="M132.419 20.7903C141.222 20.0201 148.983 26.5319 149.753 35.3349C150.523 44.1378 144.011 51.8983 135.208 52.6685C126.405 53.4386 118.645 46.9268 117.874 38.1239C117.104 29.3209 123.616 21.5604 132.419 20.7903Z" fill="#ffffff"/></mask><g mask="url(#mask0_116_42901f3a1041e-f8d4-46ae-bed5-0b7ce790356e)"><path id="Combined Shape" fill-rule="evenodd" clip-rule="evenodd" d="M147.179 21.3343L141.051 16.192L116.507 45.4425L122.635 50.5848L147.179 21.3343ZM152.759 29.7083L146.631 24.566L122.087 53.8165L128.215 58.9588L152.759 29.7083Z" fill="white" fill-opacity="0.5"/></g></g><g id="Path_2"><path id="Mask_3" fill-rule="evenodd" clip-rule="evenodd" d="M83.6056 25.0609C92.4086 24.2907 100.169 30.8026 100.939 39.6055C101.709 48.4084 95.1975 56.169 86.3946 56.9391C77.5917 57.7093 69.8312 51.1974 69.061 42.3945C68.2908 33.5916 74.8027 25.831 83.6056 25.0609Z" fill="#006AD6"/><g id="Intersect"><path d="M95.6361 29.047C93.582 27.2199 91.0627 25.9214 88.3031 25.3403L70.1519 46.9722C71.2033 49.589 72.9195 51.8445 75.0756 53.5501L95.6361 29.047Z" fill="white" fill-opacity="0.5"/><path d="M84.7871 56.9998C81.7406 56.9629 78.8686 56.0613 76.4307 54.5127L96.8194 30.2144C98.7678 32.3464 100.154 35.0182 100.72 38.012L84.7871 56.9998Z" fill="white" fill-opacity="0.5"/></g></g></g></g></g><g id="Torso"><mask id="mask0_116_439304e426bcf-1e5b-4785-93d8-e6077a58f537" style="mask-type:alpha" maskUnits="userSpaceOnUse" x="0" y="372" width="1400" height="928" fill="#ffffff"><rect id="Mask" y="372" width="1400" height="928" fill="#ffffff"/></mask><g mask="url(#mask0_116_439304e426bcf-1e5b-4785-93d8-e6077a58f537)"><g id="Upper Body" transform="translate(100 660) scale(1 1)"><g id="Upper Body/Bio Suit"><g id="Group"><path id="Fill 6" fill-rule="evenodd" clip-rule="evenodd" d="M734 419L754.195 548.825C759.1 580.359 748.66 612.34 726.094 634.906L723.929 637.071C722.054 638.946 719.51 640 716.858 640H390.632C326.667 640 279.147 580.775 293.009 518.329L344.115 288.104C359.494 218.825 410.952 163.176 478.817 142.43V142.43V120C478.817 108.954 487.771 100 498.817 100L640.294 100C651.339 100 660.294 108.954 660.294 120V145.948V145.948C715.399 150.95 763.935 184.254 788.428 233.869L844.796 348.05L862.409 339.526C886.703 327.769 915.943 337.414 928.474 361.318L942.357 387.802C955.955 413.741 944.448 445.762 917.448 457.11L870.14 476.996C825.943 495.573 774.78 480.169 748.186 440.278L734 419Z" fill="#FFC950"/><path id="Hand" fill-rule="evenodd" clip-rule="evenodd" d="M673.228 561.986C662.352 546.725 640.938 543.743 626.329 555.456L608 573L520 552L508 640H659C665.101 640 671.014 637.887 675.113 633.354L693.54 612.974C698.771 607.191 699.273 598.531 694.745 592.178L673.228 561.986Z" fill="#73C8FF"/><path id="Combined Shape" fill-rule="evenodd" clip-rule="evenodd" d="M456.379 345.123L448.553 343.462L415.883 497.421L399.814 494.084L398.188 501.916L481.135 519.144L481.858 519.3C505.631 524.631 521.174 547.629 517.155 571.745L512.055 602.342L519.946 603.658L525.046 573.06L525.182 572.203C529.438 543.921 510.863 517.148 482.762 511.311L423.716 499.048L456.379 345.123Z" fill="black"/><path id="Combined Shape_2" fill-rule="evenodd" clip-rule="evenodd" d="M665.339 588.364L660.194 594.49L691.32 620.636L696.465 614.51L665.339 588.364ZM652.532 613.831L649.66 621.297L683.127 634.169L685.999 626.703L652.532 613.831Z" fill="black"/><path id="Stroke 19" d="M726.936 314.166L749.845 489.041L741.913 490.08L719.004 315.205L726.936 314.166Z" fill="black"/><g id="Hand_2"><path id="Hand_3" fill-rule="evenodd" clip-rule="evenodd" d="M922.813 336.42C920.866 328.97 920.824 321.05 922.849 313.417L936.469 262.069C937.5 258.183 941.206 255.562 945.301 255.985C949.04 256.371 952.01 259.376 952.61 263.088C954.676 275.882 955.552 288.777 955.679 301.044L968.969 286.902L1010.46 242.748C1013.23 239.805 1017.49 240.032 1019.93 243.251C1022.95 247.248 1023.21 253.968 1020.5 258.185L991.737 302.95L1039.51 262.272C1043.49 258.887 1049.51 259.312 1052.96 263.404C1056.06 267.086 1055.74 272.571 1052.5 276.13L1010.49 322.281L1056.63 292.859C1060.39 290.463 1065.42 291.516 1067.88 295.33C1070.25 299.002 1069.1 303.93 1065.57 306.507L1020.95 339.091L1060.32 325.748C1063.5 324.669 1067.02 325.749 1069.05 328.43C1072 332.333 1070.68 337.963 1066.29 340.136L1027.14 359.533L925.166 422.201L924.743 421.963C899.925 407.976 885.559 380.786 887.989 352.402V352.402L922.813 336.42Z" fill="#73C8FF"/><path id="Combined Shape_3" fill-rule="evenodd" clip-rule="evenodd" d="M982.729 290.831L978.212 297.434L981.557 299.723L982.444 300.357C982.758 300.586 983.103 300.841 983.476 301.122L983.967 301.493C985.454 302.625 987.087 303.93 988.829 305.399C994.367 310.07 999.849 315.409 1004.87 321.312C1011.75 329.396 1017.21 337.889 1020.78 346.649L1022.29 350.354L1029.7 347.337L1028.19 343.632L1027.83 342.759C1023.91 333.456 1018.14 324.554 1010.96 316.126C1005.63 309.863 999.842 304.223 993.986 299.284C991.934 297.552 990.016 296.03 988.284 294.728L988.046 294.549C987.27 293.969 986.665 293.532 986.254 293.245L982.729 290.831ZM958.575 298.284L955.815 295.389L950.025 300.909L952.785 303.804L953.401 304.457C953.807 304.892 954.204 305.328 954.594 305.765C962.755 314.916 967.196 324.192 968.691 333.336C969.743 339.774 969.257 345.497 967.917 350.183C967.731 350.833 967.546 351.393 967.373 351.859C967.306 352.039 967.256 352.165 967.227 352.236L965.561 355.943L972.856 359.226L974.498 355.578L974.628 355.277C974.855 354.732 975.133 353.965 975.429 352.991L975.609 352.382C977.255 346.622 977.841 339.727 976.586 332.045C974.845 321.397 969.735 310.724 960.565 300.441C959.921 299.719 959.258 299 958.575 298.284Z" fill="black"/></g><path id="Combined Shape_4" fill-rule="evenodd" clip-rule="evenodd" d="M478.624 167.096C477.573 164.543 474.651 163.325 472.097 164.377C437.175 178.756 411.999 198.414 396.735 223.393C395.295 225.749 396.037 228.826 398.394 230.266C400.75 231.706 403.827 230.964 405.267 228.607C419.336 205.586 442.827 187.244 475.905 173.623C478.458 172.572 479.676 169.65 478.624 167.096ZM391.942 238.956C389.709 237.332 386.581 237.826 384.957 240.059C379.226 247.94 375.585 255.586 374.098 263.019C373.557 265.727 375.313 268.361 378.02 268.903C380.728 269.444 383.362 267.688 383.904 264.981C385.084 259.081 388.11 252.726 393.045 245.941C394.669 243.708 394.175 240.581 391.942 238.956Z" fill="#FFE19C"/><path id="Path 15" d="M866.02 352.097C868.728 351.556 871.362 353.312 871.904 356.019C872.445 358.727 870.689 361.361 867.981 361.903C858.637 363.772 843.356 370.599 822.452 382.358C820.045 383.712 816.997 382.858 815.643 380.451C814.289 378.045 815.143 374.996 817.55 373.642L819.859 372.35C840.452 360.895 855.745 354.152 866.02 352.097Z" fill="#FFE19C"/><path id="Combined Shape_5" fill-rule="evenodd" clip-rule="evenodd" d="M320.245 493.158C317.571 492.47 314.846 494.08 314.158 496.755C301.694 545.225 306.677 577.97 330.168 594.12C332.443 595.685 335.556 595.108 337.12 592.833C338.685 590.557 338.108 587.444 335.833 585.88C316.657 572.696 312.307 544.108 323.843 499.245C324.53 496.571 322.92 493.845 320.245 493.158ZM351.774 598.84C349.476 597.308 346.372 597.929 344.84 600.226C343.308 602.524 343.929 605.628 346.227 607.16C354.658 612.781 363.797 616.999 373.627 619.808C376.282 620.566 379.049 619.029 379.808 616.374C380.567 613.718 379.029 610.951 376.374 610.192C367.537 607.667 359.342 603.885 351.774 598.84Z" fill="#FFE19C"/></g></g></g></g></g></g></g><g id="Master/Character/Sitting" transform="translate(220 200) scale(1 1)"><g id="Master/Character/Sitting"><g id="Chair" transform="translate(100 800) scale(1 1)"><g id="Chair/Wooden"><path id="Chair back" fill-rule="evenodd" clip-rule="evenodd" d="M927.228 677.299H620.956C613.032 677.299 607.64 669.262 610.648 661.932L650.658 564.473L936.736 544.771V500.216H508.138V544.771L581.432 560.303L536.068 677.299H508.143L433.164 604.571L443.774 173.952C444.143 158.861 432.09 146.514 416.99 146.514C364.025 135.543 309.411 135.171 256.302 145.421L249.092 146.812C233.061 149.905 221.611 164.123 222.01 180.44L230.903 540.85C231.901 581.691 248.892 620.509 278.221 648.958L376.341 744.132H425.263H512.165L411 1000H466.712L576.903 744.132H577.043H874.085L944.288 999H1000L927.228 677.299Z" fill="#C4A182"/><path id="Fill 21" fill-rule="evenodd" clip-rule="evenodd" d="M912 970C912 986.569 925.431 1000 942 1000H1074.87C1096.06 1000 1102.7 971.382 1083.69 962.047L996 919H912V970Z" fill="#DBDAC6"/><path id="Fill 21_2" fill-rule="evenodd" clip-rule="evenodd" d="M686.73 962.471C681.805 981.468 696.145 1000 715.77 1000H861.405C882.615 1000 889.238 971.327 870.176 962.026L782 919H698L686.73 962.471Z" fill="#DBDAC6"/><path id="Fill 27" fill-rule="evenodd" clip-rule="evenodd" d="M951.698 652.747C929.715 563.113 849.252 500.16 756.962 500.388L468 501.101V564.729C468 626.164 517.888 675.965 579.43 675.965H835.169L902.229 919H1017L951.698 652.747Z" fill="#696089"/><path id="Fill 29" fill-rule="evenodd" clip-rule="evenodd" d="M901.326 679.434C927.644 589.782 860.429 500 766.995 500L380 500V564.867C380 626.277 429.862 676.059 491.371 676.059H746.975L698.003 919H831L901.326 679.434Z" fill="#696089"/><path id="Path 11" d="M884.899 572.512C909.519 603.505 916.735 638.803 906.489 678.011L905.572 681.496C895.663 718.861 878.59 774.852 854.344 849.499L852.804 854.238L845.196 851.762L848.253 842.35C872.406 767.843 889.24 712.379 898.749 675.989C908.267 639.566 901.81 607.15 879.322 578.36L878.635 577.488L884.899 572.512Z" fill="black"/><g id="Chair front"><path id="Chair" fill-rule="evenodd" clip-rule="evenodd" d="M715.905 677.161H409.504C401.576 677.161 396.182 669.119 399.191 661.787L439.218 564.286L737.08 548.706V500H296.637V544.575L369.963 560.114L199.792 999H255.527L365.431 744.022H662.739L733 1000H788.735L715.905 677.161Z" fill="#AF8358"/><path id="Stroke 7" d="M765.665 672.194L765.679 680.194L410.126 680.807L410.112 672.807L765.665 672.194Z" fill="black"/></g></g></g><g id="Head"><path id="Head_2" fill-rule="evenodd" clip-rule="evenodd" d="M734.493 638.499C743.106 682.758 758.903 756.72 673 762.645C608.349 767.103 595.122 705.336 589 670.645C580 619.645 597 585.645 645 574.645C710.358 559.666 729.339 612.016 734.493 638.499" fill="#CCB2FF"/><path id="Neck" fill-rule="evenodd" clip-rule="evenodd" d="M701 789V744H627L625 786L561 818.645L598.2 851.967C639.318 888.8 702.503 885.347 739.363 844.253L762.333 818.645L701 789Z" fill="#CCB2FF"/></g><g id="Hair" transform="translate(404 378) scale(1 1)"><g id="Hair/Long 2"><path id="Hair" fill-rule="evenodd" clip-rule="evenodd" d="M381.08 243.401C398.157 174.317 345.374 137.834 260.765 178.974C243.689 154.911 150.569 130.961 113.284 230.981C76 331 58 311 15 371C-28 431 65.6053 554.023 167 476C268.395 397.977 275.514 310.932 275.514 310.932C275.514 310.932 364.003 312.484 381.08 243.401Z" fill="#CCB2FF"/></g></g><g id="Face" transform="translate(593 622) scale(1 1)"><g id="Face/Normal"><path id="Stroke 9" d="M138.007 13.7702L145.857 12.2298L147.549 20.8796L148.018 23.3396C150.609 37.0645 152.103 47.4423 152.719 57.8208L152.762 58.5622C153.984 80.6615 150.61 98.5963 141.031 112.508C129.646 129.044 110.034 138.786 81.1511 140.928L80.273 140.991L79.7271 133.009C106.811 131.157 124.441 122.498 134.442 107.972C142.847 95.7645 145.907 79.4963 144.774 59.0041L144.689 57.5787C144.071 47.8319 142.628 37.909 140.153 24.8041L139.313 20.4284L138.007 13.7702Z" fill="black"/><path id="Eye L" fill-rule="evenodd" clip-rule="evenodd" d="M86.4724 29.1099C87.6716 37.3704 86.9786 44.3214 82.8097 44.9575C78.6407 45.5936 76.9765 39.0036 75.7772 30.743C74.5779 22.4825 74.2909 15.6808 78.4667 15.0436C82.6435 14.4055 85.2731 20.8494 86.4724 29.1099" fill="black"/><path id="Eye R" fill-rule="evenodd" clip-rule="evenodd" d="M119.472 28.1098C120.672 36.3703 119.979 43.3213 115.81 43.9574C111.641 44.5945 109.976 38.0034 108.777 29.7429C107.578 21.4824 107.291 14.6816 111.467 14.0435C115.644 13.4064 118.273 19.8492 119.472 28.1098" fill="black"/></g></g><g id="Torso"><mask id="mask0_116_439304e426bcf-1e5b-4785-93d8-e6077a58f537" style="mask-type:alpha" maskUnits="userSpaceOnUse" x="0" y="372" width="1400" height="928" fill="#ffffff"><rect id="Mask" y="372" width="1400" height="928" fill="#ffffff"/></mask><g mask="url(#mask0_116_439304e426bcf-1e5b-4785-93d8-e6077a58f537)"><g id="Upper Body" transform="translate(100 660) scale(1 1)"><g id="Upper Body/Scrubs 2"><g id="Group 36"><path id="Hand Color" fill-rule="evenodd" clip-rule="evenodd" d="M1161.68 575.926V575.926C1163.55 571.734 1161.76 566.819 1157.63 564.796L1116.28 544.509L1176.67 553.8C1181.62 554.563 1186.24 551.125 1186.92 546.169C1187.55 541.551 1184.52 537.221 1179.96 536.221L1121.19 523.344L1190.05 520.008C1195.7 519.734 1200.1 515.036 1200 509.401C1199.9 504.032 1195.73 499.615 1190.37 499.195L1121.59 493.799L1182.56 480.457C1187.66 479.341 1190.92 474.351 1189.88 469.246C1188.95 464.688 1184.86 461.462 1180.2 461.615L1116.31 463.697V463.697L1094.99 464.391C1104.48 454.688 1113.88 443.902 1122.25 432.258C1124.85 428.648 1124.36 423.67 1121.17 420.568C1118.25 417.732 1113.8 417.184 1110.28 419.23L1059.82 448.579C1052.31 452.941 1046.2 459.128 1041.93 466.424L1007.78 458.088L995 528.277L1105.24 565.187L1151.13 580.555C1155.32 581.956 1159.89 579.951 1161.68 575.926" fill="#CCB2FF"/><g id="Combined Shape"><path d="M1099.08 460.089L1091.09 459.913L1091 463.912L1090.98 464.682C1090.47 481.551 1085.47 494.174 1077.5 503.285C1074.59 506.614 1071.48 509.224 1068.38 511.195C1067.32 511.873 1066.34 512.421 1065.48 512.847L1065.32 512.922C1064.92 513.114 1064.66 513.227 1064.56 513.267L1060.83 514.703L1063.7 522.169L1067.55 520.686C1067.81 520.584 1068.15 520.436 1068.57 520.237L1069.01 520.022C1070.13 519.47 1071.37 518.781 1072.68 517.942C1076.39 515.578 1080.08 512.479 1083.52 508.554C1092.85 497.896 1098.58 483.226 1099 464.088L1099.08 460.089Z" fill="black"/><path d="M1120.29 476.334L1112.42 477.801L1113.16 481.733L1113.26 482.362C1113.32 482.673 1113.37 483.027 1113.43 483.422L1113.5 483.906C1113.65 484.89 1113.79 485.971 1113.93 487.143L1114.07 488.345C1115.77 503.85 1115.4 520.706 1111.53 536.443C1110.4 541.013 1109 545.366 1107.3 549.472L1105.77 553.168L1113.17 556.225L1114.69 552.528L1115.12 551.488C1116.78 547.308 1118.17 542.922 1119.29 538.354C1123.42 521.568 1123.81 503.829 1122.02 487.472C1121.8 485.514 1121.57 483.757 1121.34 482.225L1121.27 481.743C1121.2 481.288 1121.13 480.916 1121.08 480.63L1120.29 476.334Z" fill="black"/></g><path id="Path 2" fill-rule="evenodd" clip-rule="evenodd" d="M474 169C474 169 539 193 582 186C625 179 632 151 632 151L679 242L632 309H500L474 169Z" fill="#EFEED8"/><path id="Scrubs Color" fill-rule="evenodd" clip-rule="evenodd" d="M823 328L767.39 222.773C757.171 203.185 740.752 187.533 720.699 178.261L657.556 150.965L616.608 130.448L591 264L491.286 136.83L460.5 153.173L460.538 152.909L404.842 182.72C375.969 198.173 353.428 223.259 341.139 253.614L312 328L455 640H710.341C719.043 640 726.15 633.045 726.337 624.345L731 408L823 328Z" fill="#52D6C0"/><path id="Pocket" fill-rule="evenodd" clip-rule="evenodd" d="M424.672 298H561.862L553.301 420H434.303L424.672 298ZM545.842 412L553.281 306H433.328L441.696 412H545.842Z" fill="black"/><path id="Stroke 12" d="M715 635.5V643.5H450V635.5H715Z" fill="black"/><path id="Fill 8" fill-rule="evenodd" clip-rule="evenodd" d="M833.838 345.79C860.878 390.177 904.136 422.294 954.447 435.338L1038 457L1015.29 556.842C1015.29 556.842 801 535 731 408L823 328L833.838 345.79ZM408.048 400.585L312.277 328L312.038 328.621C277.46 418.525 288.372 519.588 341.344 600.039L417.417 715.576L487.131 648.893L394.028 483.709L408.048 400.585ZM342.179 599.49C289.506 519.493 278.559 419.048 312.734 329.601L406.962 401.016L392.983 483.892L485.879 648.707L417.593 714.024L342.179 599.49Z" fill="#EFEED8"/><path id="Path" d="M490.266 636.085L495.744 641.915L412.744 719.915L407.266 714.085L490.266 636.085Z" fill="black"/><path id="Stroke 10" d="M519.178 166.572L603.178 276.572L596.82 281.428L512.82 171.428L519.178 166.572Z" fill="black"/><path id="Stroke 34" d="M729 308.901L736.998 309.099L732.998 471.099L725 470.901L729 308.901Z" fill="black"/></g></g></g></g></g></g></g><g id="Master/Character/Sitting" transform="translate(-180 200) scale(1 1)"><g id="Master/Character/Sitting"><g id="Chair" transform="translate(100 800) scale(1 1)"><g id="Chair/Bench"><path id="Chair back" fill-rule="evenodd" clip-rule="evenodd" d="M465.222 523.05C465.222 509.215 476.437 498 490.272 498H840.229C854.063 498 865.279 509.215 865.279 523.05C865.279 536.885 854.064 548.1 840.229 548.1H589.292L546.62 676.355H882.216C883.634 676.355 885.032 676.439 886.406 676.603H887.187L887.211 676.708C904.214 679.132 917.286 693.752 917.286 711.425C917.286 723.624 911.058 734.368 901.607 740.651L960 1000H904.257L844.116 781.258C839.425 764.195 826.225 751.251 809.857 746.495H555.639C541.52 750.596 529.652 760.809 523.653 774.753L426.743 1000H371L471.696 739.814C462.924 733.439 457.221 723.098 457.221 711.425C457.221 692.056 472.922 676.355 492.29 676.355H515.562L558.234 548.1H490.272C476.437 548.1 465.222 536.885 465.222 523.05ZM559.288 548.1L516.615 676.355H545.566L588.239 548.1H559.288Z" fill="#E7D6A0"/><path id="Fill 21" fill-rule="evenodd" clip-rule="evenodd" d="M912.019 969.981C912.008 986.557 925.443 1000 942.019 1000H1074.87C1096.06 1000 1102.7 971.382 1083.69 962.047L996 919H912.05L912.019 969.981Z" fill="#193256"/><path id="Fill 21_2" fill-rule="evenodd" clip-rule="evenodd" d="M686.757 962.454C681.819 981.455 696.161 1000 715.793 1000H861.405C882.615 1000 889.238 971.327 870.176 962.026L782 919H698.05L686.757 962.454Z" fill="#193256"/><path id="Fill 27" fill-rule="evenodd" clip-rule="evenodd" d="M951.698 652.747C929.715 563.113 849.252 500.16 756.962 500.388L468 501.101V564.729C468 626.164 517.888 675.965 579.43 675.965H835.169L902.229 919H1017L951.698 652.747Z" fill="#73C8FF"/><path id="Fill 29" fill-rule="evenodd" clip-rule="evenodd" d="M901.326 679.434C927.644 589.782 860.429 500 766.995 500L380 500V564.867C380 626.277 429.862 676.059 491.371 676.059H746.975L698.003 919H831L901.326 679.434Z" fill="#73C8FF"/><g id="Chair front"><path id="Combined Shape" fill-rule="evenodd" clip-rule="evenodd" d="M334 523.05C334 509.215 345.215 498 359.05 498H708.95C722.785 498 734 509.215 734 523.05C734 536.884 722.785 548.1 708.95 548.1H458.053L415.386 676.355H750.93C752.348 676.355 753.746 676.439 755.119 676.602H755.905L755.929 676.708C772.93 679.134 786 693.753 786 711.424C786 723.622 779.772 734.366 770.323 740.649L828.708 999.999H772.972L712.841 781.259C708.15 764.196 694.95 751.25 678.582 746.494H424.408C410.289 750.595 398.421 760.81 392.422 774.754L295.527 999.999H239.792L340.474 739.812C331.703 733.438 326 723.097 326 711.424C326 692.056 341.701 676.355 361.07 676.355H384.333L426.999 548.1H359.05C345.215 548.1 334 536.884 334 523.05ZM428.053 548.1L385.386 676.355H414.333L456.999 548.1H428.053Z" fill="#CCB465"/></g><path id="Path 11" d="M884.899 572.512C909.519 603.505 916.735 638.802 906.489 678.011L905.572 681.495C895.663 718.861 878.59 774.852 854.344 849.498L852.804 854.238L845.196 851.762L848.253 842.35C872.406 767.843 889.24 712.379 898.749 675.989C908.267 639.565 901.81 607.15 879.322 578.359L878.635 577.488L884.899 572.512Z" fill="black"/></g></g><g id="Head"><path id="Head_2" fill-rule="evenodd" clip-rule="evenodd" d="M734.493 638.499C743.106 682.758 758.903 756.72 673 762.645C608.349 767.103 595.122 705.336 589 670.645C580 619.645 597 585.645 645 574.645C710.358 559.666 729.339 612.016 734.493 638.499" fill="#CCB2FF"/><path id="Neck" fill-rule="evenodd" clip-rule="evenodd" d="M701 789V744H627L625 786L561 818.645L598.2 851.967C639.318 888.8 702.503 885.347 739.363 844.253L762.333 818.645L701 789Z" fill="#CCB2FF"/></g><g id="Hair" transform="translate(404 378) scale(1 1)"><g id="Hair/Small Bun"><path id="Hair" fill-rule="evenodd" clip-rule="evenodd" d="M378.72 216.342C348.601 98.1622 100.531 110.088 134.104 243.447C136.071 251.261 137.945 258.668 139.743 265.714C107.581 240.298 60.8986 240.73 29.1266 268.862C-6.58192 300.477 -9.91896 355.076 21.6724 390.812C53.2638 426.547 84.8112 403.859 120.52 372.243C136.112 358.436 149.92 345.211 157.897 331.714C174.97 385.806 188.161 394.893 221.626 392.776C221.626 392.776 408.839 334.521 378.72 216.342" fill="#CCB2FF"/></g></g><g id="Face" transform="translate(593 622) scale(1 1)"><g id="Face/Dark Glasses"><path id="Stroke 9" d="M139.505 21.7625L147.359 20.2375L147.915 23.1293C150.492 36.6862 151.956 46.6187 152.641 56.8252C153.602 71.1513 152.681 83.6925 149.423 94.7127C141.401 121.845 119.648 138.01 81.4351 140.907L80.2721 140.991L79.7278 133.009C115.454 130.573 134.638 116.504 141.751 92.4445C144.707 82.4456 145.561 70.8151 144.659 57.3606C143.999 47.5215 142.57 37.8442 140.039 24.5364L139.505 21.7625Z" fill="black"/><g id="Group"><path id="Glasses" fill-rule="evenodd" clip-rule="evenodd" d="M61.0733 39.078C61.981 27.6044 71.0615 18.1278 82.9082 17.0913C94.755 16.0549 105.343 23.8107 108.229 34.9524L109.887 34.8074C110.795 23.3338 119.875 13.8572 131.722 12.8207C144.926 11.6655 156.567 21.4332 157.722 34.6376C158.877 47.842 149.11 59.4828 135.905 60.638C124.059 61.6745 113.47 53.9187 110.584 42.777L108.927 42.922C108.019 54.3956 98.9385 63.8722 87.0917 64.9087C75.245 65.9451 64.6569 58.1893 61.7705 47.0476L27.5693 50.0398C23.7983 50.3697 20.9882 53.6318 21.1891 57.3832L21.206 57.6233C21.3986 59.824 19.7706 61.7641 17.5699 61.9567C15.3692 62.1492 13.429 60.5212 13.2365 58.3205C12.5236 50.1722 18.4659 42.9766 26.5597 42.1008L26.8721 42.0703L61.0733 39.078Z" fill="#FFA896"/><g id="Path"><path id="Mask" fill-rule="evenodd" clip-rule="evenodd" d="M132.419 20.7903C141.222 20.0201 148.983 26.5319 149.753 35.3349C150.523 44.1378 144.011 51.8983 135.208 52.6685C126.405 53.4386 118.645 46.9268 117.874 38.1239C117.104 29.3209 123.616 21.5604 132.419 20.7903Z" fill="#006AD6"/><mask id="mask0_116_42901f3a1041e-f8d4-46ae-bed5-0b7ce790356e" style="mask-type:alpha" maskUnits="userSpaceOnUse" x="117" y="20" width="33" height="33" fill="#ffffff"><path id="Mask_2" fill-rule="evenodd" clip-rule="evenodd" d="M132.419 20.7903C141.222 20.0201 148.983 26.5319 149.753 35.3349C150.523 44.1378 144.011 51.8983 135.208 52.6685C126.405 53.4386 118.645 46.9268 117.874 38.1239C117.104 29.3209 123.616 21.5604 132.419 20.7903Z" fill="#ffffff"/></mask><g mask="url(#mask0_116_42901f3a1041e-f8d4-46ae-bed5-0b7ce790356e)"><path id="Combined Shape" fill-rule="evenodd" clip-rule="evenodd" d="M147.179 21.3343L141.051 16.192L116.507 45.4425L122.635 50.5848L147.179 21.3343ZM152.759 29.7083L146.631 24.566L122.087 53.8165L128.215 58.9588L152.759 29.7083Z" fill="white" fill-opacity="0.5"/></g></g><g id="Path_2"><path id="Mask_3" fill-rule="evenodd" clip-rule="evenodd" d="M83.6056 25.0609C92.4086 24.2907 100.169 30.8026 100.939 39.6055C101.709 48.4084 95.1975 56.169 86.3946 56.9391C77.5917 57.7093 69.8312 51.1974 69.061 42.3945C68.2908 33.5916 74.8027 25.831 83.6056 25.0609Z" fill="#006AD6"/><g id="Intersect"><path d="M95.6361 29.047C93.582 27.2199 91.0627 25.9214 88.3031 25.3403L70.1519 46.9722C71.2033 49.589 72.9195 51.8445 75.0756 53.5501L95.6361 29.047Z" fill="white" fill-opacity="0.5"/><path d="M84.7871 56.9998C81.7406 56.9629 78.8686 56.0613 76.4307 54.5127L96.8194 30.2144C98.7678 32.3464 100.154 35.0182 100.72 38.012L84.7871 56.9998Z" fill="white" fill-opacity="0.5"/></g></g></g></g></g><g id="Torso"><mask id="mask0_116_439304e426bcf-1e5b-4785-93d8-e6077a58f537" style="mask-type:alpha" maskUnits="userSpaceOnUse" x="0" y="372" width="1400" height="928" fill="#ffffff"><rect id="Mask" y="372" width="1400" height="928" fill="#ffffff"/></mask><g mask="url(#mask0_116_439304e426bcf-1e5b-4785-93d8-e6077a58f537)"><g id="Upper Body" transform="translate(100 660) scale(1 1)"><g id="Upper Body/Scrubs 1"><g id="Group"><path id="Scrubs" fill-rule="evenodd" clip-rule="evenodd" d="M600.999 127L589.665 198.683L524.999 124L430.999 172.06C394.726 190.762 368.61 224.94 359.156 264.64L350.969 299.019L408.96 314.478L384.999 640L739.466 638.285L717.183 304.452L763.757 287.375L757.97 250.655C752.874 218.32 732.275 190.526 702.821 176.243L600.999 127Z" fill="#52D6C0"/><path id="Stroke 12" d="M553.687 150.777L621.489 229.504L615.427 234.725L547.625 155.998L553.687 150.777Z" fill="black"/><g id="Clipboard"><path id="Fill 14" fill-rule="evenodd" clip-rule="evenodd" d="M543.866 265.436L538.023 262.534C530.61 258.852 521.799 259.391 514.89 263.948L467.813 295.001C460.904 299.559 456.941 307.446 457.408 315.71L457.775 322.224L543.866 265.436Z" fill="#C7CBD1"/><path id="Fill 16" fill-rule="evenodd" clip-rule="evenodd" d="M702.132 474.171L584.463 551.789C579.657 554.959 573.192 553.632 570.022 548.827L437.575 348.037C434.406 343.232 435.732 336.766 440.537 333.597L558.207 255.979C563.012 252.809 569.477 254.135 572.647 258.94L705.093 459.731C708.263 464.536 706.937 471.001 702.132 474.171" fill="#AF8358"/><path id="Combined Shape" fill-rule="evenodd" clip-rule="evenodd" d="M534.187 276.614L529.782 269.936L468 310.689L472.405 317.367L483.323 310.165L487.339 312.705C494.808 317.43 504.287 317.584 511.901 313.113L512.286 312.882C519.989 308.142 524.302 299.472 523.442 290.51L522.827 284.107L534.187 276.614ZM490.649 305.332L515.268 289.093L515.479 291.274C516.047 297.198 513.196 302.929 508.128 306.047L507.814 306.236L507.487 306.423C502.546 309.164 496.445 309 491.616 305.945L490.649 305.332Z" fill="black"/></g><path id="Hand" fill-rule="evenodd" clip-rule="evenodd" d="M615.884 298.85C595.767 305.221 540.98 341.71 540.98 341.71L577.018 403.742C577.018 403.742 626.166 394.183 642.706 372.277C650.138 362.436 648.518 351.296 627.954 325.338C642.998 313.715 636.001 292.479 615.884 298.85" fill="#CCB2FF"/><path id="Sleeve" fill-rule="evenodd" clip-rule="evenodd" d="M540.98 341.711L436.966 403.614L445.941 360.722L437.574 348.037C434.404 343.231 435.73 336.766 440.536 333.596L452.089 325.975L358.305 300.974C358.305 300.974 321.206 460.537 362.526 500.384C416.502 552.436 582.597 427.406 582.597 427.406C582.597 427.406 579.168 375.322 540.98 341.711" fill="#EFEED8"/><path id="Hand_2" fill-rule="evenodd" clip-rule="evenodd" d="M848.216 171.876C854.974 155.26 848.677 145.022 832.538 141.852C818.981 139.189 802.378 162.358 795.187 175.013C794.01 176.685 792.957 178.592 792.049 180.758C792.036 180.781 792.031 180.793 792.031 180.793L792.034 180.792C789.333 187.251 787.926 196.005 788.447 207.74C791.13 268.178 821.41 269.17 821.41 269.17L844.99 272.645L847.223 247.081C847.223 247.081 867.824 234.919 877.256 213.822C886.687 192.725 862.364 178.081 848.216 171.876V171.876Z" fill="#CCB2FF"/><g id="Pen"><path id="Fill 26" fill-rule="evenodd" clip-rule="evenodd" d="M883.667 236.57L745.965 153.581C739.134 149.465 736.934 140.59 741.051 133.759V133.759C742.636 131.129 746.052 130.282 748.681 131.867L893.991 219.44C908.049 227.913 920.65 238.597 931.309 251.081L931.329 251.105C932.745 252.764 931.234 255.27 929.106 254.793L929.076 254.786C913.059 251.194 897.726 245.043 883.667 236.57" fill="#C7CBD1"/><path id="Fill 28" fill-rule="evenodd" clip-rule="evenodd" d="M878.839 210.308L760.863 139.207L750.539 156.337L868.516 227.438L878.839 210.308Z" fill="#7D95B7"/><path id="Fill 30" fill-rule="evenodd" clip-rule="evenodd" d="M911.568 231.796C906.016 227.277 900.144 223.147 893.993 219.44L878.84 210.307L868.516 227.437L883.67 236.569C889.82 240.276 896.215 243.539 902.805 246.337L911.568 231.796Z" fill="#406189"/><path id="Stroke 32" d="M758.368 129.53L785.801 146.063C791.003 149.2 792.68 155.96 789.544 161.163C786.46 166.279 779.872 167.984 774.706 165.059L774.445 164.906L747.012 148.373L751.141 141.521L778.574 158.054C779.993 158.909 781.837 158.452 782.692 157.034C783.516 155.667 783.122 153.907 781.824 153.014L781.671 152.915L754.239 136.382L758.368 129.53Z" fill="black"/></g><path id="Hand_3" fill-rule="evenodd" clip-rule="evenodd" d="M786.91 265.447L791.626 240.875L789.117 214.731C787.785 200.854 795.077 187.575 807.501 181.252L823.812 172.951C827.476 171.086 831.938 171.93 834.668 175.004C838.021 178.78 837.63 184.571 833.799 187.861L816.294 202.895C826.73 217.306 830.171 235.631 825.674 252.846L821.41 269.17L786.91 265.447Z" fill="#CCB2FF"/><path id="Stroke 36" d="M821.997 169.386C827.283 166.696 833.72 167.913 837.659 172.348C842.422 177.711 841.948 185.893 836.657 190.674L836.405 190.895L821.611 203.6L821.661 203.679C831.01 218.354 833.953 236.277 829.701 253.245L829.544 253.858L821.804 251.836C825.947 235.973 822.866 219.1 813.407 205.734L813.054 205.241L810.895 202.259L831.193 184.826C833.328 182.993 833.546 179.765 831.677 177.66C830.208 176.006 827.839 175.51 825.839 176.414L825.626 176.516L809.315 184.817C798.483 190.33 792.074 201.836 793.061 213.922L793.099 214.349L785.135 215.113C783.661 199.755 791.636 185.053 805.272 177.901L805.687 177.687L821.997 169.386Z" fill="black"/><path id="Sleeve_2" fill-rule="evenodd" clip-rule="evenodd" d="M782.128 259.431L767.638 350.713L757.842 289.544L717.184 304.452L734.682 491.102C745.174 499.892 759.048 504.419 776.953 506.27C839.568 512.742 839.568 368.102 858.715 272.886C829.736 255.291 782.128 259.431 782.128 259.431" fill="#EFEED8"/><path id="Stroke 40" d="M723.989 635.5V643.5H400V635.5H723.989Z" fill="black"/><path id="Stroke 44" d="M709.539 261.234L717.519 260.662L735.4 510.184L727.421 510.755L709.539 261.234Z" fill="black"/><path id="Stroke 46" d="M542.372 336.228L546.464 343.102L428.435 413.347L424.344 406.472L542.372 336.228Z" fill="black"/><path id="Stroke 48" d="M769.053 316.277L776.954 317.531L765.042 392.577L757.141 391.323L769.053 316.277Z" fill="black"/></g></g></g></g></g></g></g><g id="Furniture" transform="translate(1800 0) scale(1 1)"><g id="Furniture/Sign"><g id="Stand"><path id="Rectangle" fill-rule="evenodd" clip-rule="evenodd" d="M428.885 1960.56C442.771 1953.61 458.082 1950 473.607 1950H738.968C757.093 1950 774.876 1954.93 790.418 1964.25L819.042 1981.43C827.739 1986.64 824.039 2000 813.897 2000H392.361C381.808 2000 378.45 1985.77 387.889 1981.06L428.885 1960.56Z" fill="#CCB465"/><rect id="Rectangle_2" x="580" y="1350" width="40" height="600" fill="#CCB465"/><rect id="Rectangle Copy" x="250" y="750" width="700" height="600" rx="40" fill="#E7D6A0"/><rect id="Stand Background" x="300" y="800" width="600" height="500" fill="#406080"/><g id="Object"><g id="Group 20"><path id="Fill 1" fill-rule="evenodd" clip-rule="evenodd" d="M577.938 942.736L574.835 927.471C590.752 924.236 607.345 924.176 623.409 927.299L623.769 927.378L622.145 934.036L620.513 942.605L620.437 942.588V942.59C606.37 939.855 591.86 939.903 577.938 942.736V942.736ZM690.033 988.659C681.968 976.701 671.814 966.616 659.85 958.687L668.456 945.704C682.13 954.768 693.734 966.289 702.947 979.951L690.033 988.659ZM508.724 989.365L495.745 980.754C504.814 967.084 516.341 955.484 530.005 946.278L538.709 959.195C526.748 967.254 516.659 977.405 508.724 989.365V989.365ZM721.913 1073.6L706.628 1070.6L706.67 1070.39C708.007 1063.51 708.688 1056.47 708.688 1049.49C708.688 1042.25 707.955 1034.98 706.509 1027.88L721.771 1024.77C723.426 1032.89 724.265 1041.21 724.265 1049.49C724.265 1057.47 723.487 1065.51 721.954 1073.4L721.913 1073.6ZM477.473 1074.37C475.833 1066.28 475 1058 475 1049.75C475 1041.77 475.778 1033.73 477.311 1025.84L492.625 1028.69L492.593 1028.86C491.258 1035.73 490.576 1042.77 490.576 1049.75C490.576 1056.96 491.304 1064.2 492.738 1071.27L477.473 1074.37ZM669.173 1153.02L660.481 1140.1C672.449 1132.05 682.546 1121.91 690.491 1109.95L703.463 1118.58C694.382 1132.24 682.845 1143.83 669.173 1153.02V1153.02ZM530.722 1153.48C517.056 1144.4 505.461 1132.87 496.26 1119.2L509.181 1110.51C517.237 1122.47 527.382 1132.56 539.338 1140.5L530.722 1153.48ZM599.761 1174.25C591.788 1174.25 583.745 1173.48 575.855 1171.94L575.731 1171.92L578.667 1156.62L578.81 1156.65C592.892 1159.39 607.35 1159.34 621.237 1156.52L624.329 1171.79C616.261 1173.42 607.995 1174.25 599.761 1174.25V1174.25Z" fill="#DBDD8C"/><path id="Combined Shape" fill-rule="evenodd" clip-rule="evenodd" d="M595.632 1166.45V1059.28L519.855 1135.06L514.198 1129.4L589.976 1053.63H482.81V1045.63H589.976L514.198 969.849L519.855 964.192L595.632 1039.97V932.804H603.632V1039.97L679.41 964.192L685.067 969.849L609.289 1045.63H716.455V1053.63H609.289L685.067 1129.4L679.41 1135.06L603.632 1059.28V1166.45H595.632Z" fill="black"/><path id="Fill 12" fill-rule="evenodd" clip-rule="evenodd" d="M685.302 1049.63C685.302 1002.31 646.946 963.957 599.632 963.957C552.318 963.957 513.962 1002.31 513.962 1049.63C513.962 1096.94 552.318 1135.3 599.632 1135.3C646.946 1135.3 685.302 1096.94 685.302 1049.63" fill="#A4CE9F"/><path id="Stroke 14" fill-rule="evenodd" clip-rule="evenodd" d="M623.837 1051.23C623.837 1046.93 620.35 1043.44 616.049 1043.44C611.748 1043.44 608.261 1046.93 608.261 1051.23C608.261 1055.53 611.748 1059.02 616.049 1059.02C620.35 1059.02 623.837 1055.53 623.837 1051.23Z" fill="#7EAA77"/><path id="Stroke 16" fill-rule="evenodd" clip-rule="evenodd" d="M646.067 1088.34C646.067 1079.74 639.092 1072.77 630.49 1072.77C621.888 1072.77 614.914 1079.74 614.914 1088.34C614.914 1096.94 621.888 1103.92 630.49 1103.92C639.092 1103.92 646.067 1096.94 646.067 1088.34Z" fill="#7EAA77"/><path id="Stroke 18" fill-rule="evenodd" clip-rule="evenodd" d="M599.029 1084.6C599.029 1078.15 593.798 1072.92 587.346 1072.92C580.895 1072.92 575.664 1078.15 575.664 1084.6C575.664 1091.05 580.895 1096.28 587.346 1096.28C593.798 1096.28 599.029 1091.05 599.029 1084.6Z" fill="#7EAA77"/></g><g id="SCALABLE"><rect id="Rectangle_3" x="350" y="800" width="500" height="500" fill="black" fill-opacity="0.01"/></g></g><path id="Path" d="M650 1346.5V1354.5H550V1346.5H650Z" fill="black"/></g></g></g></g></svg>