<svg viewBox="75 41.353383458646476 2924.999999999999 1992.481203007519" fill="none" xmlns="http://www.w3.org/2000/svg" xmlns:xlink="http://www.w3.org/1999/xlink" overflow="visible" width="2924.999999999999px" height="1992.481203007519px"><g id="Master/Scene/One on One"><g id="Furniture" transform="translate(1800 0) scale(1 1)"><g id="Furniture/UI Window"><g id="UI Window"><path id="Window" fill-rule="evenodd" clip-rule="evenodd" d="M0 1127C0 1132.52 4.47715 1137 10 1137H1190C1195.52 1137 1200 1132.52 1200 1127V214C1200 191.909 1182.09 174 1160 174H40C17.9086 174 0 191.909 0 214V1127Z" fill="#DAE6EB"/><circle id="Oval" cx="50" cy="214" r="20" fill="#FFB4B4"/><circle id="Oval Copy" cx="110" cy="214" r="20" fill="#FFDB9F"/><circle id="Oval Copy 2" cx="170" cy="214" r="20" fill="#83D5AA"/><path id="Oval Copy 5" fill-rule="evenodd" clip-rule="evenodd" d="M70 214C70 202.954 61.0457 194 50 194C38.9543 194 30 202.954 30 214C30 225.046 38.9543 234 50 234C61.0457 234 70 225.046 70 214ZM38 214C38 207.373 43.3726 202 50 202C56.6274 202 62 207.373 62 214C62 220.627 56.6274 226 50 226C43.3726 226 38 220.627 38 214Z" fill="white"/><path id="Oval Copy 4" fill-rule="evenodd" clip-rule="evenodd" d="M130 214C130 202.954 121.046 194 110 194C98.9543 194 90 202.954 90 214C90 225.046 98.9543 234 110 234C121.046 234 130 225.046 130 214ZM98 214C98 207.373 103.373 202 110 202C116.627 202 122 207.373 122 214C122 220.627 116.627 226 110 226C103.373 226 98 220.627 98 214Z" fill="white"/><path id="Oval Copy 3" fill-rule="evenodd" clip-rule="evenodd" d="M190 214C190 202.954 181.046 194 170 194C158.954 194 150 202.954 150 214C150 225.046 158.954 234 170 234C181.046 234 190 225.046 190 214ZM158 214C158 207.373 163.373 202 170 202C176.627 202 182 207.373 182 214C182 220.627 176.627 226 170 226C163.373 226 158 220.627 158 214Z" fill="white"/><g id="Cursor"><g id="Object 1"><path id="Mask" fill-rule="evenodd" clip-rule="evenodd" d="M50 654C50 665.046 58.9543 674 70 674H430C441.046 674 450 665.046 450 654V294C450 282.954 441.046 274 430 274H70C58.9543 274 50 282.954 50 294V654Z" fill="#5C9970"/><mask id="mask0_116_43330ad513a1e-232d-4ce2-8656-9af07320c79e" style="mask-type:alpha" maskUnits="userSpaceOnUse" x="50" y="274" width="400" height="400" fill="#ffffff"><path id="Mask_2" fill-rule="evenodd" clip-rule="evenodd" d="M50 654C50 665.046 58.9543 674 70 674H430C441.046 674 450 665.046 450 654V294C450 282.954 441.046 274 430 274H70C58.9543 274 50 282.954 50 294V654Z" fill="#ffffff"/></mask><g mask="url(#mask0_116_43330ad513a1e-232d-4ce2-8656-9af07320c79e)"><g id="Object1"><g id="Group"><rect id="Rectangle" x="300" y="424" width="100" height="100" rx="10" transform="rotate(90 300 424)" fill="#EFA8B7"/><path id="Rectangle Copy" d="M357.143 431.143C380.812 431.143 400 450.331 400 474V474C400 497.67 380.812 516.857 357.143 516.857H300V431.143H357.143Z" fill="#F4CCD4"/><path id="Rectangle Copy 2" d="M200 431.143V516.857H142.857C119.188 516.857 100 497.67 100 474V474C100 450.331 119.188 431.143 142.857 431.143H200Z" fill="#F4CCD4"/><circle id="Oval_2" cx="221.428" cy="502.572" r="7.14286" transform="rotate(90 221.428 502.572)" fill="black"/><circle id="Oval Copy_2" cx="221.428" cy="474" r="7.14286" transform="rotate(90 221.428 474)" fill="black"/><circle id="Oval Copy 2_2" cx="250" cy="502.572" r="7.14286" transform="rotate(90 250 502.572)" fill="black"/></g><g id="SCALABLE"><rect id="Rectangle_2" y="224" width="500" height="500" fill="black" fill-opacity="0.01"/></g></g></g></g><g id="Object 4"><path id="Mask_3" fill-rule="evenodd" clip-rule="evenodd" d="M750 1074C750 1085.05 758.954 1094 770 1094H1130C1141.05 1094 1150 1085.05 1150 1074V714C1150 702.954 1141.05 694 1130 694H770C758.954 694 750 702.954 750 714V1074Z" fill="#CC6666"/><mask id="mask1_116_43330ad513a1e-232d-4ce2-8656-9af07320c79e" style="mask-type:alpha" maskUnits="userSpaceOnUse" x="750" y="694" width="400" height="400" fill="#ffffff"><path id="Mask_4" fill-rule="evenodd" clip-rule="evenodd" d="M750 1074C750 1085.05 758.954 1094 770 1094H1130C1141.05 1094 1150 1085.05 1150 1074V714C1150 702.954 1141.05 694 1130 694H770C758.954 694 750 702.954 750 714V1074Z" fill="#ffffff"/></mask><g mask="url(#mask1_116_43330ad513a1e-232d-4ce2-8656-9af07320c79e)"><g id="Object1_2"><g id="Group_2"><path id="Rectangle_3" fill-rule="evenodd" clip-rule="evenodd" d="M900 964C900 948.262 907.41 933.443 920 924V924C932.59 914.557 940 899.738 940 884V789H960V884C960 899.738 967.41 914.557 980 924V924C992.59 933.443 1000 948.262 1000 964V1119C1000 1130.05 991.046 1139 980 1139H920C908.954 1139 900 1130.05 900 1119V964Z" fill="#DAE6EB"/><rect id="Rectangle_4" x="925" y="1009" width="50" height="100" rx="5" fill="white"/><path id="Rectangle_5" d="M940 760C940 754.477 944.477 750 950 750V750C955.523 750 960 754.477 960 760V790H940V760Z" fill="#56B2CE"/><path id="Combined Shape" fill-rule="evenodd" clip-rule="evenodd" d="M954 1020V1030H964V1038H954V1048H946V1038H936V1030H946V1020H954ZM964 1098V1090H936V1098H964Z" fill="#56B2CE"/><path id="Path 41" d="M1004 975V983H896V975H1004Z" fill="black"/></g><g id="SCALABLE_2"><rect id="Rectangle_6" x="700" y="694" width="500" height="500" fill="black" fill-opacity="0.01"/></g></g></g></g><g id="Object 2"><path id="Mask_5" fill-rule="evenodd" clip-rule="evenodd" d="M470 654C470 665.046 478.954 674 490 674H1130C1141.05 674 1150 665.046 1150 654V294C1150 282.954 1141.05 274 1130 274H490C478.954 274 470 282.954 470 294V654Z" fill="#A04687"/><mask id="mask2_116_43330ad513a1e-232d-4ce2-8656-9af07320c79e" style="mask-type:alpha" maskUnits="userSpaceOnUse" x="470" y="274" width="680" height="400" fill="#ffffff"><path id="Mask_6" fill-rule="evenodd" clip-rule="evenodd" d="M470 654C470 665.046 478.954 674 490 674H1130C1141.05 674 1150 665.046 1150 654V294C1150 282.954 1141.05 274 1130 274H490C478.954 274 470 282.954 470 294V654Z" fill="#ffffff"/></mask><g mask="url(#mask2_116_43330ad513a1e-232d-4ce2-8656-9af07320c79e)"><g id="Object1_3"><g id="Group_3"><path id="Fill 1" fill-rule="evenodd" clip-rule="evenodd" d="M736.496 364.973L718.307 390.95L698.824 377.308C691.651 372.285 689.907 362.397 694.93 355.224C699.952 348.051 709.84 346.308 717.014 351.331L736.496 364.973Z" fill="#EDEDDD"/><path id="Fill 4" fill-rule="evenodd" clip-rule="evenodd" d="M759.873 400.697V400.697C754.85 407.871 744.963 409.614 737.791 404.592L718.307 390.949L736.496 364.973L755.979 378.616C763.152 383.638 764.896 393.524 759.873 400.697" fill="#FFA896"/></g><g id="Group Copy 4"><path id="Fill 1_2" fill-rule="evenodd" clip-rule="evenodd" d="M886.922 452.413L909.346 429.99L926.163 446.807C932.356 453 932.356 463.04 926.163 469.233C919.972 475.424 909.932 475.423 903.74 469.231L886.922 452.413Z" fill="#EDEDDD"/><path id="Fill 4_2" fill-rule="evenodd" clip-rule="evenodd" d="M870.104 413.172V413.172C876.296 406.98 886.335 406.98 892.527 413.172L909.345 429.99L886.922 452.413L870.104 435.595C863.912 429.403 863.911 419.365 870.104 413.172" fill="#FFA896"/></g><g id="Group Copy"><path id="Fill 1_3" fill-rule="evenodd" clip-rule="evenodd" d="M707.243 553.675L738.473 559.181L734.343 582.604C732.822 591.228 724.597 596.987 715.973 595.467C707.35 593.946 701.592 585.721 703.113 577.097L707.243 553.675Z" fill="#EDEDDD"/><path id="Fill 4_3" fill-rule="evenodd" clip-rule="evenodd" d="M729.74 517.39V517.39C738.364 518.911 744.123 527.135 742.602 535.758L738.472 559.182L707.243 553.675L711.373 530.251C712.894 521.628 721.117 515.87 729.74 517.39" fill="#73C8FF"/></g><g id="Group Copy 5"><path id="Fill 1_4" fill-rule="evenodd" clip-rule="evenodd" d="M825.419 467.337V499.049H801.635C792.878 499.049 785.778 491.949 785.778 483.192C785.778 474.436 792.878 467.337 801.635 467.337H825.419Z" fill="#EDEDDD"/><path id="Fill 4_4" fill-rule="evenodd" clip-rule="evenodd" d="M865.059 483.193V483.193C865.059 491.95 857.96 499.049 849.204 499.049H825.419V467.338H849.204C857.96 467.338 865.059 474.436 865.059 483.193" fill="#73C8FF"/></g><g id="Group Copy 2"><path id="Fill 1_5" fill-rule="evenodd" clip-rule="evenodd" d="M718.191 482.133L709.984 451.502L732.957 445.346C741.416 443.079 750.112 448.1 752.378 456.558C754.644 465.016 749.624 473.711 741.165 475.977L718.191 482.133Z" fill="#FFA896"/><path id="Fill 4_5" fill-rule="evenodd" clip-rule="evenodd" d="M675.799 477.077V477.077C673.532 468.619 678.552 459.924 687.01 457.658L709.984 451.502L718.192 482.132L695.217 488.288C686.76 490.555 678.065 485.536 675.799 477.077" fill="#FFEBA1"/></g><g id="Group Copy 6"><path id="Fill 1_6" fill-rule="evenodd" clip-rule="evenodd" d="M898.511 530.225L922.804 550.609L907.516 568.829C901.887 575.537 891.884 576.412 885.176 570.783C878.469 565.155 877.594 555.153 883.223 548.445L898.511 530.225Z" fill="#FFA896"/><path id="Fill 4_6" fill-rule="evenodd" clip-rule="evenodd" d="M936.137 510.051V510.051C942.845 515.68 943.72 525.682 938.092 532.389L922.803 550.609L898.511 530.226L913.8 512.006C919.428 505.298 929.429 504.422 936.137 510.051" fill="#FFEBA1"/></g><g id="Group Copy 3"><path id="Fill 1_7" fill-rule="evenodd" clip-rule="evenodd" d="M837.142 400.906L814.718 378.482L831.536 361.664C837.728 355.472 847.769 355.472 853.961 361.664C860.153 367.856 860.152 377.896 853.96 384.088L837.142 400.906Z" fill="#D0DDDF"/><path id="Fill 4_7" fill-rule="evenodd" clip-rule="evenodd" d="M797.901 417.724V417.724C791.709 411.532 791.709 401.492 797.9 395.301L814.719 378.482L837.142 400.905L820.323 417.724C814.132 423.915 804.093 423.916 797.901 417.724" fill="#EDEDDD"/></g><g id="Group Copy 7"><path id="Fill 1_8" fill-rule="evenodd" clip-rule="evenodd" d="M819.563 557.397L803.23 584.579L782.843 572.33C775.337 567.819 772.908 558.077 777.418 550.57C781.928 543.065 791.67 540.637 799.176 545.147L819.563 557.397Z" fill="#D0DDDF"/><path id="Fill 4_8" fill-rule="evenodd" clip-rule="evenodd" d="M845.375 591.403V591.403C840.864 598.91 831.123 601.338 823.618 596.829L803.23 584.579L819.562 557.397L839.95 569.647C847.455 574.157 849.885 583.897 845.375 591.403" fill="#EDEDDD"/></g><g id="SCALABLE_3"><rect id="Rectangle_7" x="560" y="224" width="500" height="500" fill="black" fill-opacity="0.01"/></g></g></g></g><g id="Object 3"><path id="Mask_7" fill-rule="evenodd" clip-rule="evenodd" d="M50 1074C50 1085.05 58.9543 1094 70 1094H710C721.046 1094 730 1085.05 730 1074V714C730 702.954 721.046 694 710 694H70C58.9543 694 50 702.954 50 714V1074Z" fill="#406080"/><mask id="mask3_116_43330ad513a1e-232d-4ce2-8656-9af07320c79e" style="mask-type:alpha" maskUnits="userSpaceOnUse" x="50" y="694" width="680" height="400" fill="#ffffff"><path id="Mask_8" fill-rule="evenodd" clip-rule="evenodd" d="M50 1074C50 1085.05 58.9543 1094 70 1094H710C721.046 1094 730 1085.05 730 1074V714C730 702.954 721.046 694 710 694H70C58.9543 694 50 702.954 50 714V1074Z" fill="#ffffff"/></mask><g mask="url(#mask3_116_43330ad513a1e-232d-4ce2-8656-9af07320c79e)"><g id="Object1_4"><g id="Group_4"><path id="Path 43" fill-rule="evenodd" clip-rule="evenodd" d="M410 917V917C398.8 929.445 394.786 946.775 399.375 962.877L400.414 966.521C401.424 970.065 398.762 973.592 395.077 973.592H364.429V916.592L410 917Z" fill="#56B2CE"/><g id="Path 44"><path id="Mask_9" fill-rule="evenodd" clip-rule="evenodd" d="M322.429 836.592H485.826C498.834 836.592 508.38 848.813 505.231 861.433L493.32 909.175C492.209 913.629 488.208 916.754 483.618 916.754H410.812C397.046 916.754 385.046 926.123 381.708 939.478L356.413 1040.66C354.176 1049.6 345.351 1055.25 336.29 1053.54V1053.54C300.823 1046.83 278.932 1010.93 289.21 976.327L296.604 951.433C299.14 942.897 295.3 933.757 287.429 929.592V929.592L322.429 836.592Z" fill="#DAE6EB"/><circle id="Oval_3" cx="352.429" cy="866.592" r="10" fill="#A4CE9F"/><circle id="Oval Copy_3" cx="392.429" cy="866.592" r="10" fill="white"/><circle id="Oval Copy 2_3" cx="432.429" cy="866.592" r="10" fill="white"/><path id="Oval Copy 5_2" fill-rule="evenodd" clip-rule="evenodd" d="M338.429 866.592C338.429 858.86 344.697 852.592 352.429 852.592C360.161 852.592 366.429 858.86 366.429 866.592C366.429 874.324 360.161 880.592 352.429 880.592C344.697 880.592 338.429 874.324 338.429 866.592ZM362.429 866.592C362.429 861.069 357.952 856.592 352.429 856.592C346.906 856.592 342.429 861.069 342.429 866.592C342.429 872.115 346.906 876.592 352.429 876.592C357.952 876.592 362.429 872.115 362.429 866.592Z" fill="white"/><path id="Oval Copy 4_2" fill-rule="evenodd" clip-rule="evenodd" d="M378.429 866.592C378.429 858.86 384.697 852.592 392.429 852.592C400.161 852.592 406.429 858.86 406.429 866.592C406.429 874.324 400.161 880.592 392.429 880.592C384.697 880.592 378.429 874.324 378.429 866.592ZM402.429 866.592C402.429 861.069 397.952 856.592 392.429 856.592C386.906 856.592 382.429 861.069 382.429 866.592C382.429 872.115 386.906 876.592 392.429 876.592C397.952 876.592 402.429 872.115 402.429 866.592Z" fill="white"/><path id="Oval Copy 3_2" fill-rule="evenodd" clip-rule="evenodd" d="M418.429 866.592C418.429 858.86 424.697 852.592 432.429 852.592C440.161 852.592 446.429 858.86 446.429 866.592C446.429 874.324 440.161 880.592 432.429 880.592C424.697 880.592 418.429 874.324 418.429 866.592ZM442.429 866.592C442.429 861.069 437.952 856.592 432.429 856.592C426.906 856.592 422.429 861.069 422.429 866.592C422.429 872.115 426.906 876.592 432.429 876.592C437.952 876.592 442.429 872.115 442.429 866.592Z" fill="white"/><path id="Path 44_2" fill-rule="evenodd" clip-rule="evenodd" d="M487.429 830.592L462.429 926.592H500.429L525.429 830.592H487.429Z" fill="#6F858E"/></g><path id="Path 42" fill-rule="evenodd" clip-rule="evenodd" d="M301.938 834.232C302.914 831.654 305.79 830.352 308.37 831.32L322.429 836.592L287.429 929.592L273.23 924.214C270.648 923.236 269.347 920.351 270.324 917.769L301.938 834.232Z" fill="#56B2CE"/><path id="Path 45" d="M475.564 861.714L483.307 863.727L471.246 910.115C469.669 916.178 464.263 920.443 458.026 920.588L457.697 920.592H394.799C374.186 920.592 356.117 934.299 350.531 954.088L350.365 954.69L329.258 1033.49L321.53 1031.42L342.638 952.62C348.898 929.246 369.93 912.921 394.066 912.597L394.799 912.592H457.697C460.346 912.592 462.671 910.856 463.436 908.34L463.503 908.101L475.564 861.714Z" fill="black"/></g><g id="SCALABLE_4"><rect id="Rectangle_8" x="140" y="694" width="500" height="500" fill="black" fill-opacity="0.01"/></g></g></g></g><g id="Group_5"><path id="Cursor_2" d="M284.967 620.967L391.033 656.322L366.927 680.428L402.282 715.784L379.783 738.282L344.428 702.927L320.322 727.033L284.967 620.967Z" fill="black"/><path id="Cursor_3" fill-rule="evenodd" clip-rule="evenodd" d="M280.39 613.918L400.186 653.85L374.332 679.704L409.687 715.059L381.531 743.215L346.175 707.86L320.322 733.714L280.39 613.918ZM385.376 657.346L293.039 626.566L323.817 718.905L346.176 696.546L381.531 731.902L398.373 715.059L363.018 679.704L385.376 657.346Z" fill="white"/></g></g></g></g></g><g id="Master/Character/Sitting" transform="translate(0 200) scale(1 1)"><g id="Master/Character/Sitting"><g id="Chair" transform="translate(100 800) scale(1 1)"><g id="Chair/Wooden"><path id="Chair back" fill-rule="evenodd" clip-rule="evenodd" d="M927.228 677.299H620.956C613.032 677.299 607.64 669.262 610.648 661.932L650.658 564.473L936.736 544.771V500.216H508.138V544.771L581.432 560.303L536.068 677.299H508.143L433.164 604.571L443.774 173.952C444.143 158.861 432.09 146.514 416.99 146.514C364.025 135.543 309.411 135.171 256.302 145.421L249.092 146.812C233.061 149.905 221.611 164.123 222.01 180.44L230.903 540.85C231.901 581.691 248.892 620.509 278.221 648.958L376.341 744.132H425.263H512.165L411 1000H466.712L576.903 744.132H577.043H874.085L944.288 999H1000L927.228 677.299Z" fill="#C4A182"/><path id="Fill 21" fill-rule="evenodd" clip-rule="evenodd" d="M912 970C912 986.569 925.431 1000 942 1000H1074.87C1096.06 1000 1102.7 971.382 1083.69 962.047L996 919H912V970Z" fill="#DBDAC6"/><path id="Fill 21_2" fill-rule="evenodd" clip-rule="evenodd" d="M686.73 962.471C681.805 981.468 696.145 1000 715.77 1000H861.405C882.615 1000 889.238 971.327 870.176 962.026L782 919H698L686.73 962.471Z" fill="#DBDAC6"/><path id="Fill 27" fill-rule="evenodd" clip-rule="evenodd" d="M951.698 652.747C929.715 563.113 849.252 500.16 756.962 500.388L468 501.101V564.729C468 626.164 517.888 675.965 579.43 675.965H835.169L902.229 919H1017L951.698 652.747Z" fill="#696089"/><path id="Fill 29" fill-rule="evenodd" clip-rule="evenodd" d="M901.326 679.434C927.644 589.782 860.429 500 766.995 500L380 500V564.867C380 626.277 429.862 676.059 491.371 676.059H746.975L698.003 919H831L901.326 679.434Z" fill="#696089"/><path id="Path 11" d="M884.899 572.512C909.519 603.505 916.735 638.803 906.489 678.011L905.572 681.496C895.663 718.861 878.59 774.852 854.344 849.499L852.804 854.238L845.196 851.762L848.253 842.35C872.406 767.843 889.24 712.379 898.749 675.989C908.267 639.566 901.81 607.15 879.322 578.36L878.635 577.488L884.899 572.512Z" fill="black"/><g id="Chair front"><path id="Chair" fill-rule="evenodd" clip-rule="evenodd" d="M715.905 677.161H409.504C401.576 677.161 396.182 669.119 399.191 661.787L439.218 564.286L737.08 548.706V500H296.637V544.575L369.963 560.114L199.792 999H255.527L365.431 744.022H662.739L733 1000H788.735L715.905 677.161Z" fill="#AF8358"/><path id="Stroke 7" d="M765.665 672.194L765.679 680.194L410.126 680.807L410.112 672.807L765.665 672.194Z" fill="black"/></g></g></g><g id="Head"><path id="Head_2" fill-rule="evenodd" clip-rule="evenodd" d="M734.493 638.499C743.106 682.758 758.903 756.72 673 762.645C608.349 767.103 595.122 705.336 589 670.645C580 619.645 597 585.645 645 574.645C710.358 559.666 729.339 612.016 734.493 638.499" fill="#CCB2FF"/><path id="Neck" fill-rule="evenodd" clip-rule="evenodd" d="M701 789V744H627L625 786L561 818.645L598.2 851.967C639.318 888.8 702.503 885.347 739.363 844.253L762.333 818.645L701 789Z" fill="#CCB2FF"/></g><g id="Hair" transform="translate(404 378) scale(1 1)"><g id="Hair/Curly Short"><path id="Hair" fill-rule="evenodd" clip-rule="evenodd" d="M329.244 231.007C373.293 231.007 409 195.322 409 151.302C409 107.284 373.293 71.5983 329.244 71.5983C295.312 71.5983 266.348 92.7847 254.826 122.635C247.166 119.284 238.71 117.411 229.812 117.411C195.327 117.411 167.371 145.349 167.371 179.812C167.371 183.301 167.671 186.718 168.222 190.051C136.775 192.445 112 218.683 112 250.722C112 270.497 121.442 288.062 136.06 299.181C128.671 308.512 124.248 320.296 124.248 333.119C124.248 363.356 148.775 387.869 179.032 387.869C183.564 387.869 187.964 387.308 192.175 386.271C192.337 413.541 214.502 435.598 241.827 435.598C269.254 435.598 291.487 413.38 291.487 385.971V228.314L329.244 231.007Z" fill="#CCB2FF"/></g></g><g id="Face" transform="translate(593 622) scale(1 1)"><g id="Face/Joy"><path id="Stroke" d="M138.007 13.7702L145.857 12.2297L147.549 20.8795L148.018 23.3396C150.609 37.0644 152.103 47.4422 152.719 57.8208L152.762 58.5622C153.984 80.6614 150.61 98.5962 141.031 112.508C129.646 129.044 110.034 138.786 81.1511 140.928L80.273 140.991L79.7271 133.009C106.811 131.157 124.441 122.498 134.442 107.972C142.847 95.7644 145.907 79.4963 144.774 59.0041L144.689 57.5786C144.071 47.8319 142.628 37.9089 140.153 24.8041L139.313 20.4283L138.007 13.7702Z" fill="black"/><path id="Eye L" d="M69.4013 37.8925C75.7599 29.6734 86.7922 28.7924 94.8205 35.225C95.8662 36.0629 97.0288 38.0504 97.7932 39.5099C98.3359 40.546 98.1541 41.7953 97.3948 42.6849V42.6849C96.5075 43.7244 95.0332 44.0394 93.7986 43.4534L89.8899 41.5982C89.8899 41.5982 81.7224 38.2058 75.4568 42.0643C74.8108 42.4621 73.5432 43.0065 72.4949 43.4301C71.4567 43.8497 70.2778 43.6503 69.4109 42.9415V42.9415C68.1961 41.9484 67.8875 40.2078 68.7325 38.8856C69.0083 38.4541 69.2561 38.0802 69.4013 37.8925Z" fill="black"/><path id="Eye R" d="M138.033 35.1017C131.253 27.2266 120.19 26.9242 112.51 33.7682C111.509 34.6597 110.452 36.7053 109.765 38.2028C109.277 39.2658 109.524 40.5039 110.329 41.3525V41.3525C111.27 42.3442 112.758 42.5816 113.961 41.9318L117.767 39.8745C117.767 39.8745 125.746 36.0593 132.205 39.5846C132.871 39.9481 134.165 40.4254 135.234 40.7936C136.293 41.1582 137.459 40.8974 138.288 40.1443V40.1443C139.449 39.0889 139.666 37.3345 138.753 36.0584C138.455 35.6419 138.188 35.2815 138.033 35.1017Z" fill="black"/></g></g><g id="Torso"><mask id="mask0_116_439304e426bcf-1e5b-4785-93d8-e6077a58f537" style="mask-type:alpha" maskUnits="userSpaceOnUse" x="0" y="372" width="1400" height="928" fill="#ffffff"><rect id="Mask" y="372" width="1400" height="928" fill="#ffffff"/></mask><g mask="url(#mask0_116_439304e426bcf-1e5b-4785-93d8-e6077a58f537)"><g id="Upper Body" transform="translate(100 660) scale(1 1)"><g id="Upper Body/Scrubs 1"><g id="Group"><path id="Scrubs" fill-rule="evenodd" clip-rule="evenodd" d="M600.999 127L589.665 198.683L524.999 124L430.999 172.06C394.726 190.762 368.61 224.94 359.156 264.64L350.969 299.019L408.96 314.478L384.999 640L739.466 638.285L717.183 304.452L763.757 287.375L757.97 250.655C752.874 218.32 732.275 190.526 702.821 176.243L600.999 127Z" fill="#52D6C0"/><path id="Stroke 12" d="M553.687 150.777L621.489 229.504L615.427 234.725L547.625 155.998L553.687 150.777Z" fill="black"/><g id="Clipboard"><path id="Fill 14" fill-rule="evenodd" clip-rule="evenodd" d="M543.866 265.436L538.023 262.534C530.61 258.852 521.799 259.391 514.89 263.948L467.813 295.001C460.904 299.559 456.941 307.446 457.408 315.71L457.775 322.224L543.866 265.436Z" fill="#C7CBD1"/><path id="Fill 16" fill-rule="evenodd" clip-rule="evenodd" d="M702.132 474.171L584.463 551.789C579.657 554.959 573.192 553.632 570.022 548.827L437.575 348.037C434.406 343.232 435.732 336.766 440.537 333.597L558.207 255.979C563.012 252.809 569.477 254.135 572.647 258.94L705.093 459.731C708.263 464.536 706.937 471.001 702.132 474.171" fill="#AF8358"/><path id="Combined Shape" fill-rule="evenodd" clip-rule="evenodd" d="M534.187 276.614L529.782 269.936L468 310.689L472.405 317.367L483.323 310.165L487.339 312.705C494.808 317.43 504.287 317.584 511.901 313.113L512.286 312.882C519.989 308.142 524.302 299.472 523.442 290.51L522.827 284.107L534.187 276.614ZM490.649 305.332L515.268 289.093L515.479 291.274C516.047 297.198 513.196 302.929 508.128 306.047L507.814 306.236L507.487 306.423C502.546 309.164 496.445 309 491.616 305.945L490.649 305.332Z" fill="black"/></g><path id="Hand" fill-rule="evenodd" clip-rule="evenodd" d="M615.884 298.85C595.767 305.221 540.98 341.71 540.98 341.71L577.018 403.742C577.018 403.742 626.166 394.183 642.706 372.277C650.138 362.436 648.518 351.296 627.954 325.338C642.998 313.715 636.001 292.479 615.884 298.85" fill="#CCB2FF"/><path id="Sleeve" fill-rule="evenodd" clip-rule="evenodd" d="M540.98 341.711L436.966 403.614L445.941 360.722L437.574 348.037C434.404 343.231 435.73 336.766 440.536 333.596L452.089 325.975L358.305 300.974C358.305 300.974 321.206 460.537 362.526 500.384C416.502 552.436 582.597 427.406 582.597 427.406C582.597 427.406 579.168 375.322 540.98 341.711" fill="#EFEED8"/><path id="Hand_2" fill-rule="evenodd" clip-rule="evenodd" d="M848.216 171.876C854.974 155.26 848.677 145.022 832.538 141.852C818.981 139.189 802.378 162.358 795.187 175.013C794.01 176.685 792.957 178.592 792.049 180.758C792.036 180.781 792.031 180.793 792.031 180.793L792.034 180.792C789.333 187.251 787.926 196.005 788.447 207.74C791.13 268.178 821.41 269.17 821.41 269.17L844.99 272.645L847.223 247.081C847.223 247.081 867.824 234.919 877.256 213.822C886.687 192.725 862.364 178.081 848.216 171.876V171.876Z" fill="#CCB2FF"/><g id="Pen"><path id="Fill 26" fill-rule="evenodd" clip-rule="evenodd" d="M883.667 236.57L745.965 153.581C739.134 149.465 736.934 140.59 741.051 133.759V133.759C742.636 131.129 746.052 130.282 748.681 131.867L893.991 219.44C908.049 227.913 920.65 238.597 931.309 251.081L931.329 251.105C932.745 252.764 931.234 255.27 929.106 254.793L929.076 254.786C913.059 251.194 897.726 245.043 883.667 236.57" fill="#C7CBD1"/><path id="Fill 28" fill-rule="evenodd" clip-rule="evenodd" d="M878.839 210.308L760.863 139.207L750.539 156.337L868.516 227.438L878.839 210.308Z" fill="#7D95B7"/><path id="Fill 30" fill-rule="evenodd" clip-rule="evenodd" d="M911.568 231.796C906.016 227.277 900.144 223.147 893.993 219.44L878.84 210.307L868.516 227.437L883.67 236.569C889.82 240.276 896.215 243.539 902.805 246.337L911.568 231.796Z" fill="#406189"/><path id="Stroke 32" d="M758.368 129.53L785.801 146.063C791.003 149.2 792.68 155.96 789.544 161.163C786.46 166.279 779.872 167.984 774.706 165.059L774.445 164.906L747.012 148.373L751.141 141.521L778.574 158.054C779.993 158.909 781.837 158.452 782.692 157.034C783.516 155.667 783.122 153.907 781.824 153.014L781.671 152.915L754.239 136.382L758.368 129.53Z" fill="black"/></g><path id="Hand_3" fill-rule="evenodd" clip-rule="evenodd" d="M786.91 265.447L791.626 240.875L789.117 214.731C787.785 200.854 795.077 187.575 807.501 181.252L823.812 172.951C827.476 171.086 831.938 171.93 834.668 175.004C838.021 178.78 837.63 184.571 833.799 187.861L816.294 202.895C826.73 217.306 830.171 235.631 825.674 252.846L821.41 269.17L786.91 265.447Z" fill="#CCB2FF"/><path id="Stroke 36" d="M821.997 169.386C827.283 166.696 833.72 167.913 837.659 172.348C842.422 177.711 841.948 185.893 836.657 190.674L836.405 190.895L821.611 203.6L821.661 203.679C831.01 218.354 833.953 236.277 829.701 253.245L829.544 253.858L821.804 251.836C825.947 235.973 822.866 219.1 813.407 205.734L813.054 205.241L810.895 202.259L831.193 184.826C833.328 182.993 833.546 179.765 831.677 177.66C830.208 176.006 827.839 175.51 825.839 176.414L825.626 176.516L809.315 184.817C798.483 190.33 792.074 201.836 793.061 213.922L793.099 214.349L785.135 215.113C783.661 199.755 791.636 185.053 805.272 177.901L805.687 177.687L821.997 169.386Z" fill="black"/><path id="Sleeve_2" fill-rule="evenodd" clip-rule="evenodd" d="M782.128 259.431L767.638 350.713L757.842 289.544L717.184 304.452L734.682 491.102C745.174 499.892 759.048 504.419 776.953 506.27C839.568 512.742 839.568 368.102 858.715 272.886C829.736 255.291 782.128 259.431 782.128 259.431" fill="#EFEED8"/><path id="Stroke 40" d="M723.989 635.5V643.5H400V635.5H723.989Z" fill="black"/><path id="Stroke 44" d="M709.539 261.234L717.519 260.662L735.4 510.184L727.421 510.755L709.539 261.234Z" fill="black"/><path id="Stroke 46" d="M542.372 336.228L546.464 343.102L428.435 413.347L424.344 406.472L542.372 336.228Z" fill="black"/><path id="Stroke 48" d="M769.053 316.277L776.954 317.531L765.042 392.577L757.141 391.323L769.053 316.277Z" fill="black"/></g></g></g></g></g></g></g><g id="Master/Character/Standing" transform="matrix(-1 0 0 1 2500 200) scale(1 1)"><g id="Master/Character/Standing"><g id="Head"><path id="Head_2" fill-rule="evenodd" clip-rule="evenodd" d="M734.493 404.499C743.106 448.758 758.903 522.72 673 528.645C608.349 533.103 595.122 471.336 589 436.645C580 385.645 597 351.645 645 340.645C710.358 325.666 729.339 378.016 734.493 404.499" fill="#CCB2FF"/><path id="Neck" fill-rule="evenodd" clip-rule="evenodd" d="M701 555V510H627L625 552L561 584.645L598.2 617.967C639.318 654.8 702.503 651.347 739.363 610.253L762.333 584.645L701 555Z" fill="#CCB2FF"/></g><g id="Hair" transform="translate(404 144) scale(1 1)"><g id="Hair/Big Bun"><path id="Hair" fill-rule="evenodd" clip-rule="evenodd" d="M398.499 134.717C363.592 94.3135 336.503 111.047 285.711 159.37C283.536 161.439 281.293 163.3 279.222 165.215C223.782 154.964 195.705 175.207 181.498 197.565C168.169 191.496 153.364 188.113 137.769 188.113C79.3543 188.113 32 235.545 32 294.056C32 352.568 79.3543 400 137.769 400C196.184 400 243.538 352.568 243.538 294.056C243.538 292.023 243.475 290.005 243.362 288C260.605 283.443 279.638 277.897 297.745 271.551C327.804 285.011 364.225 280.7 390.578 257.508C426.618 225.791 429.892 171.053 398.499 134.717" fill="#CCB2FF"/></g></g><g id="Face" transform="translate(593 388) scale(1 1)"><g id="Face/Normal"><path id="Stroke 9" d="M138.007 13.7702L145.857 12.2298L147.549 20.8796L148.018 23.3396C150.609 37.0645 152.103 47.4423 152.719 57.8208L152.762 58.5622C153.984 80.6615 150.61 98.5963 141.031 112.508C129.646 129.044 110.034 138.786 81.1511 140.928L80.273 140.991L79.7271 133.009C106.811 131.157 124.441 122.498 134.442 107.972C142.847 95.7645 145.907 79.4963 144.774 59.0041L144.689 57.5787C144.071 47.8319 142.628 37.909 140.153 24.8041L139.313 20.4284L138.007 13.7702Z" fill="black"/><path id="Eye L" fill-rule="evenodd" clip-rule="evenodd" d="M86.4724 29.1099C87.6716 37.3704 86.9786 44.3214 82.8097 44.9575C78.6407 45.5936 76.9765 39.0036 75.7772 30.743C74.5779 22.4825 74.2909 15.6808 78.4667 15.0436C82.6435 14.4055 85.2731 20.8494 86.4724 29.1099" fill="black"/><path id="Eye R" fill-rule="evenodd" clip-rule="evenodd" d="M119.472 28.1098C120.672 36.3703 119.979 43.3213 115.81 43.9574C111.641 44.5945 109.976 38.0034 108.777 29.7429C107.578 21.4824 107.291 14.6816 111.467 14.0435C115.644 13.4064 118.273 19.8492 119.472 28.1098" fill="black"/></g></g><g id="Lower Body" transform="translate(200 1068) scale(1 1)"><g id="Lower Body/Scrubs"><g id="Group"><path id="R Foot" fill-rule="evenodd" clip-rule="evenodd" d="M610.175 731.131C548.022 731.131 548.022 730.308 548.022 713.226V650.045H610.175C653.325 659.034 744.362 690.275 744.362 721.969C744.362 731.131 683.029 731.131 610.175 731.131" fill="#EFEED8"/><path id="L Foot" fill-rule="evenodd" clip-rule="evenodd" d="M328.55 731.131C286.772 731.131 336.988 650.045 369.505 650.045C395.856 650.045 412.929 646.958 418.075 660.129C431.744 695.115 439.437 731.131 412.929 731.131H328.55Z" fill="#EFEED8"/><path id="Pants" fill-rule="evenodd" clip-rule="evenodd" d="M317.61 657.775H442.738L482.047 345.471L518.475 657.775H630.432L618.989 0H303L317.61 657.775Z" fill="#52D6C0"/><path id="Stroke 7" d="M496.729 196.797L504.666 197.796L460.368 549.742L452.431 548.743L496.729 196.797Z" fill="black"/></g></g></g><g id="Upper Body" transform="translate(100 428) scale(1 1)"><g id="Upper Body/Dr 1"><g id="Group 36"><path id="Scrub Color" fill-rule="evenodd" clip-rule="evenodd" d="M863.927 407.807L767.39 222.773C757.171 203.185 740.752 187.533 720.699 178.261L657.556 150.965L616.608 130.448L582 200L491.286 136.83L460.5 153.173L460.538 152.909L404.842 182.72C375.969 198.173 353.428 223.259 341.139 253.614L293.617 370.992C270.316 428.546 275.068 493.659 306.478 547.22L392.576 692.479L474 640H710.352C719.05 640 726.155 633.051 726.348 624.355L731.162 407.777L731.245 408.065L749.884 438.598C779.084 486.432 827.014 519.821 882.004 530.634L1015.29 556.842L1036.25 454.177L863.927 407.807Z" fill="#52D6C0"/><path id="Stroke 10" d="M502.15 143.388L593.233 204.682L588.766 211.319L497.684 150.025L502.15 143.388Z" fill="black"/><path id="Stroke 15" fill-rule="evenodd" clip-rule="evenodd" d="M725.989 610.5V602.5H410V610.5H725.989ZM715.017 643.784V635.784H450.017V643.784H715.017Z" fill="black"/><path id="Hand color" fill-rule="evenodd" clip-rule="evenodd" d="M1145.15 557.286V557.286C1146.83 553.505 1145.23 549.073 1141.51 547.248L1104.31 528.953L1158.64 537.332C1163.1 538.02 1167.25 534.92 1167.86 530.45C1168.43 526.285 1165.71 522.38 1161.6 521.479L1108.72 509.865L1170.69 506.857C1175.76 506.609 1179.73 502.373 1179.63 497.291C1179.55 492.449 1175.8 488.466 1170.97 488.087L1109.08 483.221L1163.94 471.188C1168.53 470.182 1171.46 465.682 1170.53 461.078C1169.69 456.967 1166.01 454.058 1161.82 454.195L1104.33 456.073V456.073L1085.14 456.699C1093.69 447.949 1102.14 438.221 1109.67 427.721C1112.01 424.465 1111.57 419.976 1108.7 417.178C1106.08 414.62 1102.07 414.126 1098.9 415.971L1053.5 442.439C1046.75 446.373 1041.24 451.952 1037.4 458.533L1006.67 451.015L995.172 514.314L1094.37 547.601L1135.67 561.46C1139.43 562.724 1143.54 560.915 1145.15 557.286" fill="#CCB2FF"/><path id="Combined Shape" fill-rule="evenodd" clip-rule="evenodd" d="M1089.23 452.953L1081.24 452.773L1081.15 456.772L1081.13 457.492C1080.66 472.308 1076.18 483.376 1069.02 491.367C1066.4 494.289 1063.61 496.581 1060.83 498.31C1059.88 498.905 1059 499.384 1058.23 499.757C1057.97 499.881 1057.75 499.982 1057.56 500.06L1057.46 500.104L1053.68 501.525L1056.49 509.014L1060.24 507.606L1060.48 507.513C1060.65 507.442 1060.86 507.353 1061.1 507.243L1061.7 506.964C1062.73 506.469 1063.86 505.852 1065.06 505.101C1068.46 502.986 1071.83 500.215 1074.98 496.704C1083.52 487.171 1088.76 474.048 1089.14 456.952L1089.23 452.953ZM1108.72 466.33L1100.86 467.808L1101.59 471.739L1101.8 472.986L1101.92 473.733C1102.04 474.563 1102.16 475.47 1102.28 476.449L1102.42 477.658C1103.96 491.566 1103.62 506.689 1100.12 520.796C1099.11 524.889 1097.84 528.786 1096.31 532.461L1094.77 536.154L1102.16 539.231L1103.69 535.538L1104.11 534.518C1105.62 530.762 1106.87 526.822 1107.89 522.721C1111.65 507.558 1112 491.545 1110.37 476.778C1110.22 475.452 1110.07 474.228 1109.91 473.114L1109.75 472.038C1109.65 471.362 1109.56 470.843 1109.5 470.492L1108.72 466.33Z" fill="black"/><path id="Fill 23" fill-rule="evenodd" clip-rule="evenodd" d="M731.245 408.064L798 999L667 1019L601 591V106L656.744 148.69L720.699 178.26C740.752 187.532 757.171 203.184 767.391 222.772L863.927 407.806L1036.25 454.176L1015.29 556.841L882.004 530.633C827.015 519.82 779.084 486.432 749.884 438.597L731.245 408.064Z" fill="#EFEED8"/><path id="Fill 25" fill-rule="evenodd" clip-rule="evenodd" d="M374.175 662.656L306.479 547.219C275.068 493.658 270.316 428.546 293.617 370.992L341.139 253.614C353.428 223.259 375.969 198.173 404.842 182.719L460.538 152.909L526 100L575 592L530 1030L363.679 1014.96L374.175 662.656Z" fill="#EFEED8"/><path id="Stroke 28" d="M654.452 162.877L662.327 164.288L649.917 233.545L675.889 261.82L635.792 349.824L628.512 346.507L666.41 263.326L641.343 236.036L654.452 162.877Z" fill="black"/><path id="Stroke 30" d="M460.684 182.932L467.538 178.808L497.953 229.356L475.791 269.372L533.496 355.427L526.852 359.883L466.426 269.77L488.716 229.522L460.684 182.932Z" fill="black"/><path id="Stroke 32" d="M392.221 697.752L387.412 691.359L468.433 630.398L400.403 496.116L380.074 455.984L387.211 452.369L400.612 478.824L405.783 354.607L413.776 354.94L408.01 493.431L474.926 625.512L494.635 610.684L499.444 617.077L392.221 697.752Z" fill="black"/><path id="Stroke 34" d="M723.129 300.776L774.153 751.691L766.204 752.591L715.18 301.676L723.129 300.776Z" fill="black"/></g></g></g></g></g><g id="Speech Bubble"><path id="Combined Shape" fill-rule="evenodd" clip-rule="evenodd" d="M1100 61C1267.89 61 1404 197.105 1404 365C1404 532.895 1267.89 669 1100 669C1097.44 669 1094.89 668.968 1092.34 668.905C1091.03 721.981 1062.74 751.961 1008.47 757.807L1006.78 757.981L1006 750.019C1057.4 745.004 1083.17 718.223 1084.35 668.604C923.726 660.457 796 527.644 796 365C796 197.105 932.105 61 1100 61ZM1100 69C936.524 69 804 201.524 804 365C804 528.476 936.524 661 1100 661C1263.48 661 1396 528.476 1396 365C1396 201.524 1263.48 69 1100 69Z" fill="black"/></g><g id="Organ" transform="translate(735 0) scale(1.46 1.46)"><g id="Organ/Brain"><g id="Group 13"><path id="Fill 1" fill-rule="evenodd" clip-rule="evenodd" d="M181.129 325.836C164.758 304.756 176.574 284.694 197.654 268.323C218.734 251.953 241.097 245.473 257.467 266.553C273.838 287.633 262.023 307.695 240.942 324.066C219.862 340.437 197.5 346.917 181.129 325.836" fill="#A1D5E5"/><path id="Fill 4" fill-rule="evenodd" clip-rule="evenodd" d="M172.982 198.832C183.483 173.551 210.081 157.566 238.43 161.63C248.81 163.118 258.206 167.124 266.097 172.936C273.932 169.417 282.819 167.993 291.95 169.302C305.851 171.294 317.441 179.192 324.572 190.085C327.725 189.579 331.007 189.533 334.335 190.01C352.084 192.555 364.41 209.005 361.865 226.754C359.427 243.761 344.222 255.789 327.34 254.526L327.332 254.523C321.964 265.054 311.027 272.271 298.397 272.271C295.034 272.271 291.792 271.761 288.742 270.812C280.138 280.583 267.545 286.756 253.502 286.756C252.869 286.756 252.242 286.733 251.615 286.708C240.772 304.125 221.462 315.726 199.435 315.726C165.505 315.726 138 288.22 138 254.29C138 229.833 152.294 208.717 172.982 198.832" fill="#EFA8B7"/><path id="Stroke 7" d="M253.501 188.856C267.325 188.856 280.259 194.404 289.738 204.006L290.031 204.306L290.193 204.267C292.639 203.704 295.151 203.394 297.7 203.346L298.396 203.34C318.333 203.34 334.534 219.342 334.856 239.203L334.861 239.806H326.861C326.861 224.085 314.116 211.34 298.396 211.34C295.696 211.34 293.051 211.715 290.514 212.444L289.93 212.619L287.454 213.39L285.74 211.443C277.627 202.23 266.003 196.856 253.501 196.856C245.484 196.856 237.8 199.061 231.106 203.163L230.566 203.5L228.593 204.75L226.535 203.646C218.481 199.327 209.507 196.981 200.19 196.861L199.434 196.856V188.856C209.334 188.856 218.926 191.064 227.657 195.247L228.273 195.546L228.523 195.403C235.891 191.246 244.2 188.971 252.836 188.86L253.501 188.856Z" fill="black"/><path id="Stroke 9" d="M268.898 258.224C271.851 269.623 268.615 281.825 260.085 290.252C251.477 298.755 239.124 301.786 227.785 298.63L227.628 298.584L227.603 298.607C219.402 305.868 206.909 305.615 199.007 297.903L198.73 297.628L204.422 292.006C209.395 297.04 217.457 297.169 222.593 292.35L222.839 292.113C222.927 292.026 223.015 291.933 223.141 291.792L225.314 289.305L227.904 290.266C237.045 293.658 247.409 291.529 254.463 284.56C260.835 278.266 263.316 269.205 261.262 260.664L261.154 260.23L268.898 258.224Z" fill="black"/><path id="Stroke 11" d="M194.795 238.231C206.024 231.431 220.606 234.919 227.561 245.996L227.769 246.334L220.926 250.477C216.346 242.913 206.502 240.494 198.938 245.075C197.152 246.156 195.623 247.557 194.392 249.215L194.133 249.575L192.052 252.543L188.894 250.764C185.182 248.672 180.649 248.64 176.903 250.761L176.592 250.942L172.449 244.099C177.68 240.932 183.922 240.365 189.498 242.296L189.701 242.368L190.039 242.013C191.318 240.697 192.751 239.527 194.32 238.526L194.795 238.231Z" fill="black"/></g></g></g></g></svg>