<?xml version="1.0" encoding="utf-8"?>
<!-- Generator: Adobe Illustrator 26.1.0, SVG Export Plug-In . SVG Version: 6.00 Build 0)  -->
<svg width="44" height="44" version="1.1" id="Layer_1" xmlns="http://www.w3.org/2000/svg" xmlns:xlink="http://www.w3.org/1999/xlink" x="0px" y="0px"
	 viewBox="0 0 44 44" style="enable-background:new 0 0 44 44;" xml:space="preserve">
<style type="text/css">
	.st0{display:none;}
	.st1{fill:url(#SVGID_1_);}
	.st2{fill:url(#SVGID_00000104666380186236416450000013588164920891023488_);}
	.st3{opacity:0.5;fill:#F15A24;enable-background:new    ;}
	.st4{fill:url(#SVGID_00000005258208385580636590000008993720778298203782_);}
	.st5{fill:url(#SVGID_00000139256997297656306500000003246463138475776908_);}
	.st6{fill:url(#SVGID_00000109734837907051567360000009448720871869719191_);}
	.st7{fill:url(#SVGID_00000042734016928727144110000006095641202872043154_);}
	.st8{fill:url(#SVGID_00000176016343246908582270000006251911954716635022_);}
	.st9{fill:url(#SVGID_00000091720820874687487360000017812286563976211133_);}
	.st10{fill:url(#SVGID_00000052825140721909041990000007537534186900603306_);}
	.st11{fill:url(#SVGID_00000023986980350330437130000004492068165375523739_);}
	.st12{fill:url(#SVGID_00000091696046400901989760000014084564408817824168_);}
	.st13{fill:url(#SVGID_00000058571290896523176450000001639282913679007401_);}
	.st14{fill:url(#SVGID_00000133528562056492166150000015585147167238162110_);}
</style>
<g>
	<g id="Layer_2_00000008141890427239669420000001411033992396205696_">
		<g id="Layer_1-2">
			<path class="st0" d="M44,22c0,12.2-9.8,22-22,22S0,34.2,0,22S9.8,0,22,0C34.1,0,44,9.9,44,22z"/>
			
				<linearGradient id="SVGID_1_" gradientUnits="userSpaceOnUse" x1="28.435" y1="38.66" x2="28.435" y2="19.65" gradientTransform="matrix(1 0 0 -1 0 46)">
				<stop  offset="0" style="stop-color:#FDC92F"/>
				<stop  offset="0.32" style="stop-color:#F9B228"/>
				<stop  offset="0.74" style="stop-color:#F59A21"/>
				<stop  offset="1" style="stop-color:#F4911E"/>
			</linearGradient>
			<path class="st1" d="M31.8,7.2v16.6c0.1,1.9-1.3,3.4-3.2,3.5s-3.4-1.3-3.5-3.2c0-0.1,0-0.2,0-0.4V7.2H31.8z"/>
			
				<linearGradient id="SVGID_00000054953496595297760370000004825724023981096097_" gradientUnits="userSpaceOnUse" x1="28.435" y1="37.16" x2="28.435" y2="29.7" gradientTransform="matrix(1 0 0 -1 0 46)">
				<stop  offset="1.000000e-02" style="stop-color:#FFFFFF;stop-opacity:0"/>
				<stop  offset="0.15" style="stop-color:#FDEBD5;stop-opacity:0.19"/>
				<stop  offset="0.38" style="stop-color:#FACB95;stop-opacity:0.47"/>
				<stop  offset="0.59" style="stop-color:#F7B262;stop-opacity:0.7"/>
				<stop  offset="0.77" style="stop-color:#F6A03D;stop-opacity:0.86"/>
				<stop  offset="0.91" style="stop-color:#F49526;stop-opacity:0.96"/>
				<stop  offset="1" style="stop-color:#F4911E"/>
			</linearGradient>
			<path style="fill:url(#SVGID_00000054953496595297760370000004825724023981096097_);" d="M31.8,7.2v16.6c0.1,1.9-1.3,3.4-3.2,3.5
				s-3.4-1.3-3.5-3.2c0-0.1,0-0.2,0-0.4V7.2H31.8z"/>
			<path class="st3" d="M25.1,13.3v10.5c-0.1,1.9,1.3,3.4,3.2,3.5s3.4-1.3,3.5-3.2c0-0.1,0-0.2,0-0.4v-4.7
				C30.4,16.4,28,14.3,25.1,13.3z"/>
			
				<linearGradient id="SVGID_00000183928404371484716850000016101686294574262964_" gradientUnits="userSpaceOnUse" x1="28.9345" y1="37.3033" x2="30.1345" y2="39.2933" gradientTransform="matrix(1 0 0 -1 0 46)">
				<stop  offset="0" style="stop-color:#FFFFFF"/>
				<stop  offset="1" style="stop-color:#FFFFFF;stop-opacity:0"/>
			</linearGradient>
			<path style="fill:url(#SVGID_00000183928404371484716850000016101686294574262964_);" d="M25.1,7.2c0,0,6.7,0.1,6.7,4.6V7.2H25.1
				z"/>
			
				<linearGradient id="SVGID_00000002376678234918192740000009826678836135182252_" gradientUnits="userSpaceOnUse" x1="22.0025" y1="28.88" x2="22.0025" y2="7.7" gradientTransform="matrix(1 0 0 -1 0 46)">
				<stop  offset="0" style="stop-color:#7502C1"/>
				<stop  offset="1" style="stop-color:#ED0283"/>
			</linearGradient>
			<path style="fill:url(#SVGID_00000002376678234918192740000009826678836135182252_);" d="M31.8,25.1c0.1,1.9-1.3,3.4-3.2,3.5
				s-3.4-1.3-3.5-3.2c0-0.1,0-0.2,0-0.4c0-1.7-1.4-3.1-3.1-3.1c-1.7,0-3.1,1.4-3.1,3.1v9.8h-6.7v-9.8c0-5.4,4.4-9.8,9.8-9.8
				S31.8,19.6,31.8,25.1C31.8,25.1,31.8,25.1,31.8,25.1z"/>
			
				<linearGradient id="SVGID_00000091735271345655427910000004303712059088524197_" gradientUnits="userSpaceOnUse" x1="21.885" y1="36.86" x2="21.885" y2="24.1" gradientTransform="matrix(1 0 0 -1 0 46)">
				<stop  offset="0" style="stop-color:#FFFFFF"/>
				<stop  offset="1" style="stop-color:#FFFFFF;stop-opacity:0"/>
			</linearGradient>
			<path style="fill:url(#SVGID_00000091735271345655427910000004303712059088524197_);" d="M22,18.6c1.7,0,3.1,1.4,3.1,3.1
				c0,1.9,1.5,3.4,3.4,3.4c1.4,0,2.6-0.8,3.1-2.1c-0.1-0.3-0.2-0.6-0.3-0.9c-1.7-5.1-7.2-7.9-12.4-6.2c-4,1.3-6.7,5.1-6.7,9.3v6.4
				h6.7v-9.8C18.9,20,20.3,18.6,22,18.6C22,18.6,22,18.6,22,18.6z"/>
			
				<linearGradient id="SVGID_00000183955736010600112300000007924169831160779663_" gradientUnits="userSpaceOnUse" x1="29.565" y1="16.13" x2="29.565" y2="10.66" gradientTransform="matrix(1 0 0 -1 0 46)">
				<stop  offset="0" style="stop-color:#7502C1"/>
				<stop  offset="1" style="stop-color:#ED0283"/>
			</linearGradient>
			<path style="fill:url(#SVGID_00000183955736010600112300000007924169831160779663_);" d="M34.1,34.9h-6.6c-1.3,0-2.4-1.1-2.4-2.4
				c0,0,0,0,0,0v-5.1c1.3,1.9,3.8,2.3,5.7,1.1c0.2-0.2,0.5-0.4,0.7-0.6c0.2-0.2,0.3-0.3,0.4-0.5v5.2C31.8,33.9,32.8,34.9,34.1,34.9z
				"/>
			
				<linearGradient id="SVGID_00000009575457263269483720000004746708336729199282_" gradientUnits="userSpaceOnUse" x1="29.565" y1="13" x2="29.565" y2="19.1" gradientTransform="matrix(1 0 0 -1 0 46)">
				<stop  offset="1.000000e-02" style="stop-color:#FFFFFF;stop-opacity:0"/>
				<stop  offset="0.21" style="stop-color:#C1BFD5;stop-opacity:0.27"/>
				<stop  offset="0.56" style="stop-color:#676398;stop-opacity:0.67"/>
				<stop  offset="0.83" style="stop-color:#302972;stop-opacity:0.91"/>
				<stop  offset="1" style="stop-color:#1B1464"/>
			</linearGradient>
			<path style="fill:url(#SVGID_00000009575457263269483720000004746708336729199282_);" d="M34.1,34.9h-6.6c-1.3,0-2.4-1.1-2.4-2.4
				c0,0,0,0,0,0v-5.1c1.3,1.9,3.8,2.3,5.7,1.1c0.2-0.2,0.5-0.4,0.7-0.6c0.2-0.2,0.3-0.3,0.4-0.5v5.2C31.8,33.9,32.8,34.9,34.1,34.9z
				"/>
			
				<linearGradient id="SVGID_00000064316308438482922310000009533152453322235284_" gradientUnits="userSpaceOnUse" x1="29.565" y1="15.95" x2="29.565" y2="11.6" gradientTransform="matrix(1 0 0 -1 0 46)">
				<stop  offset="0" style="stop-color:#FFFFFF"/>
				<stop  offset="1" style="stop-color:#FFFFFF;stop-opacity:0"/>
			</linearGradient>
			<path style="fill:url(#SVGID_00000064316308438482922310000009533152453322235284_);" d="M27.5,34.9h6.6c-0.6,0-1.3-0.3-1.7-0.8
				c-7.2-0.8-7.3-6.7-7.3-6.7v5.1C25.1,33.8,26.1,34.9,27.5,34.9C27.5,34.9,27.5,34.9,27.5,34.9z"/>
			
				<linearGradient id="SVGID_00000119804836584937533110000010430939065220488101_" gradientUnits="userSpaceOnUse" x1="17.1228" y1="12.9413" x2="14.1628" y2="19.1713" gradientTransform="matrix(1 0 0 -1 0 46)">
				<stop  offset="0" style="stop-color:#FDC92F"/>
				<stop  offset="0.32" style="stop-color:#F9B228"/>
				<stop  offset="0.74" style="stop-color:#F59A21"/>
				<stop  offset="1" style="stop-color:#F4911E"/>
			</linearGradient>
			<path style="fill:url(#SVGID_00000119804836584937533110000010430939065220488101_);" d="M18.9,24.7c0,0,0,10.2-6.7,10.2h6.7
				V24.7z"/>
			
				<linearGradient id="SVGID_00000051358092147037426120000018293345832889349034_" gradientUnits="userSpaceOnUse" x1="17.9303" y1="11.9602" x2="15.7703" y2="15.8502" gradientTransform="matrix(1 0 0 -1 0 46)">
				<stop  offset="1.000000e-02" style="stop-color:#FFFFFF;stop-opacity:0"/>
				<stop  offset="0.15" style="stop-color:#FDEBD5;stop-opacity:0.19"/>
				<stop  offset="0.38" style="stop-color:#FACB95;stop-opacity:0.47"/>
				<stop  offset="0.59" style="stop-color:#F7B262;stop-opacity:0.7"/>
				<stop  offset="0.77" style="stop-color:#F6A03D;stop-opacity:0.86"/>
				<stop  offset="0.91" style="stop-color:#F49526;stop-opacity:0.96"/>
				<stop  offset="1" style="stop-color:#F4911E"/>
			</linearGradient>
			<path style="fill:url(#SVGID_00000051358092147037426120000018293345832889349034_);" d="M18.9,24.7c0,0,0,10.2-6.7,10.2h6.7
				V24.7z"/>
			<path class="st3" d="M18.9,24.7v4.8c-0.4,2.1-1.3,4.2-3.2,5.3h-3.5C18.9,34.9,18.9,24.7,18.9,24.7z"/>
			
				<linearGradient id="SVGID_00000118370355560235383000000015620768399144805791_" gradientUnits="userSpaceOnUse" x1="14.435" y1="36.68" x2="14.435" y2="30.3" gradientTransform="matrix(1 0 0 -1 0 46)">
				<stop  offset="0" style="stop-color:#FDC92F"/>
				<stop  offset="0.32" style="stop-color:#F9B228"/>
				<stop  offset="0.74" style="stop-color:#F59A21"/>
				<stop  offset="1" style="stop-color:#F4911E"/>
			</linearGradient>
			<path style="fill:url(#SVGID_00000118370355560235383000000015620768399144805791_);" d="M18.9,9.6v4.1c-3.1,0.9-5.5,3.2-6.7,6.2
				V9.5c0-1.2-1-2.3-2.3-2.3h0h6.6C17.9,7.2,18.9,8.3,18.9,9.6C18.9,9.6,18.9,9.6,18.9,9.6z"/>
			
				<linearGradient id="SVGID_00000001651201708839961370000012167880662425068932_" gradientUnits="userSpaceOnUse" x1="14.435" y1="36.56" x2="14.435" y2="27.59" gradientTransform="matrix(1 0 0 -1 0 46)">
				<stop  offset="1.000000e-02" style="stop-color:#FFFFFF;stop-opacity:0"/>
				<stop  offset="0.15" style="stop-color:#FDEBD5;stop-opacity:0.19"/>
				<stop  offset="0.38" style="stop-color:#FACB95;stop-opacity:0.47"/>
				<stop  offset="0.59" style="stop-color:#F7B262;stop-opacity:0.7"/>
				<stop  offset="0.77" style="stop-color:#F6A03D;stop-opacity:0.86"/>
				<stop  offset="0.91" style="stop-color:#F49526;stop-opacity:0.96"/>
				<stop  offset="1" style="stop-color:#F4911E"/>
			</linearGradient>
			<path style="fill:url(#SVGID_00000001651201708839961370000012167880662425068932_);" d="M18.9,9.6v4.1c-3.1,0.9-5.5,3.2-6.7,6.2
				V9.5c0-1.2-1-2.3-2.3-2.3h0h6.6C17.9,7.2,18.9,8.3,18.9,9.6C18.9,9.6,18.9,9.6,18.9,9.6z"/>
			
				<linearGradient id="SVGID_00000060739525694889517910000016602892181463801265_" gradientUnits="userSpaceOnUse" x1="17.2622" y1="33.312" x2="13.8922" y2="37.042" gradientTransform="matrix(1 0 0 -1 0 46)">
				<stop  offset="0" style="stop-color:#FFFFFF"/>
				<stop  offset="1" style="stop-color:#FFFFFF;stop-opacity:0"/>
			</linearGradient>
			<path style="fill:url(#SVGID_00000060739525694889517910000016602892181463801265_);" d="M18.4,8.1c-0.5-0.5-1.1-0.8-1.8-0.8H9.9
				c1.2,0,2.3,1,2.3,2.3l0,0v3.4C14.1,12.1,17.1,10.4,18.4,8.1z"/>
		</g>
	</g>
</g>
</svg>
