<svg viewBox="0 116.5413533834585 2924.999999999999 1917.2932330827064" xmlns="http://www.w3.org/2000/svg" xmlns:xlink="http://www.w3.org/1999/xlink" overflow="visible" width="2924.999999999999px" height="1917.2932330827064px"><defs><radialGradient cx="50%" cy="0%" fx="50%" fy="0%" r="100%" gradientTransform="translate(0.500000,0.000000),scale(0.636364,1.000000),rotate(90.000000),translate(-0.500000,-0.000000)" id="masterscenetelemedicine-radialGradient-1"><stop stop-color="#FFF" offset="0%"/><stop stop-color="#DFE9EE" offset="100%"/></radialGradient><polygon id="masterscenetelemedicine-path-4" points="0 961 1200 961 1200 0 0 0"/><rect id="masterscenetelemedicine-path-6" x="0" y="0" width="1400" height="928"/><path d="M580,0 L20,0 C8.954305,2.02906125e-15 -1.3527075e-15,8.954305 0,20 L0,380 C1.3527075e-15,391.045695 8.954305,400 20,400 L580,400 C591.045695,400 600,391.045695 600,380 L600,20 C600,8.954305 591.045695,-2.02906125e-15 580,0 Z" id="masterscenetelemedicine-path-2"/></defs><g id="Master/Scene/Telemedicine" stroke="none" stroke-width="1" fill="none" fill-rule="evenodd"><g id="Furniture" transform="scale(1 1)"><defs><radialGradient cx="50%" cy="0%" fx="50%" fy="0%" r="100%" gradientTransform="translate(0.500000,0.000000),scale(0.636364,1.000000),rotate(90.000000),translate(-0.500000,-0.000000)" id="furniturexray-radialGradient-1"><stop stop-color="#FFF" offset="0%"/><stop stop-color="#DFE9EE" offset="100%"/></radialGradient><path d="M580,0 L20,0 C8.954305,2.02906125e-15 -1.3527075e-15,8.954305 0,20 L0,380 C1.3527075e-15,391.045695 8.954305,400 20,400 L580,400 C591.045695,400 600,391.045695 600,380 L600,20 C600,8.954305 591.045695,-2.02906125e-15 580,0 Z" id="furniturexray-path-2"/></defs><g id="Furniture/XRay" stroke="none" stroke-width="1" fill="none" fill-rule="evenodd"><path d="M1160,145 C1182.09139,145 1200,164.699471 1200,189 L1200,981 C1200,1005.30053 1182.09139,1025 1160,1025 L40,1025 C17.90861,1025 0,1005.30053 0,981 L0,189 C0,164.699471 17.90861,145 40,145 L1160,145 Z" id="Frame" fill="#7B9199"/><rect id="Rectangle" fill="#93D9B2" x="180" y="945" width="80" height="30" rx="15"/><rect id="Rectangle-Copy-7" fill="#DFE9EE" x="310" y="945" width="80" height="30" rx="15"/><rect id="Rectangle-Copy-8" fill="#DFE9EE" x="50" y="945" width="80" height="30" rx="15"/><path d="M1130,195 L70,195 C58.954305,195 50,203.954305 50,215 L50,875 C50,886.045695 58.954305,895 70,895 L1130,895 C1141.04569,895 1150,886.045695 1150,875 L1150,215 C1150,203.954305 1141.04569,195 1130,195 Z" id="Mask" fill="url(#furniturexray-radialGradient-1)"/><g id="Group-2" transform="translate(599.895328, 528.002741) rotate(-3.000000) translate(-599.895328, -528.002741) translate(299.895328, 306.002741)"><g id="Combined-Shape" transform="translate(-0.000000, 44.000000)"><mask id="furniturexray-mask-3" fill="#fff"><use xlink:href="#furniturexray-path-2"/></mask><use id="Mask" fill="#354452" xlink:href="#furniturexray-path-2"/><path d="M315.187175,-44 C321.711218,-44 327,-38.7625763 327,-32.3018868 C327,-31.9375422 326.982812,-31.5733965 326.948491,-31.2106406 L326.948491,-31.2106406 L323.474593,5.50407547 L326.831808,36.0356121 C327.150589,38.9348443 326.370794,41.7018037 324.822715,43.9294734 C326.193812,45.8397201 327,48.1756833 327,50.6981132 C327,51.0624578 326.982812,51.4266035 326.948491,51.7893594 L326.948491,51.7893594 L323.474593,88.5040755 L326.831808,119.035612 C327.103641,121.50786 326.576655,123.883926 325.455648,125.911441 C326.438504,127.617768 327,129.593005 327,131.698113 C327,132.062458 326.982812,132.426603 326.948491,132.789359 L326.948491,132.789359 L323.474593,169.504075 L326.831808,200.035612 C327.103641,202.50786 326.576655,204.883926 325.455648,206.911441 C326.438504,208.617768 327,210.593005 327,212.698113 C327,213.062458 326.982812,213.426603 326.948491,213.789359 L326.948491,213.789359 L323.474593,250.504075 L326.831808,281.035612 C327.150589,283.934844 326.370794,286.701804 324.822715,288.929473 C326.193812,290.83972 327,293.175683 327,295.698113 C327,296.062458 326.982812,296.426603 326.948491,296.789359 L326.948491,296.789359 L323.474593,333.504075 L326.831808,364.035612 C327.103641,366.50786 326.576655,368.883926 325.455648,370.911441 C326.438504,372.617768 327,374.593005 327,376.698113 C327,377.062458 326.982812,377.426603 326.948491,377.789359 L326.948491,377.789359 L323.474593,414.504075 L326.831808,445.035612 C327.530654,451.391436 322.949818,457.111566 316.569174,457.907762 L316.569174,457.907762 L316.367086,457.931263 C315.942423,457.977054 315.515566,458 315.088394,458 L315.088394,458 L286.912402,458 C280.388359,458 275.099577,452.762576 275.099577,446.301887 C275.099577,445.878863 275.122748,445.45615 275.168988,445.035612 L275.168988,445.035612 L278.525613,414.504075 L275.052305,377.789359 C274.817206,375.304468 275.385101,372.928419 276.54513,370.913195 C275.623538,369.247755 275.099577,367.335415 275.099577,365.301887 C275.099577,364.878863 275.122748,364.45615 275.168988,364.035612 L275.168988,364.035612 L278.525613,333.504075 L275.052305,296.789359 C274.777745,293.887383 275.598364,291.133853 277.178308,288.930126 C275.867046,287.0466 275.099577,284.762999 275.099577,282.301887 C275.099577,281.878863 275.122748,281.45615 275.168988,281.035612 L275.168988,281.035612 L278.525613,250.504075 L275.052305,213.789359 C274.817206,211.304468 275.385101,208.928419 276.54513,206.913195 C275.623538,205.247755 275.099577,203.335415 275.099577,201.301887 C275.099577,200.878863 275.122748,200.45615 275.168988,200.035612 L275.168988,200.035612 L278.525613,169.504075 L275.052305,132.789359 C274.817206,130.304468 275.385101,127.928419 276.54513,125.913195 C275.623538,124.247755 275.099577,122.335415 275.099577,120.301887 C275.099577,119.878863 275.122748,119.45615 275.168988,119.035612 L275.168988,119.035612 L278.525613,88.5040755 L275.052305,51.7893594 C274.777745,48.8873827 275.598364,46.1338527 277.178308,43.930126 C275.867046,42.0465999 275.099577,39.762999 275.099577,37.3018868 C275.099577,36.8788629 275.122748,36.4561503 275.168988,36.0356121 L275.168988,36.0356121 L278.525613,5.50407547 L275.052305,-31.2106406 C274.450056,-37.5761532 279.117238,-43.2274175 285.509252,-43.9285018 L285.509252,-43.9285018 L285.711674,-43.9489909 C286.077987,-43.9829784 286.445703,-44 286.813621,-44 L286.813621,-44 Z M315.159,376.999 L315.088394,377 L286.912402,377 C286.888648,377 286.86491,376.999931 286.841189,376.999792 L290.398905,414.593027 L286.912402,446.301887 L315.088394,446.301887 L311.60189,414.593027 L315.159,376.999 Z M315.187175,295.698113 L286.813621,295.698113 L290.398905,333.593027 L286.945,365 L315.055,365 L311.60189,333.593027 L315.187175,295.698113 Z M201.730021,30 C237.22535,30 266,58.8368512 266,94.4089099 L266,94.4089099 L266,243.441973 C266,302.844631 217.948503,351 158.673977,351 C148.974778,351 139.320339,349.682391 129.974347,347.08316 L129.974347,347.08316 L121.918348,344.842691 C56.6222287,326.683066 18.378796,258.914395 36.4992501,193.477127 C37.2462766,190.779436 38.0850192,188.108101 39.0140111,185.467791 L39.0140111,185.467791 L78.5891993,72.99021 C87.6530801,47.2295397 111.945155,30 139.201463,30 L139.201463,30 Z M460.798537,30 C488.054845,30 512.34692,47.2295397 521.410801,72.99021 L560.985989,185.467791 C561.914981,188.108101 562.753723,190.779436 563.50075,193.477127 C581.621204,258.914395 543.377771,326.683066 478.081652,344.842691 L470.025653,347.08316 C460.679661,349.682391 451.025222,351 441.326023,351 C382.051497,351 334,302.844631 334,243.441973 L334,94.4089099 C334,58.8368512 362.77465,30 398.269979,30 L460.798537,30 Z M253.946162,251.912781 L253.312598,252.272351 C188.939293,288.796866 122.733473,296.528345 55.0769916,275.382865 C68.5596823,302.887567 93.2590587,324.718917 125.043108,333.558438 L125.043108,333.558438 L133.099107,335.798907 C141.427526,338.115139 150.030808,339.289289 158.673977,339.289289 C208.646498,339.289289 249.667447,300.880207 253.946162,251.912781 Z M346.056203,251.913261 L346.140815,252.854925 C350.859824,301.371976 391.674443,339.289289 441.326023,339.289289 C449.969192,339.289289 458.572474,338.115139 466.900893,335.798907 L474.956892,333.558438 C506.740941,324.718917 531.440318,302.887567 544.925207,275.382562 C477.045376,296.597464 410.627905,288.746013 346.056203,251.913261 Z M315.159,212.999 L315.088394,213 L286.912402,213 C286.888648,213 286.86491,212.999931 286.841189,212.999792 L290.398905,250.593027 L286.912402,282.301887 L315.088394,282.301887 L311.60189,250.593027 L315.159,212.999 Z M49.8992582,189.754431 L49.5399219,190.798745 C48.8936805,192.718674 48.2998676,194.656028 47.7591627,196.608642 C41.6616471,218.62822 42.6181129,240.939575 49.2642392,261.125084 C119.433536,285.87314 187.621024,278.24532 254.314505,238.136095 L254.314769,206.276538 C186.766019,223.41529 118.565902,217.890733 49.8992582,189.754431 Z M550.102166,189.752617 L548.48163,190.41371 C480.362007,217.976181 412.703035,223.280576 345.685231,206.276538 L345.685495,238.136095 C412.378976,278.24532 480.566464,285.87314 550.734631,261.126512 C557.381887,240.939575 558.338353,218.62822 552.240837,196.608642 C551.601763,194.300791 550.888498,192.014258 550.102166,189.752617 Z M75.1356842,118.020124 L53.7724008,178.739339 C121.327508,206.552968 188.110054,211.70128 254.314894,194.238631 L254.313572,152.977642 C181.680489,152.403835 121.950855,140.784109 75.1356842,118.020124 Z M524.864316,118.020124 C478.049145,140.784109 418.319511,152.403835 345.686428,152.977642 L345.685106,194.238631 C411.889946,211.70128 478.672492,206.552968 546.227599,178.739339 Z M315.159,131.999 L315.088394,132 L286.912402,132 C286.888648,132 286.86491,131.999931 286.841189,131.999792 L290.398905,169.593027 L286.945,201 L315.055,201 L311.60189,169.593027 L315.159,131.999 Z M93.2678437,68.7538528 L93.111461,69.034046 C91.7483099,71.5224842 90.5736782,74.1445205 89.6096109,76.8845191 L89.6096109,76.8845191 L79.0582651,106.871064 C124.300432,129.169648 182.715055,140.656909 254.313433,141.231977 L254.314727,100.183451 C209.295772,79.6016445 155.625023,69.1073018 93.2678437,68.7538528 Z M506.733751,68.7535112 L506.165805,68.7574092 C444.202055,69.1721345 390.720278,79.6680925 345.68475,100.194097 L345.686567,141.231977 C417.284945,140.656909 475.699568,129.169648 520.941735,106.871064 L510.390389,76.8845191 C509.39002,74.0413468 508.162931,71.3251877 506.733751,68.7535112 Z M315.187175,50.6981132 L286.813621,50.6981132 L290.398905,88.5930268 L286.945,120 L315.055,120 L311.60189,88.5930268 L315.187175,50.6981132 Z M460.798537,41.7107109 L398.269979,41.7107109 C371.694986,41.7107109 349.724331,61.4668433 346.183902,87.1233339 C389.634254,68.3209235 440.236123,58.3346287 497.962926,57.1250403 C488.311707,47.468192 475.050391,41.7107109 460.798537,41.7107109 Z M201.730021,41.7107109 L139.201463,41.7107109 C124.950098,41.7107109 111.689203,47.4677969 102.037561,57.1245559 C159.892373,58.331222 210.492816,68.3136073 253.812921,87.1127436 C250.269959,61.4617093 228.301561,41.7107109 201.730021,41.7107109 L201.730021,41.7107109 Z M315.187175,-32.3018868 L286.813621,-32.3018868 L290.398905,5.59302677 L286.912402,37.3018868 L315.088394,37.3018868 L311.60189,5.59302677 L315.187175,-32.3018868 Z M59.198313,-8.78983951 C60.5059806,-16.6358118 67.9080829,-22.0156652 75.8483525,-20.8383786 L75.8483525,-20.8383786 L133.924771,-12.2279499 L251.265078,-12.227632 C254.269968,-12.227632 257.209765,-11.37204 259.73804,-9.76523622 L259.73804,-9.76523622 L259.998103,-9.59633971 C267.225855,-4.80049292 269.175197,4.91343148 264.35208,12.1003177 L264.35208,12.1003177 L262.560397,14.7700906 C256.100493,24.3959396 243.883897,28.4190128 232.922679,24.5301506 L232.922679,24.5301506 L228.1385,22.8328019 C222.447367,20.8136802 216.449721,19.7816102 210.407176,19.7816102 L210.407176,19.7816102 L105.096116,19.7816102 C98.1709053,19.7816102 91.2909009,18.6724596 84.7204402,16.4967731 L84.7204402,16.4967731 L72.7190969,12.5227502 C64.5266535,9.80997416 59,2.18781261 59,-6.39813422 C59,-7.11882349 59.053666,-7.83852361 59.1605579,-8.55133213 L59.1605579,-8.55133213 Z M540.801687,-8.78983951 L540.839442,-8.55133213 C540.946334,-7.83852361 541,-7.11882349 541,-6.39813422 C541,2.18781261 535.473346,9.80997416 527.280903,12.5227502 L515.27956,16.4967731 C508.709099,18.6724596 501.829095,19.7816102 494.903884,19.7816102 L389.592824,19.7816102 C383.550279,19.7816102 377.552633,20.8136802 371.8615,22.8328019 L367.077321,24.5301506 C356.116103,28.4190128 343.899507,24.3959396 337.439603,14.7700906 L335.64792,12.1003177 C330.824803,4.91343148 332.774145,-4.80049292 340.001897,-9.59633971 L340.26196,-9.76523622 C342.790235,-11.37204 345.730032,-12.227632 348.734922,-12.227632 L466.075229,-12.2279499 L524.151648,-20.8383786 C532.091917,-22.0156652 539.494019,-16.6358118 540.801687,-8.78983951 Z M74.1191023,-9.30687447 C72.503515,-9.54641411 70.9985332,-8.43831199 70.7576315,-6.83185911 C70.7361,-6.68827603 70.7252899,-6.54330475 70.7252899,-6.39813422 C70.7252899,-2.83180568 73.0208855,0.334197181 76.4237653,1.46099786 L76.4237653,1.46099786 L88.4251086,5.4350207 C93.8009401,7.21512783 99.4300346,8.1226147 105.096116,8.1226147 L105.096116,8.1226147 L210.407176,8.1226147 C217.792509,8.1226147 225.122965,9.3840336 232.078795,11.851849 L232.078795,11.851849 L236.862973,13.5491977 C242.759804,15.6412974 249.331993,13.4769959 252.807241,8.29855674 L252.807241,8.29855674 L254.598925,5.62878387 C255.827589,3.79796149 255.331004,1.32338909 253.489772,0.101671722 C252.831085,-0.335388081 252.056954,-0.568636477 251.265078,-0.568636477 L251.265078,-0.568636477 L133.054595,-0.568636477 Z M525.880898,-9.30687447 L466.945405,-0.568636477 L348.734922,-0.568636477 C347.943046,-0.568636477 347.168915,-0.335388081 346.510228,0.101671722 C344.668996,1.32338909 344.172411,3.79796149 345.401075,5.62878387 L347.192759,8.29855674 C350.668007,13.4769959 357.240196,15.6412974 363.137027,13.5491977 L367.921205,11.851849 C374.877035,9.3840336 382.207491,8.1226147 389.592824,8.1226147 L494.903884,8.1226147 C500.569965,8.1226147 506.19906,7.21512783 511.574891,5.4350207 L523.576235,1.46099786 C526.979114,0.334197181 529.27471,-2.83180568 529.27471,-6.39813422 C529.27471,-6.54330475 529.2639,-6.68827603 529.242368,-6.83185911 C529.001467,-8.43831199 527.496485,-9.54641411 525.880898,-9.30687447 Z" fill="#7EBEFF" fill-rule="nonzero" mask="url(#furniturexray-mask-3)"/></g><rect id="Rectangle-Copy-6" fill="#7B9199" x="260" y="4" width="80" height="80" rx="40"/><path d="M300,6.36646291e-12 C324.300529,6.36646291e-12 344,19.699471 344,44 C344,68.0575237 324.692548,87.6055505 300.72762,87.9941053 L300,88 L300,80 C319.882251,80 336,63.882251 336,44 C336,24.3165715 320.202994,8.32273143 300.595326,8.00482297 L300,8 L300,6.36646291e-12 Z" id="Rectangle-Copy-6" fill="#000" fill-rule="nonzero"/></g><path d="M1130,191 C1143.12229,191 1153.78485,201.531337 1154,214.603116 L1154,215 L1154,693 L1146,693 L1146,215 C1146,206.268641 1139.0061,199.170795 1130.31487,199.003036 L1130,199 L322,199 L322,191 L1130,191 Z" id="Path-73" fill="#000" fill-rule="nonzero"/></g></g><g id="UI-Window" transform="translate(1832.000000, 468.000000)"><path d="M10,826 L1074,826 C1079.52285,826 1084,821.522847 1084,816 L1084,40 C1084,17.90861 1066.09139,-4.05812251e-15 1044,0 L40,0 C17.90861,4.05812251e-15 -2.705415e-15,17.90861 0,40 L0,816 C6.76353751e-16,821.522847 4.4771525,826 10,826 Z" id="Window" fill="#DAE6EB"/><circle id="Oval" stroke="#FFF" stroke-width="8" fill="#FFB4B4" cx="50" cy="40" r="16"/><circle id="Oval-Copy" stroke="#FFF" stroke-width="8" fill="#FFDB9F" cx="110" cy="40" r="16"/><circle id="Oval-Copy-2" stroke="#FFF" stroke-width="8" fill="#83D5AA" cx="170" cy="40" r="16"/><polygon id="Window-Background" fill="#5C9970" points="30 800 1054 800 1054 80 30 80"/></g><g id="Group" transform="translate(1686.000000, 307.000000)"><mask id="masterscenetelemedicine-mask-5" fill="#fff"><use xlink:href="#masterscenetelemedicine-path-4"/></mask><g id="Mask"/><g mask="url(#masterscenetelemedicine-mask-5)"><g transform="translate(670.000000, 61.000000) scale(-1, 1) translate(-670.000000, -61.000000) translate(-30.000000, -839.000000) scale(1 1)" id="Master/Character/Bust"><defs><path d="M346,1 L403,44 C455.330837,60.5927043 498.49333,98.0479325 522.293031,147.519222 L574,255 L574,255 L617,159 L692,193 L638.025428,319.887591 C620.730898,360.544906 573.751646,379.484186 533.09433,362.189656 C518.03103,355.782133 505.295877,344.907933 496.607485,331.034533 L454,263 L454,263 L473.56662,500.594673 C474.507448,512.019006 472.594589,523.498081 468,534 L468,534 L468,534 L122.243501,534 C67.0150256,534 22.2435006,489.228475 22.2435006,434 C22.2435006,427.344215 22.9079885,420.705057 24.2270788,414.181295 L66.6882657,204.183034 C82.3396526,126.776718 138.279412,63.6979364 213.259839,38.9060209 L216,38 L216,38 L271,0 L324.45715,50.637 L346,1 Z" id="mastercharacterbust-path-1"/></defs><g id="Master/Character/Bust" stroke="none" stroke-width="1" fill="none" fill-rule="evenodd"><g id="Head" transform="translate(560.999650, 1072.000000)" fill="#ccb2ff"><path d="M173.4931,66.499221 C182.1061,110.758221 197.9031,184.720221 112.0001,190.645221 C47.3491,195.103221 34.1221,133.336221 28.0001,98.645221 C19.0001,47.645221 36.0001,13.645221 84.0001,2.64522101 C149.3581,-12.333779 168.3391,40.016221 173.4931,66.499221"/><path d="M140,217 L140,172 L66,172 L64,214 L-6.39488462e-13,246.644721 L37.2,279.966721 C78.318,316.799721 141.503,313.346721 178.363,272.252721 L201.333,246.644721 L140,217 Z" id="Neck"/></g><g id="Hair" transform="translate(403.999650, 878.000000) scale(1 1)"><g id="Hair/Dreadlocks" stroke="none" stroke-width="1" fill="none" fill-rule="evenodd"><path d="M178.859518,368.634938 C178.859518,368.634938 165.392518,400.658938 145.004518,396.615938 C121.002518,391.855938 124.110518,341.176938 124.110518,341.176938 C124.110518,341.176938 108.176518,361.092938 88.3455184,347.571938 C59.9375184,328.201938 99.2845184,270.382938 99.2845184,270.382938 C99.2845184,270.382938 47.0945184,292.386938 33.3685184,275.979938 C18.3815184,258.064938 76.0105184,178.505938 105.119518,177.341938 C16.6295184,192.478938 30.9234816,96.0749375 171.486518,109.810938 C133.392518,81.8669375 118.329518,44.1349375 142.378518,38.3139375 C166.426518,32.4919375 261.245518,29.4719375 294.337518,135.425938 C341.723518,98.5139375 401.382518,115.018938 413.642518,123.826938 C441.132518,143.575938 393.483518,161.040938 375.392518,161.040938 C432.982518,180.834938 469.076518,205.285938 469.076518,229.736938 C469.076518,267.782938 407.367518,240.623938 407.367518,240.623938 C407.367518,240.623938 457.194518,274.599938 447.487518,327.618938 C440.926518,363.457938 402.733518,327.554938 402.733518,327.554938 C405.171518,335.785938 407.254518,373.226938 385.244518,375.218938 C367.779518,376.799938 358.835518,356.354938 358.835518,356.354938 C358.835518,356.354938 355.486518,384.087938 331.376518,387.364938 C310.643518,390.183938 299.089518,358.038938 299.089518,358.038938 L271.447518,363.457938 C271.447518,363.457938 234.737518,412.061938 208.484518,408.205938 C182.231518,404.349938 178.859518,368.634938 178.859518,368.634938" id="Hair" fill="#ccb2ff"/></g></g><g id="Face" transform="translate(592.999650, 1122.000000) scale(1 1)" fill="#000"><g id="Face/Normal" stroke="none" stroke-width="1" fill="none" fill-rule="evenodd"><path d="M138.007134,13.7702134 L145.857426,12.2297866 L147.549095,20.8795674 L148.018253,23.3396028 C150.609344,37.0644778 152.103078,47.4422921 152.719024,57.8208348 L152.76153,58.5622057 C153.98411,80.6614745 150.609705,98.5962452 141.031202,112.508343 C129.646431,129.04392 110.03365,138.785988 81.1510446,140.92809 L80.2729757,140.990675 L79.7270243,133.009325 C106.810648,131.156714 124.44055,122.497958 134.441949,107.971632 C142.846582,95.7644971 145.907418,79.4963265 144.773744,59.0041074 L144.689081,57.5786659 C144.070509,47.8319356 142.627723,37.9089558 140.153411,24.804129 L139.313239,20.428357 L138.007134,13.7702134 Z" id="Stroke-9" fill="#000" fill-rule="nonzero"/><path d="M86.4723645,29.1098949 C87.6716409,37.3704166 86.9786165,44.3213927 82.8096565,44.9575153 C78.6406965,45.593638 76.9764547,39.0035684 75.7771783,30.7430466 C74.577902,22.4825248 74.290862,15.6807503 78.4667031,15.0436195 C82.6435272,14.4054806 85.2730881,20.8493731 86.4723645,29.1098949" id="Eye-L" fill="#000"/><path d="M119.472365,28.1097699 C120.671641,36.3702923 119.978616,43.3212689 115.809656,43.9573917 C111.640696,44.5945225 109.976455,38.0034442 108.777178,29.7429218 C107.577902,21.4823993 107.290862,14.6816324 111.466703,14.0434934 C115.643527,13.4063625 118.273088,19.8492474 119.472365,28.1097699" id="Eye-R" fill="#000"/></g></g><g id="Upper Body Bust" transform="translate(100.000000, 1160.000000) scale(1 1)"><g id="Upper Body Bust/Scrubs 1" stroke="none" stroke-width="1" fill="none" fill-rule="evenodd"><g id="Group" transform="translate(343.000000, 124.000000)"><path d="M258,3 L246.665291,74.6827 L182,0 L87.9998915,48.06 C51.7268915,66.762 25.6102915,100.9397 16.1562915,140.6397 L7.96929145,175.0187 L65.9602915,190.4777 L42,516 L396.467,514.285 L374.183291,180.4517 L420.757291,163.3747 L414.970291,126.6547 C409.874291,94.3197 389.275291,66.5257 359.821291,52.2427 L258,3 Z" id="Scrubs" fill="#52D6C0"/><polygon id="Stroke-12" fill="#000" fill-rule="nonzero" points="210.68669 26.7774018 278.48869 105.504402 272.426893 110.724998 204.624893 31.9979982"/><g id="Clipboard" transform="translate(92.850874, 130.254935)"><path d="M108.015917,11.1813647 L102.172917,8.27936465 C94.7599173,4.59736465 85.9489173,5.13636465 79.0399173,9.69336465 L31.9629173,40.7463647 C25.0539173,45.3043647 21.0909173,53.1913647 21.5579173,61.4553647 L21.9249173,67.9693647 L108.015917,11.1813647 Z" id="Fill-14" fill="#C7CBD1"/><path d="M266.280017,219.915765 L148.611017,297.533765 C143.805017,300.703765 137.340017,299.376765 134.170017,294.571765 L1.72301731,93.7817647 C-1.44598269,88.9767647 -0.119982687,82.5107647 4.68501731,79.3417647 L122.355017,1.72376465 C127.160017,-1.44623535 133.625017,-0.120235346 136.795017,4.68476465 L269.241017,205.475765 C272.411017,210.280765 271.085017,216.745765 266.280017,219.915765" id="Fill-16" fill="#AF8358"/><path d="M93.9307322,15.6806546 L98.3357274,22.3586796 L86.9757072,29.8516546 L87.5910386,36.2552019 C88.4373529,45.0774948 84.2707667,53.6160499 76.7929955,58.4022036 L76.4344152,58.6272655 L76.0495619,58.8584032 C68.435923,63.3293651 58.9562741,63.1755848 51.4879253,58.4505906 L51.4879253,58.4505906 L47.4717072,55.9096546 L36.5537024,63.1116747 L32.1487072,56.4336497 L41.6877072,50.1406546 L86.1105677,20.8390323 L86.1097072,20.8396546 L93.9307322,15.6806546 Z M79.4167072,34.8376546 L54.7977072,51.0766546 L55.7649231,51.689874 C60.4866447,54.6771618 66.424655,54.9000409 71.3043229,52.3464759 L71.6353609,52.1680667 L71.9629586,51.981052 L72.2768381,51.7925865 C77.3448375,48.673634 80.1959117,42.9434598 79.6276356,37.01954 L79.6276356,37.01954 L79.4167072,34.8376546 Z" id="Combined-Shape" fill="#000" fill-rule="nonzero"/></g><path d="M272.884291,174.8506 C252.767291,181.2216 197.980291,217.7106 197.980291,217.7106 L234.018291,279.7426 C234.018291,279.7426 283.166291,270.1836 299.706291,248.2776 C307.138291,238.4366 305.518291,227.2966 284.954291,201.3386 C299.998291,189.7156 293.001291,168.4796 272.884291,174.8506" id="Hand" fill="#ccb2ff"/><path d="M197.980491,217.7109 L93.9664915,279.6139 L102.941491,236.7219 L94.5744915,224.0369 C91.4044915,219.2309 92.7304915,212.7659 97.5364915,209.5959 L109.089491,201.9749 L15.3054915,176.9739 C15.3054915,176.9739 -21.7935085,336.5369 19.5264915,376.3839 C73.5024915,428.4359 239.597491,303.4059 239.597491,303.4059 C239.597491,303.4059 236.168491,251.3219 197.980491,217.7109" id="Sleeve" fill="#EFEED8"/><path d="M505.217191,47.876 C511.975191,31.26 505.678191,21.022 489.539191,17.852 C475.982191,15.189 459.379191,38.358 452.188191,51.013 C451.011191,52.685 449.958191,54.592 449.050191,56.758 C449.037191,56.781 449.032191,56.793 449.032191,56.793 L449.035191,56.792 C446.334191,63.251 444.927191,72.005 445.448191,83.74 C448.131191,144.178 478.411191,145.17 478.411191,145.17 L501.991191,148.645 L504.224191,123.081 C504.224191,123.081 524.825191,110.919 534.257191,89.822 C543.688191,68.725 519.365191,54.081 505.217191,47.876 L505.217191,47.876 Z" id="Hand" fill="#ccb2ff"/><g id="Pen" transform="translate(395.975586, 5.067796)"><path d="M144.690906,107.501804 L6.98890582,24.512804 C0.157905819,20.396804 -2.04209418,11.521804 2.07490582,4.69080401 L2.07490582,4.69080401 C3.65990582,2.06080401 7.07590582,1.21380401 9.70490582,2.79880401 L155.014906,90.371804 C169.072906,98.844804 181.673906,109.528804 192.332906,122.012804 L192.352906,122.036804 C193.768906,123.695804 192.257906,126.201804 190.129906,125.724804 L190.099906,125.717804 C174.082906,122.125804 158.749906,115.974804 144.690906,107.501804" id="Fill-26" fill="#C7CBD1"/><polygon id="Fill-28" fill="#7D95B7" points="139.861306 81.240104 21.8853058 10.139104 11.5613058 27.269104 129.538306 98.370104"/><path d="M172.589406,102.728604 C167.037406,98.209604 161.165406,94.079604 155.014406,90.372604 L139.861406,81.239604 L129.537406,98.369604 L144.691406,107.501604 C150.841406,111.208604 157.236406,114.471604 163.826406,117.269604 L172.589406,102.728604 Z" id="Fill-30" fill="#406189"/><path d="M19.3909618,0.462605172 L46.8233355,16.9958304 C52.0258876,20.1321319 53.7023382,26.8918724 50.5668794,32.0956337 C47.4828595,37.2114603 40.895172,38.9168174 35.7289455,35.9911937 L35.4675051,35.8384361 L8.03450507,19.3054361 L12.1639066,12.4535719 L39.5965765,28.986373 C41.0159101,29.841574 42.8600361,29.3844864 43.7150748,27.9661333 C44.538351,26.5997837 44.1447011,24.8389652 42.8471597,23.946459 L42.6934499,23.8474028 L15.2614499,7.31440284 L19.3909618,0.462605172 Z" id="Stroke-32" fill="#000" fill-rule="nonzero"/></g><path d="M443.911691,141.4473 L448.627691,116.8753 L446.118691,90.7313 C444.786691,76.8543 452.078691,63.5753 464.502691,57.2523 L480.813691,48.9513 C484.477691,47.0863 488.939691,47.9303 491.669691,51.0043 C495.022691,54.7803 494.631691,60.5713 490.800691,63.8613 L473.295691,78.8953 C483.731691,93.3063 487.172691,111.6313 482.675691,128.8463 L478.411691,145.1703 L443.911691,141.4473 Z" id="Hand" fill="#ccb2ff"/><path d="M478.999198,45.386226 C484.285111,42.6956619 490.721945,43.9130212 494.660683,48.3480691 C499.423338,53.7115605 498.94938,61.8930815 493.658368,66.6738937 L493.406825,66.8954798 L478.613,79.6 L478.66305,79.6788974 C488.01211,94.3538498 490.955131,112.277398 486.702676,129.245058 L486.545838,129.857923 L478.805545,127.836077 C482.949192,111.972829 479.867737,95.1002785 470.409201,81.7345214 L470.055971,81.2411054 L467.896591,78.2592328 L488.194657,60.8264351 C490.329791,58.9928167 490.547892,55.764932 488.678874,53.6601265 C487.209768,52.005903 484.840471,51.5103509 482.840727,52.4137423 L482.627941,52.5158982 L466.31698,60.8168781 C455.485051,66.3296188 449.075637,77.836393 450.062485,89.9220285 L450.100391,90.3488119 L442.136992,91.1131881 C440.662858,75.7554151 448.63747,61.0526019 462.2735,53.9014837 L462.688442,53.6871018 L478.999198,45.386226 Z" id="Stroke-36" fill="#000" fill-rule="nonzero"/><path d="M439.127491,135.4312 L424.637491,226.7132 L414.841491,165.5442 L374.183491,180.4522 L391.681491,367.1022 C402.173491,375.8922 416.047491,380.4192 433.952491,382.2702 C496.567491,388.7422 496.567491,244.1022 515.714491,148.8862 C486.735491,131.2912 439.127491,135.4312 439.127491,135.4312" id="Sleeve" fill="#EFEED8"/><polygon id="Stroke-40" fill="#000" fill-rule="nonzero" points="380.989 511.5 380.989 519.5 57 519.5 57 511.5"/><polygon id="Stroke-44" fill="#000" fill-rule="nonzero" points="366.537899 137.233857 374.517434 136.662007 392.399284 386.183543 384.419749 386.755393"/><polygon id="Stroke-46" fill="#000" fill-rule="nonzero" points="199.372095 212.227686 203.463505 219.102304 85.4348876 289.346714 81.3434778 282.472096"/><polygon id="Stroke-48" fill="#000" fill-rule="nonzero" points="426.054024 192.276885 433.955107 193.531032 422.042959 268.577115 414.141876 267.322968"/></g></g></g></g></g></g></g><g transform="translate(387.000000, 200.000000) scale(1 1)" id="Master/Character/Sitting"><defs><rect id="mastercharactersitting-path-1" x="0" y="0" width="1400" height="928"/><path d="M346,1 L403,44 C455.330837,60.5927043 498.49333,98.0479325 522.293031,147.519222 L574,255 L574,255 L617,159 L692,193 L637.210403,321.803615 C619.915873,362.46093 572.93662,381.40021 532.279305,364.10568 C517.498602,357.818366 504.952779,347.227337 496.274699,333.711035 L465,285 L465,285 C484.333333,388.333333 494.666667,454.666667 496,484 C497.333333,513.333333 487.666667,530 467,534 L122.243501,534 C67.0150256,534 22.2435006,489.228475 22.2435006,434 C22.2435006,427.344215 22.9079885,420.705057 24.2270788,414.181295 L66.6882657,204.183034 C82.3396526,126.776718 138.279412,63.6979364 213.259839,38.9060209 L216,38 L216,38 L271,0 L324.45715,50.637 L346,1 Z" id="mastercharactersitting-path-3"/></defs><g id="Master/Character/Sitting" stroke="none" stroke-width="1" fill="none" fill-rule="evenodd"><g id="Chair" transform="translate(100.000000, 800.000000) scale(1 1)"><g id="Chair/Wooden" stroke="none" stroke-width="1" fill="none" fill-rule="evenodd"><path d="M927.228215,677.299364 L620.956284,677.299364 C613.031846,677.299364 607.640064,669.261609 610.648498,661.932283 L650.658439,564.473401 L936.73598,544.771101 L936.73598,500.215923 L508.137788,500.215923 L508.137788,544.771101 L581.432149,560.303036 L536.06831,677.299364 L508.143359,677.299364 L433.164275,604.570833 L443.774018,173.951723 C444.14283,158.860884 432.090153,146.51353 416.990044,146.51353 C364.024895,135.542932 309.41068,135.170896 256.301795,145.420815 L249.091582,146.81205 C233.061087,149.905293 221.611211,164.12285 222.010107,180.44007 L230.902814,540.850245 C231.901169,581.690635 248.892134,620.509334 278.221021,648.957815 L376.340532,744.13213 L425.263237,744.13213 L512.164632,744.13213 L411,1000 L466.711737,1000 L576.902785,744.13213 L577.043179,744.13213 L874.084789,744.13213 L944.288263,999 L1000,999 L927.228215,677.299364 Z" id="Chair-back" fill="#C4A182"/><path d="M942,1000 L1074.87415,1000 C1085.91985,1000 1094.87415,991.045695 1094.87415,980 C1094.87415,972.371944 1090.53508,965.408128 1083.68762,962.046648 L996,919 L996,919 L912,919 L912,970 C912,986.568542 925.431458,1000 942,1000 Z" id="Fill-21" fill="#DBDAC6"/><path d="M715.769613,1000 L861.405462,1000 C872.451157,1000 881.405462,991.045695 881.405462,980 C881.405462,972.354734 877.046994,965.378353 870.176068,962.025672 L782,919 L782,919 L698,919 L686.729706,962.471135 C682.571628,978.509433 692.20245,994.88183 708.240748,999.039907 C710.699603,999.677388 713.229465,1000 715.769613,1000 Z" id="Fill-21" fill="#DBDAC6"/><path d="M756.9617,500.388088 L468,501.101129 L468,501.101129 L468,564.729184 C468,626.163668 517.888201,675.965099 579.429722,675.965099 L835.168735,675.965099 L902.228998,919 L1017,919 L951.698343,652.747072 C929.714508,563.112891 849.252131,500.160352 756.9617,500.388088 Z" id="Fill-27" fill="#696089"/><path d="M766.994528,500 L380,500 L380,500 L380,564.866537 C380,626.277202 429.861891,676.059325 491.370958,676.059325 L746.975102,676.059325 L698.003064,919 L831,919 L901.326101,679.433851 C923.104815,605.244572 880.617658,527.447142 806.428379,505.668427 C793.621185,501.908797 780.342152,500 766.994528,500 Z" id="Fill-29" fill="#696089"/><path d="M884.899444,572.512005 C909.518797,603.504674 916.734761,638.802468 906.489395,678.011257 L905.572106,681.495393 C895.663355,718.860558 878.589709,774.851804 854.344479,849.498461 L852.803666,854.237792 L845.196334,851.762208 L848.253532,842.34966 C872.406186,767.842725 889.240401,712.378997 898.749276,675.988743 C908.266786,639.565444 901.809654,607.149779 879.32166,578.359324 L878.635299,577.487995 L884.899444,572.512005 Z" id="Path-11" fill="#000" fill-rule="nonzero"/><g id="Chair-front" transform="translate(199.000000, 500.000000)"><path d="M516.905212,177.160734 L210.503626,177.160734 C202.575833,177.160734 197.181769,169.1195 200.191476,161.787001 L240.218355,64.2859289 L538.080175,48.7060387 L538.080175,0.00063441095 L97.63737,0.00063441095 L97.63737,44.5751001 L170.962759,60.1137589 L0.791675324,499.000634 L56.5269969,499.000634 L166.431477,244.022433 L463.739288,244.022433 L534,500 L589.735322,500 L516.905212,177.160734 Z" id="Chair" fill="#AF8358"/><polygon id="Stroke-7" fill="#000" fill-rule="nonzero" points="566.665072 172.19414 566.678865 180.194128 211.12576 180.807128 211.111968 172.80714"/></g></g></g><g id="Head" transform="translate(560.999650, 572.000000)" fill="#ccb2ff"><path d="M173.4931,66.499221 C182.1061,110.758221 197.9031,184.720221 112.0001,190.645221 C47.3491,195.103221 34.1221,133.336221 28.0001,98.645221 C19.0001,47.645221 36.0001,13.645221 84.0001,2.64522101 C149.3581,-12.333779 168.3391,40.016221 173.4931,66.499221"/><path d="M140,217 L140,172 L66,172 L64,214 L-6.39488462e-13,246.644721 L37.2,279.966721 C78.318,316.799721 141.503,313.346721 178.363,272.252721 L201.333,246.644721 L140,217 Z" id="Neck"/></g><g id="Hair" transform="translate(403.999650, 378.000000) scale(1 1)"><g id="Hair/Big Bun" stroke="none" stroke-width="1" fill="none" fill-rule="evenodd"><path d="M398.499373,134.717091 C363.591862,94.313508 336.502569,111.047428 285.710645,159.370277 C283.535862,161.439483 281.293086,163.300365 279.222293,165.215331 C223.781834,154.964453 195.70464,175.206807 181.49806,197.56544 C168.169392,191.496039 153.363871,188.112798 137.76943,188.112798 C79.3542676,188.112798 32,235.545268 32,294.055898 C32,352.56753 79.3542676,400 137.76943,400 C196.183592,400 243.53786,352.56753 243.53786,294.055898 C243.53786,292.022749 243.474866,290.004623 243.361877,287.999517 C260.605154,283.44346 279.638252,277.896869 297.745442,271.551039 C327.804438,285.010888 364.224798,280.700211 390.578165,257.508288 C426.617563,225.79116 429.892236,171.053374 398.499373,134.717091" id="Hair" fill="#ccb2ff"/></g></g><g id="Face" transform="translate(592.999650, 622.000000) scale(1 1)" fill="#000"><g id="Face/Normal" stroke="none" stroke-width="1" fill="none" fill-rule="evenodd"><path d="M138.007134,13.7702134 L145.857426,12.2297866 L147.549095,20.8795674 L148.018253,23.3396028 C150.609344,37.0644778 152.103078,47.4422921 152.719024,57.8208348 L152.76153,58.5622057 C153.98411,80.6614745 150.609705,98.5962452 141.031202,112.508343 C129.646431,129.04392 110.03365,138.785988 81.1510446,140.92809 L80.2729757,140.990675 L79.7270243,133.009325 C106.810648,131.156714 124.44055,122.497958 134.441949,107.971632 C142.846582,95.7644971 145.907418,79.4963265 144.773744,59.0041074 L144.689081,57.5786659 C144.070509,47.8319356 142.627723,37.9089558 140.153411,24.804129 L139.313239,20.428357 L138.007134,13.7702134 Z" id="Stroke-9" fill="#000" fill-rule="nonzero"/><path d="M86.4723645,29.1098949 C87.6716409,37.3704166 86.9786165,44.3213927 82.8096565,44.9575153 C78.6406965,45.593638 76.9764547,39.0035684 75.7771783,30.7430466 C74.577902,22.4825248 74.290862,15.6807503 78.4667031,15.0436195 C82.6435272,14.4054806 85.2730881,20.8493731 86.4723645,29.1098949" id="Eye-L" fill="#000"/><path d="M119.472365,28.1097699 C120.671641,36.3702923 119.978616,43.3212689 115.809656,43.9573917 C111.640696,44.5945225 109.976455,38.0034442 108.777178,29.7429218 C107.577902,21.4823993 107.290862,14.6816324 111.466703,14.0434934 C115.643527,13.4063625 118.273088,19.8492474 119.472365,28.1097699" id="Eye-R" fill="#000"/></g></g><g id="Torso" transform="translate(0.000000, 372.000000)"><mask id="mastercharactersitting-mask-2" fill="#fff"><use xlink:href="#mastercharactersitting-path-1"/></mask><g id="Mask"/><g mask="url(#mastercharactersitting-mask-2)"><g transform="translate(100.000000, 288.000000) scale(1 1)" id="Upper Body"><g id="Upper Body/Long Sleeve Tee" stroke="none" stroke-width="1" fill="none" fill-rule="evenodd"><g id="Group-21" transform="translate(374.000000, 136.000000)"><path d="M486.8818,329.2827 L469.6828,384.3807 L517.4108,398.7877 L533.8098,411.0717 C544.6678,419.2057 557.5258,424.2487 571.0188,425.6667 L612.3598,430.0117 C620.4778,430.8657 628.4678,427.5117 633.5448,421.1187 C639.5278,413.5867 639.2998,402.8617 633.0028,395.5897 L608.1268,366.8587 C598.4278,355.6557 583.3288,350.7327 568.8898,354.0657 L486.8818,329.2827 Z" id="Hand" fill="#ccb2ff"/><path d="M582.513514,389.253977 L586.053723,392.14197 L586.971111,392.915868 L588.087562,393.876891 C589.110907,394.766195 590.214463,395.747683 591.381909,396.813006 C595.668759,400.724863 599.955784,404.974053 603.967401,409.423534 C608.852738,414.842102 612.99097,420.187183 616.153766,425.366289 L616.578988,426.071493 L618.624895,429.508681 L611.750519,433.600495 L609.704612,430.163307 C606.791622,425.269392 602.808114,420.084826 598.025753,414.780476 C594.203155,410.540644 590.096378,406.470112 585.989426,402.722416 L584.931899,401.764743 C583.895018,400.833042 582.921724,399.98013 582.026893,399.213845 L581.125319,398.449227 L580.564231,397.983255 L577.462377,395.457686 L582.513514,389.253977 Z M594.469017,376.544515 L597.960962,378.952388 C598.32803,379.210924 598.877208,379.609955 599.586454,380.144443 C600.982165,381.196251 602.531397,382.425264 604.196102,383.822992 C608.941677,387.807497 613.684504,392.360898 618.119854,397.42036 C624.515482,404.715936 629.725582,412.447765 633.329887,420.548942 L633.697001,421.38831 L635.276591,425.06321 L627.92679,428.222391 L626.347199,424.54749 C623.095866,416.983298 618.204275,409.652495 612.104146,402.693998 C607.956227,397.962413 603.502695,393.686753 599.051911,389.949761 C597.670559,388.789943 596.379626,387.758731 595.206213,386.862943 L594.771745,386.533385 C594.504553,386.332029 594.256282,386.147448 594.027971,385.979899 L593.223449,385.401634 L589.929715,383.131983 L594.469017,376.544515 Z" id="Combined-Shape" fill="#000" fill-rule="nonzero"/><path d="M504.7665,328.562 C494.824145,326.918031 465.846292,315.560237 417.832942,294.488616 C395.829762,284.832079 379.332425,265.796729 372.901234,242.644441 L326.711213,76.3603654 C321.049898,55.9796328 309.071762,37.918984 292.498893,24.7749839 L289,22 L289,22 L253,3 C253,3 218,54 185.6695,43.396 C139.703451,28.3197102 127,0 127,0 L90.3905,18.791 C45.6905,41.991 16.8965,87.412 14.9845,137.738 L0.9995,505.914 C0.9995,505.914 223.8885,619.904 373.2545,505.914 L364.3995,402.303 C428.1885,429.965 483.3245,435.525 483.3245,435.525 L504.7665,328.562 Z" id="Shirt" fill="#EFEED8"/><polygon id="Stroke-11" fill="#000" fill-rule="nonzero" points="358.55027 286.892972 377.24027 505.572972 369.26933 506.254228 350.57933 287.574228"/><path d="M317.5341,328.562 L306.1881,385.156 L355.1611,394.495 L372.7541,404.998 C384.4031,411.952 397.7171,415.624 411.2841,415.624 L452.8531,415.624 C461.0151,415.624 468.6121,411.453 472.9931,404.565 C478.1551,396.448 476.8071,385.806 469.7861,379.232 L442.0431,353.258 C431.2241,343.13 415.6941,339.813 401.6821,344.637 L317.5341,328.562 Z" id="Hand" fill="#ccb2ff"/><path d="M418.910697,378.208774 L422.544961,380.584844 L423.525717,381.246991 C423.709833,381.372721 423.903097,381.505409 424.10519,381.644933 L425.08539,382.327205 C426.255698,383.148278 427.517826,384.056484 428.853119,385.044633 C433.757798,388.674212 438.663265,392.645221 443.255177,396.840993 C448.293705,401.444852 452.647519,406.044109 456.122297,410.583865 L456.636897,411.264376 L459.030621,414.469073 L452.621227,419.256521 L450.227503,416.051824 C447.007108,411.740387 442.804426,407.265819 437.858809,402.746855 C433.488624,398.753682 428.791844,394.951607 424.094276,391.475295 L423.016378,390.683511 C421.957012,389.911177 420.954571,389.197723 420.021015,388.547932 L418.765356,387.684064 L417.884788,387.094015 L414.535874,384.906603 L418.910697,378.208774 Z M429.472091,364.319268 L433.215421,366.359318 C433.59956,366.573883 434.156012,366.895297 434.866031,367.321303 L435.108366,367.467175 C436.736309,368.450225 438.543727,369.60766 440.486268,370.934392 C446.027007,374.718651 451.565876,379.115225 456.748097,384.089827 C463.194123,390.277602 468.628344,396.928854 472.722588,404.026747 L473.171973,404.817239 L475.126834,408.307012 L468.147288,412.216734 L466.192427,408.726961 C462.468374,402.078867 457.359388,395.766019 451.208033,389.86111 C446.368938,385.215886 441.170683,381.089681 435.974298,377.540612 C434.360562,376.438449 432.852154,375.464854 431.480765,374.624364 L430.972979,374.315428 C430.660489,374.126728 430.370071,373.954064 430.10294,373.797605 L429.159338,373.25807 L425.646368,371.345209 L429.472091,364.319268 Z" id="Combined-Shape" fill="#000" fill-rule="nonzero"/><path d="M175.371886,258.235448 C199.597671,284.232971 266.303644,315.626596 316.665916,324.358343 L318.186982,324.615975 L322.269939,325.291031 L299.299272,439.869068 L295.100479,439.441568 L293.698813,439.276218 C293.327186,439.230592 292.931555,439.180756 292.512294,439.126579 L292.085169,439.07095 C289.406044,438.719337 286.334518,438.267831 282.900833,437.705563 L282.102029,437.573837 C271.389904,435.795126 259.463445,433.335817 246.62463,430.08684 C209.944672,420.80465 173.261204,407.052891 138.991849,387.944225 C115.792117,375.008004 94.4983561,360.01179 75.5244962,342.803387 L74.3165534,341.701972 L79.7224466,335.804828 C98.5197372,353.036242 119.718321,368.03763 142.887916,380.957046 C176.496956,399.69752 212.54034,413.209327 248.587234,422.331315 C260.735573,425.40556 272.043952,427.758498 282.240843,429.485408 L283.412459,429.681894 C286.555237,430.203741 289.392377,430.631845 291.899958,430.974641 L292.896,431.108 L312.807,331.792 L312.143268,331.66904 C261.134507,322.039741 195.899616,291.184191 170.305951,264.521178 L169.519114,263.689352 L175.371886,258.235448 Z" id="Stroke-19" fill="#000" fill-rule="nonzero"/></g></g></g></g></g></g></g><g id="Table" transform="translate(1234.000000, 1451.000000)"><path d="M433,549 L518.585349,181.838855 C527.027173,145.623427 559.310352,120 596.496662,120 L969.503338,120 C1006.68965,120 1038.97283,145.623427 1047.41465,181.838855 L1133,549 L1133,549 L1193,549 L1093,80 L473,80 L373,549 L433,549 Z" id="Path-59" fill="#E7D6A0"/><path d="M1380,0 L1380,40 L1093,80 C1093,103.195959 1074.19596,122 1051,122 L921.955,122 L1013,549 L953,549 L867.414651,181.838855 C858.972827,145.623427 826.689648,120 789.503338,120 L789.503338,120 L416.496662,120 C379.310352,120 347.027173,145.623427 338.585349,181.838855 L338.585349,181.838855 L253,549 L193,549 L293,80 L0,40 L0,0 L1380,0 Z" id="Combined-Shape" fill="#CCB465"/></g><g id="Laptop" transform="translate(1265.000000, 1135.518879)"><path d="M30,315.481121 C13.4314575,315.481121 -5.09561708e-13,302.049664 -5.1159077e-13,285.481121 L296.721,285.481 L400.627834,-3.69482223e-13 C416.227133,5.6776808 424.31877,22.8820126 418.744017,38.5183914 L320,315.477 L320,315.481121 L30,315.481121 Z" id="Combined-Shape" fill="#6F858E"/><path d="M383.180508,37.2777668 L390.687253,40.0434097 L302.163932,280.320996 C300.173765,285.722877 295.085682,289.345069 289.35233,289.477371 L289.027128,289.481121 L20,289.481121 L20,281.481121 L289.027128,281.481121 C291.4571,281.481121 293.638051,280.016852 294.565732,277.788563 L294.657187,277.555354 L383.180508,37.2777668 Z" id="Path-68" fill="#000" fill-rule="nonzero"/></g></g></svg>