<svg viewBox="184.10000000000014 236.84210526315792 1867.3 1763.157894736842" xmlns="http://www.w3.org/2000/svg" xmlns:xlink="http://www.w3.org/1999/xlink" overflow="visible" width="1867.3px" height="1763.157894736842px"><defs><rect id="masterspot-illustrationusing-computer-path-1" x="0" y="0" width="1400" height="928"/></defs><g id="Master/Spot Illustration/Using Computer" stroke="none" stroke-width="1" fill="none" fill-rule="evenodd"><g id="Left-Character" transform="translate(0.000000, 200.000000)"><g id="Chair" transform="translate(100.000000, 800.000000)"><path d="M941.542884,676.160734 L684.053737,676.160734 C667.19581,676.160734 653.52976,662.494684 653.52976,645.636757 C653.52976,642.085519 654.149465,638.56152 655.36099,635.223331 C664.554049,609.893135 686.568189,591.395917 713.103656,586.705484 L904.099227,552.944933 C917.970005,550.493122 928.080175,538.43914 928.080175,524.353337 C928.080175,510.903711 917.177099,500.000634 903.727473,500.000634 L567.63737,500.000634 L567.63737,500.000634 L509.050884,206.429423 C499.718882,159.667667 458.668452,126 410.984618,126 L222,126 L222,126 L322,676 L377,676 L283,1000 L363,1000 L458.798636,842.123848 C476.9287,812.245502 509.34179,794 544.290535,794 L877.510771,794 C909.261552,794 939.125614,809.078135 957.977065,834.626812 L1080,1000 L1080,1000 L1199.73532,1000 L1026.29203,723.079836 C1008.0083,693.88797 975.987908,676.160734 941.542884,676.160734 Z" id="Chair-back" fill="#EFB489"/><path d="M1127.5,945 C1118.90685,954.547949 1106.66502,960 1093.81956,960 L933,960 L933,960 L873,843 L1073,843 L1128.57249,914.100096 C1135.75998,923.295861 1135.30777,936.324697 1127.5,945 Z" id="Path-62" fill="#D8704E"/><path d="M1025.60177,828.345507 L1149.4168,830.811935 C1160.4603,831.031925 1169.59117,822.257733 1169.81116,811.214229 C1169.95021,804.233541 1166.43878,797.68565 1160.54702,793.939104 L1081.11027,743.425535 L1081.11027,743.425535 L1014.64628,725.775102 L997.228042,790.562474 C992.926305,806.562839 1002.40992,823.020943 1018.41028,827.32268 C1020.75717,827.953646 1023.17203,828.297106 1025.60177,828.345507 Z" id="Fill-21" fill="#DBDAC6" transform="translate(1104.021496, 779.004184) rotate(-64.000000) translate(-1104.021496, -779.004184)"/><path d="M754.516682,500.226325 L400,501.101129 L400,501.101129 L400,564.729184 C400,626.163668 449.888201,675.965099 511.429722,675.965099 L767.168735,675.965099 L994.228998,869 L1079,769 L906.250555,569.358016 C868.148199,525.324126 812.74685,500.082636 754.516682,500.226325 Z" id="Fill-27" fill="#A9B4FF"/><path d="M725.225328,500.249252 L380,501.101129 L380,501.101129 L380,564.729184 C380,626.163668 429.888201,675.965099 491.429722,675.965099 L747.168735,675.965099 L964.228998,899 L1059,814 L886.38816,581.146286 C848.561584,530.118161 788.744576,500.092512 725.225328,500.249252 Z" id="Fill-27" fill="#A9B4FF"/><path d="M1030.66176,871.064172 L1143.23814,871.119407 C1154.28383,871.124827 1163.24253,862.174916 1163.24795,851.129223 C1163.25126,844.377839 1159.84817,838.080465 1154.19874,834.383814 L1080.90569,786.425138 L1080.90569,786.425138 L1005.88974,783.491259 L1000.8048,838.292413 C999.273995,854.790087 1011.40704,869.405055 1027.90472,870.935857 C1028.82127,871.020903 1029.74126,871.06372 1030.66176,871.064172 Z" id="Fill-21" fill="#DBDAC6" transform="translate(1104.077933, 827.321807) rotate(-44.000000) translate(-1104.077933, -827.321807)"/><path d="M750.542884,676.160734 L493.053737,676.160734 C476.19581,676.160734 462.52976,662.494684 462.52976,645.636757 C462.52976,642.085519 463.149465,638.56152 464.36099,635.223331 C473.554049,609.893135 495.568189,591.395917 522.103656,586.705484 L713.099227,552.944933 C726.970005,550.493122 737.080175,538.43914 737.080175,524.353337 C737.080175,510.903711 726.177099,500.000634 712.727473,500.000634 L296.63737,500.000634 L296.63737,500.000634 L222,126 L216.238733,127.944428 C172.640706,142.658762 144.711081,185.224899 148.568623,231.077041 L186,676 L186,676 L92,1000 L172,1000 L267.798636,842.123848 C285.9287,812.245502 318.34179,794 353.290535,794 L686.510771,794 C718.261552,794 748.125614,809.078135 766.977065,834.626812 L889,1000 L889,1000 L1008.73532,1000 L835.292033,723.079836 C817.008304,693.88797 784.987908,676.160734 750.542884,676.160734 Z" id="Chair-front" fill="#D8704E"/><path d="M807.28633,514.212474 C843.23986,526.423106 878.837899,559.124207 914.261219,612.17694 L915.276,613.702 L1058.693,808.552 L1144.14881,790.424888 C1152.89368,788.569916 1161.96675,791.338796 1168.18382,797.732891 L1168.49746,798.061134 C1178.22865,808.424211 1177.81883,824.65456 1167.65281,834.515661 L1167.34176,834.81252 L1142.73813,857.91593 L1137.26187,852.08407 L1161.8655,828.98066 C1169.11241,822.175638 1169.47063,810.7843 1162.6656,803.537393 C1158.44526,799.043 1152.22562,797.027679 1146.18606,798.174934 L1145.80884,798.250761 L1055.30726,817.448067 L908.778544,618.371122 L908.6654,618.209172 C874.125209,566.073035 839.757911,534.097468 805.744278,522.143635 L804.71367,521.787526 L807.28633,514.212474 Z" id="Path-61" fill="#000" fill-rule="nonzero"/></g><g id="Head" transform="translate(560.999650, 572.000000)" fill="#CCB2FF"><path d="M173.4931,66.499221 C182.1061,110.758221 197.9031,184.720221 112.0001,190.645221 C47.3491,195.103221 34.1221,133.336221 28.0001,98.645221 C19.0001,47.645221 36.0001,13.645221 84.0001,2.64522101 C149.3581,-12.333779 168.3391,40.016221 173.4931,66.499221"/><path d="M140,217 L140,172 L66,172 L64,214 L-6.39488462e-13,246.644721 L37.2,279.966721 C78.318,316.799721 141.503,313.346721 178.363,272.252721 L201.333,246.644721 L140,217 Z" id="Neck"/></g><g id="Hair" transform="translate(403.999650, 378.000000) scale(1 1)"><g id="Hair/Pompadour 1" stroke="none" stroke-width="1" fill="none" fill-rule="evenodd"><path d="M255.980519,409.370546 C255.980519,409.370546 67.0772008,342.349782 113.291278,273.85075 C50.6123983,261.18306 53.1764838,186.725315 111.969206,204.150624 C111.969206,204.150624 49.874084,126.038396 154.909297,145.867005 C202.472748,55.7371674 302.22301,60.5448787 280.898626,106.81089 C320.382873,78.2106295 472.452263,59.3760672 454.631536,159.617793 C438.522052,250.239645 248.714128,211.961625 248.714128,211.961625 C248.714128,211.961625 245.410616,276.855152 196.526205,254.623244 C235.502305,296.483393 274.477293,388.064783 255.980519,409.370546" id="Hair" fill="#CCB2FF"/></g></g><g id="Face" transform="translate(592.999650, 622.000000) scale(1 1)" fill="#000"><g id="Face/Sleepy" stroke="none" stroke-width="1" fill="none" fill-rule="evenodd"><path d="M138.007134,13.7702134 L145.857426,12.2297866 L147.549095,20.8795674 L148.018253,23.3396028 C150.609344,37.0644778 152.103078,47.4422921 152.719024,57.8208348 L152.76153,58.5622057 C153.98411,80.6614745 150.609705,98.5962452 141.031202,112.508343 C129.646431,129.04392 110.03365,138.785988 81.1510446,140.92809 L80.2729757,140.990675 L79.7270243,133.009325 C106.810648,131.156714 124.44055,122.497958 134.441949,107.971632 C142.846582,95.7644971 145.907418,79.4963265 144.773744,59.0041074 L144.689081,57.5786659 C144.070509,47.8319356 142.627723,37.9089558 140.153411,24.804129 L139.313239,20.428357 L138.007134,13.7702134 Z" id="Stroke-9" fill="#000" fill-rule="nonzero"/><path d="M112.203002,26.1211704 C114.333065,26.6353073 115.823115,28.8792348 115.134252,30.8873146 C112.814917,37.6483252 114.048421,40.7481453 114.55354,41.8555899 C114.870379,42.5472741 115.238039,42.8053208 116.265585,43.0532475 C116.343906,43.0720286 116.430284,43.0872444 116.515351,43.0951222 C118.335329,43.2720058 120.239218,39.2858774 122.172118,31.2857341 C122.684003,29.1677539 124.824709,27.8663305 126.958121,28.3809649 C129.089052,28.8938699 130.40107,31.0280806 129.889372,33.1471091 C128.464161,39.048378 125.926652,49.5479912 118.384049,50.8631571 C117.587406,51.0019315 116.735669,51.0389907 115.824602,50.9566816 C115.365286,50.9156455 114.890806,50.8383399 114.42193,50.7254699 C102.848683,47.9329485 106.287236,33.7029876 107.416998,29.0259397 C107.928883,26.9079594 110.072751,25.6059853 112.203002,26.1211704 Z M79.8427666,22.1003067 C81.8502735,22.5657719 83.0813775,24.5299303 82.5890524,26.4846725 C80.5947603,34.4349278 81.5275057,38.4185177 83.3388052,38.8382862 C83.4198423,38.8569953 83.5044903,38.8706983 83.5858177,38.8784144 C85.555206,39.0419437 88.4687652,34.1037489 89.4514064,27.2489083 C89.7362685,25.2548073 91.6293245,23.8548289 93.6748645,24.1232695 C95.7223993,24.3902683 97.1494191,26.2218124 96.8641781,28.2137909 C95.1367807,40.2592632 89.8307149,45.1995607 85.0647627,46.0299015 C84.3221267,46.1592644 83.5932171,46.1888669 82.892506,46.1303941 C82.4406696,46.0909344 81.9970142,46.0215991 81.5659084,45.921627 C77.4871861,44.9744397 71.2606563,40.9709859 75.3197394,24.7966687 C75.8107831,22.8410555 77.8372545,21.6333996 79.8427666,22.1003067 Z" id="Eyes" fill="#000" transform="translate(102.000000, 36.500000) scale(-1, 1) translate(-102.000000, -36.500000)"/></g></g><g id="Torso" transform="translate(0.000000, 372.000000)"><mask id="masterspot-illustrationusing-computer-mask-2" fill="#ffffff"><use xlink:href="#masterspot-illustrationusing-computer-path-1" fill="#ffffff"/></mask><g id="Mask"/><g mask="url(#masterspot-illustrationusing-computer-mask-2)"><g transform="translate(100.000000, 288.000000) scale(1 1)" id="Upper Body"><g id="Upper Body/Scrubs 2" stroke="none" stroke-width="1" fill="none" fill-rule="evenodd"><g id="Group-36" transform="translate(292.000000, 130.000000)"><path d="M869.678784,445.925788 L869.678784,445.925788 C871.545207,441.733917 869.759462,436.818772 865.634065,434.795525 L824.284973,414.508986 L884.665558,423.799824 C889.620609,424.562747 894.238501,421.125389 894.916434,416.169395 C895.548609,411.551008 892.520187,407.220971 887.956483,406.221362 L829.185838,393.344185 L898.054432,390.00775 C903.69705,389.733818 908.100604,385.036136 908,379.40132 C907.899512,374.032025 903.73197,369.615483 898.366305,369.194975 L829.588022,363.799248 L890.561046,350.457109 C895.65939,349.340959 898.917803,344.351324 897.878627,339.246349 C896.950232,334.688035 892.86096,331.462133 888.202128,331.614718 L824.313872,333.696836 L824.313872,333.696836 L802.986078,334.391276 C812.481955,324.68834 821.879093,313.901692 830.249097,302.258408 C832.845231,298.648041 832.359961,293.67042 829.170184,290.568268 C826.253748,287.731637 821.79962,287.183774 818.279908,289.229849 L767.816651,318.57895 C760.314835,322.941426 754.198989,329.127709 749.932707,336.424135 L715.78319,328.088452 L703,398.277353 L813.238158,435.187199 L859.134097,450.554987 C863.319701,451.955882 867.887018,449.950656 869.678784,445.925788" id="Hand-Color" fill="#CCB2FF"/><path d="M828.288808,346.334396 L829.087328,350.63016 C829.136897,350.91606 829.198396,351.288344 829.269394,351.74314 L829.343467,352.225295 C829.57525,353.757413 829.806145,355.514317 830.021122,357.472219 C831.817063,373.828737 831.426091,391.568294 827.297018,408.353542 C826.173198,412.922023 824.786228,417.308041 823.11911,421.487776 L822.696484,422.528399 L821.168085,426.224883 L813.775117,423.168085 L815.303516,419.471601 C817.001269,415.365526 818.404421,411.012549 819.528611,406.44256 C823.399758,390.705819 823.771263,373.849498 822.068915,358.345369 L821.931796,357.143466 C821.79294,355.971427 821.649357,354.889785 821.505438,353.905776 L821.433471,353.421941 C821.373679,353.026707 821.317579,352.672839 821.266122,352.361897 L821.157849,351.733416 L820.424433,347.801229 L828.288808,346.334396 Z M799.088884,329.913048 L807.086952,330.088884 L806.999034,334.087918 C806.578285,353.226037 800.85048,367.896023 791.521631,378.55402 C788.086205,382.478915 784.394372,385.577609 780.684542,387.94168 C779.368093,388.78058 778.135543,389.470213 777.01553,390.022259 L776.570142,390.237481 C776.150632,390.435921 775.809687,390.584391 775.55568,390.686285 L771.702594,392.169325 L768.830675,384.702594 L772.56404,383.266634 C772.667418,383.226872 772.927283,383.114372 773.323672,382.92232 L773.478679,382.846558 C774.342695,382.42069 775.32092,381.873357 776.385307,381.195082 C779.477863,379.224366 782.588418,376.613561 785.501886,373.28499 C793.476425,364.174262 798.470935,351.551242 798.980881,334.681802 L799.000966,333.912082 L799.088884,329.913048 Z" id="Combined-Shape" fill="#000" fill-rule="nonzero"/><path d="M182,39 C225.333333,55 261.333333,60.6666667 290,56 C318.666667,51.3333333 335.333333,39.6666667 340,21 L387,112 L340,179 L208,179 L182,39 Z" id="Path-2" fill="#EFEED8"/><path d="M531,198 L475.3898,92.7726 C465.1708,73.1846 448.7518,57.5326 428.6988,48.2606 L365.5558,20.9646 L324.6078,0.4476 L299,134 L199.2858,6.8296 L168.4998,23.1726 L168.5378,22.9086 L112.8418,52.7196 C83.9688,68.1726 61.4278,93.2586 49.1388,123.6136 L20,198 L163,510 L418.341112,510 C427.043324,510 434.149894,503.044939 434.337398,494.344748 L439,278 L439,278 L531,198 Z" id="Scrubs-Color" fill="#52D6C0"/><path d="M269.861967,168 L132.671765,168 L142.303343,290 L261.300564,290 L269.861967,168 Z M261.281,176 L253.842,282 L149.696,282 L141.328,176 L261.281,176 Z" id="Pocket" fill="#000" fill-rule="nonzero"/><polygon id="Stroke-12" fill="#000" fill-rule="nonzero" points="423 505.5 423 513.5 158 513.5 158 505.5"/><path d="M20,198 L115,270 L101,353 L194,518 L125,584 L49.2563452,468.964324 C-3.09816876,389.450906 -14.2985816,289.769523 18.9780013,200.695921 L20,198 Z M531,198 L541.837862,215.790453 C568.87818,260.17739 612.135782,292.294462 662.447219,305.338168 L662.447219,305.338168 L746,327 L723.2898,426.8416 C580.429933,412.280533 485.666667,362.666667 439,278 L439,278 L531,198 Z" id="Fill-8" fill="#EFEED8"/><polygon id="Path" fill="#000" fill-rule="nonzero" points="198.260733 506.085139 203.739267 511.914861 120.739267 589.914861 115.260733 584.085139"/><polygon id="Stroke-10" fill="#000" fill-rule="nonzero" points="227.179071 36.5723456 311.179071 146.572346 304.820929 151.427654 220.820929 41.4276544"/><polygon id="Stroke-34" fill="#000" fill-rule="nonzero" points="437.001219 178.901265 444.998781 179.098735 440.998781 341.098735 433.001219 340.901265"/></g></g></g></g></g></g><g id="Speech-Bubble" transform="translate(1345.000000, 674.500000) scale(-1, 1) translate(-1345.000000, -674.500000) translate(1041.000000, 261.000000)" fill="#000" fill-rule="nonzero"><path d="M304,0 C471.894564,0 608,136.105436 608,304 C608,413.178395 550.445987,508.91433 464.0228,562.522965 C542.239199,640.275222 555.390585,728.731256 503.314385,826.874863 L503.314385,826.874863 L496.247593,823.125137 L497.763047,820.235629 C547.130951,724.987662 532.933407,640.21071 455.000901,564.875954 L456.94879,566.779078 C412.020686,592.985671 359.763735,608 304,608 C136.105436,608 0,471.894564 0,304 C0,136.105436 136.105436,0 304,0 Z M304,8 C140.523714,8 8,140.523714 8,304 C8,467.476286 140.523714,600 304,600 C467.476286,600 600,467.476286 600,304 C600,140.523714 467.476286,8 304,8 Z" id="Combined-Shape"/></g><g id="Object" transform="translate(1347.000000, 565.000000) rotate(-10.000000) translate(-1347.000000, -565.000000) translate(1047.000000, 265.000000) scale(1.2 1.2)"><defs><rect id="objectid-card-path-1" x="0" y="0" width="100" height="120" rx="5"/></defs><g id="Object/ID card" stroke="none" stroke-width="1" fill="none" fill-rule="evenodd"><g id="Group" transform="translate(100.000000, 129.000000)"><rect id="Rectangle" fill="#DAE6EB" x="0" y="42.925" width="300" height="200" rx="20"/><rect id="Rectangle" fill="#406080" x="20" y="202.925" width="20" height="20" rx="10"/><rect id="Rectangle-Copy-4" fill="#5C9970" x="60" y="202.925" width="20" height="20" rx="10"/><rect id="Rectangle-Copy-5" fill="#52D6C0" x="100" y="202.925" width="20" height="20" rx="10"/><g id="Head" transform="translate(20.000000, 62.924532)"><mask id="objectid-card-mask-2" fill="#ffffff"><use xlink:href="#objectid-card-path-1" fill="#ffffff"/></mask><use id="Mask" fill="#406080" xlink:href="#objectid-card-path-1"/><g mask="url(#objectid-card-mask-2)"><g transform="translate(0.000000, 6.000000)"><g id="Head"><path d="M82.7977072,33.2496105 C86.5443563,52.571594 93.0195748,83.2157698 66.1145798,92.6522436 L66.1112624,104.857143 L97,114.142857 L85.2239179,136.126361 C66.8600652,156.673361 35.3809541,158.399861 14.8957426,139.983361 L14.8957426,139.983361 L0,114.142857 L28.2476485,103.357143 L29.0521952,89.3262655 C16.2298,79.8175693 12.4232501,61.3276203 10.3123023,49.3226105 C5.82845329,23.8226105 14.2979459,6.82261051 38.2118072,1.32261051 C70.7735188,-6.16688949 80.2299563,20.0081105 82.7977072,33.2496105 Z" fill="#CCB2FF"/></g><g id="Face" transform="translate(13.000000, 30.000000)"><path d="M73.4771078,25.6875688 L18.5742135,25.6875688 L10.7971721,25.6875688 L1.9857068,25.6875688 C0.888740912,25.6875688 0.000248182327,26.5881859 0.000248182327,27.6989973 C0.000248182327,28.8098088 0.888740912,29.7104259 1.9857068,29.7104259 L10.911336,29.7104259 C11.0384053,31.9788145 11.2726895,34.095843 11.5992974,36.0725745 L1.9857068,36.0725745 C0.888740912,36.0725745 0.000248182327,36.9731916 0.000248182327,38.084003 C0.000248182327,39.1948145 0.888740912,40.0954316 1.9857068,40.0954316 L12.4346791,40.0954316 C18.5230879,64.0957973 39.5292401,63.8047262 39.5292401,63.8047262 C68.5417541,61.7776259 74.1809529,43.9111116 73.4771078,25.6875688" id="Fill-1" fill="#EFEED8"/><path d="M67.4149886,1.4318442 L71.3127851,0.663393891 L72.0066889,4.27923865 L72.1916026,5.25779523 C73.6151344,12.8364467 74.4119416,18.3886012 74.7151288,23.9869217 C75.3174977,35.1096018 73.6551149,44.1351964 68.9357392,51.1372557 C63.3235225,59.4640081 53.6518071,64.3715042 39.4105077,65.4504597 L38.9775539,65.481983 L38.7043165,61.4686608 C52.0455488,60.536438 60.7285639,56.1800921 65.6563798,48.8687737 C69.799884,42.7211255 71.3090714,34.5272761 70.7501747,24.207305 C70.4781759,19.1848753 69.7851036,14.1470698 68.5611309,7.46699075 L68.1071979,5.03881627 L67.4149886,1.4318442 Z" id="Stroke-9" fill="#000" fill-rule="nonzero"/><path d="M42.027497,8.98039162 C42.6330619,13.100803 42.2831248,16.568003 40.1780423,16.8853059 C38.0729598,17.2026088 37.2326145,13.9154316 36.6270496,9.79502019 C36.0214847,5.67460876 35.8765462,2.28183162 37.9851033,1.9640259 C40.0941567,1.64571733 41.4219321,4.85998019 42.027497,8.98039162" id="Fill-11" fill="#000"/><path d="M58.453345,8.6639939 C59.0589099,12.7844053 58.7089728,16.2516053 56.6038903,16.5689082 C54.4988078,16.8867139 53.6584625,13.5990339 53.0528976,9.47862248 C52.4473327,5.35821105 52.3023942,1.96593676 54.4109513,1.64762819 C56.5200047,1.32982248 57.8477801,4.54358248 58.453345,8.6639939" id="Fill-13" fill="#000"/></g></g></g></g><rect id="Rectangle" fill="#406080" x="140" y="62.925" width="140" height="20"/><rect id="Rectangle-Copy" fill="#000" x="140" y="102.925" width="100" height="8"/><rect id="Rectangle-Copy-2" fill="#000" x="140" y="130.925" width="80" height="8"/><rect id="Rectangle-Copy-3" fill="#000" x="140" y="158.925" width="90" height="8"/><path d="M163.416408,3.17375597 C169.22223,6.076667 173.929905,10.7843418 176.832816,16.5901638 L190,42.9245324 L110,42.9245324 L123.167184,16.5901638 C130.576862,1.77080891 148.597053,-4.23592149 163.416408,3.17375597 Z M158.944272,12.1180279 C149.172089,7.23193622 137.312151,11.0967325 132.275032,20.7422262 L132.111456,21.0622998 L126.18,32.9245324 L173.819,32.9245324 L167.888544,21.0622998 C166.020003,17.3252189 163.029834,14.2706172 159.342043,12.3225013 L158.944272,12.1180279 Z" id="Path-39" fill="#AEC6D0" fill-rule="nonzero"/></g></g></g><g id="Table" transform="translate(847.000000, 1451.000000)"><path d="M433,549 L518.585349,181.838855 C527.027173,145.623427 559.310352,120 596.496662,120 L769.503338,120 C806.689648,120 838.972827,145.623427 847.414651,181.838855 L933,549 L933,549 L993,549 L893,80 L473,80 L373,549 L433,549 Z" id="Path-59" fill="#E7D6A0"/><path d="M1180,0 L1180,40 L893,80 C893,103.195959 874.195959,122 851,122 L721.955,122 L813,549 L753,549 L667.414651,181.838855 C658.972827,145.623427 626.689648,120 589.503338,120 L589.503338,120 L416.496662,120 C379.310352,120 347.027173,145.623427 338.585349,181.838855 L338.585349,181.838855 L253,549 L193,549 L293,80 L0,40 L0,0 L1180,0 Z" id="Combined-Shape" fill="#CCB465"/></g><g id="Laptop" transform="translate(878.000000, 1135.518879)"><path d="M30,315.481121 C13.4314575,315.481121 -5.09561708e-13,302.049664 -5.1159077e-13,285.481121 L296.721,285.481 L400.627834,-3.69482223e-13 C416.227133,5.6776808 424.31877,22.8820126 418.744017,38.5183914 L320,315.477 L320,315.481121 L30,315.481121 Z" id="Combined-Shape" fill="#6F858E"/><path d="M383.180508,37.2777668 L390.687253,40.0434097 L302.163932,280.320996 C300.173765,285.722877 295.085682,289.345069 289.35233,289.477371 L289.027128,289.481121 L20,289.481121 L20,281.481121 L289.027128,281.481121 C291.4571,281.481121 293.638051,280.016852 294.565732,277.788563 L294.657187,277.555354 L383.180508,37.2777668 Z" id="Path-68" fill="#000" fill-rule="nonzero"/></g><g id="Plant" transform="translate(1536.000000, 1000.000000)"><rect id="Rectangle" fill="#6F858E" x="50" y="432" width="200" height="20"/><path d="M150,0 C191.421356,0 225,22.3857625 225,50 C225,56.0966351 223.363268,61.9384175 220.366762,67.3407096 C253.34879,85.3421364 275,115.648304 275,150 C275,191.207608 243.844077,226.593732 199.349114,241.904866 C199.776875,244.538309 200,247.243097 200,250 C200,277.614237 177.614237,300 150,300 C122.385763,300 100,277.614237 100,250 C100,247.243097 100.223125,244.538309 100.652302,241.902707 C56.1559228,226.593732 25,191.207608 25,150 C25,115.648304 46.6512099,85.3421364 79.6321006,67.3387212 C76.6367315,61.9384175 75,56.0966351 75,50 C75,22.3857625 108.578644,0 150,0 Z" id="Combined-Shape" fill="#8ED1B0" fill-rule="nonzero"/><path d="M150,54 C154.334914,54 157.864543,57.4478378 157.996193,61.7508207 L158,62 L158,377 C158,381.418278 154.418278,385 150,385 C145.665086,385 142.135457,381.552162 142.003807,377.249179 L142,377 L142,62 C142,57.581722 145.581722,54 150,54 Z" id="Path-98" fill="#CAEFDD" fill-rule="nonzero"/><path d="M25.6155281,352 L274.384472,352 C285.430167,352 294.384472,360.954305 294.384472,372 C294.384472,373.635236 294.183925,375.2643 293.787322,376.850713 L283.787322,416.850713 C281.561487,425.754053 273.561825,432 264.384472,432 L35.6155281,432 C26.4381753,432 18.4385131,425.754053 16.2126781,416.850713 L6.21267813,376.850713 C3.53370359,366.134814 10.0489175,355.276125 20.7648156,352.59715 C22.3512277,352.200547 23.980292,352 25.6155281,352 Z" id="Rectangle" fill="#DAE6EB"/></g></g></svg>