<?xml version="1.0" encoding="UTF-8"?><svg xmlns="http://www.w3.org/2000/svg" viewBox="0 0 604.47 591.82"><defs><style>.d{opacity:.89;stroke:#7ba895;stroke-width:1.87px;}.d,.e,.f,.g,.h,.i,.j,.k,.l{fill:none;stroke-linecap:round;stroke-miterlimit:4;}.d,.e,.f,.g,.i,.j,.k,.l{isolation:isolate;}.e{opacity:.11;stroke:#d6ffee;stroke-width:.59px;}.f{opacity:.33;stroke:#c8ffe8;stroke-width:.96px;}.g{opacity:.56;stroke:#baffe2;stroke-width:1.32px;}.h{stroke:#658a7a;stroke-width:2.05px;}.i{opacity:.44;stroke:#c1ffe5;stroke-width:1.14px;}.j{opacity:.78;stroke:#8fc4ae;stroke-width:1.69px;}.k{opacity:.67;stroke:#abebd0;stroke-width:1.5px;}.l{opacity:.22;stroke:#cfffeb;stroke-width:.77px;}</style></defs><g id="a"/><g id="b"><g id="c"><path class="e" d="M600.26,190.35l-76.49,239.42c-13.79,43.16-59.95,66.95-103.1,53.13l-259.22-82.98c-43.15-13.81-66.95-60-53.17-103.15L184.78,57.36C198.57,14.2,244.73-9.59,287.88,4.22l259.22,82.98c43.15,13.81,66.95,60,53.17,103.15Z"/><path class="l" d="M597.65,195.53l-78.98,247.23c-13.79,43.16-59.95,66.95-103.1,53.13l-267.03-85.48c-43.15-13.81-66.95-60-53.17-103.15L174.36,60.04C188.15,16.88,234.3-6.91,277.45,6.9l267.03,85.48c43.15,13.81,66.95,60,53.17,103.15Z"/><path class="f" d="M595.04,200.71l-81.48,255.04c-13.79,43.16-59.95,66.95-103.1,53.13l-274.84-87.98c-43.15-13.81-66.95-60-53.17-103.15L163.94,62.72c13.79-43.16,59.95-66.95,103.1-53.13l274.84,87.98c43.15,13.81,66.95,60,53.17,103.15Z"/><path class="i" d="M592.43,205.9l-83.98,262.86c-13.79,43.16-59.95,66.95-103.1,53.13L122.7,431.41c-43.15-13.81-66.95-60-53.17-103.15L153.51,65.4C167.3,22.24,213.46-1.55,256.61,12.26l282.66,90.48c43.15,13.81,66.95,60,53.17,103.15Z"/><path class="g" d="M589.82,211.08l-86.47,270.67c-13.79,43.16-59.95,66.95-103.1,53.13L109.78,441.9c-43.15-13.81-66.95-60-53.17-103.15L143.09,68.08C156.88,24.92,203.04,1.13,246.19,14.94l290.47,92.98c43.15,13.81,66.95,60,53.17,103.15Z"/><path class="k" d="M587.21,216.26l-88.97,278.49c-13.79,43.16-59.95,66.95-103.1,53.13L96.86,452.4c-43.15-13.81-66.95-60-53.17-103.15L132.67,70.76C146.45,27.6,192.61,3.81,235.76,17.62l298.28,95.48c43.15,13.81,66.95,60,53.17,103.15Z"/><path class="j" d="M584.6,221.44l-91.47,286.3c-13.79,43.16-59.95,66.95-103.1,53.13L83.94,462.89c-43.15-13.81-66.95-60-53.17-103.15L122.24,73.44c13.79-43.16,59.95-66.95,103.1-53.13l306.09,97.98c43.15,13.81,66.95,60,53.17,103.15Z"/><path class="d" d="M581.99,226.62l-93.96,294.12c-13.79,43.16-59.95,66.95-103.1,53.13L71.02,473.39c-43.15-13.81-66.95-60-53.17-103.15L111.82,76.11c13.79-43.16,59.95-66.95,103.1-53.13l313.91,100.48c43.15,13.81,66.95,60,53.17,103.15Z"/><path class="h" d="M579.38,231.8l-96.46,301.93c-13.79,43.16-59.95,66.95-103.1,53.13L58.1,483.88c-43.15-13.81-66.95-60-53.17-103.15L101.4,78.79c13.79-43.16,59.95-66.95,103.1-53.13l321.72,102.98c43.15,13.81,66.95,60,53.17,103.15Z"/></g></g></svg>