<?xml version="1.0" encoding="UTF-8"?><svg xmlns="http://www.w3.org/2000/svg" xmlns:xlink="http://www.w3.org/1999/xlink" viewBox="0 0 1674.38 382.11"><defs><style>.m{opacity:.67;stroke:url(#i);stroke-width:1.67px;}.m,.n,.o,.p,.q,.r,.s,.t,.u{fill:none;}.m,.n,.o,.p,.q,.r,.s,.u{isolation:isolate;}.n{opacity:.89;stroke:url(#k);stroke-width:1.89px;}.o{opacity:.33;stroke:url(#f);stroke-width:1.33px;}.p{opacity:.11;stroke:url(#d);stroke-width:1.11px;}.q{opacity:.56;stroke:url(#h);stroke-width:1.56px;}.r{opacity:.78;stroke:url(#j);stroke-width:1.78px;}.s{opacity:.22;stroke:url(#e);stroke-width:1.22px;}.t{stroke:url(#l);stroke-width:2px;}.u{opacity:.44;stroke:url(#g);stroke-width:1.44px;}</style><linearGradient id="d" x1="911.22" y1="254.24" x2="893.13" y2="81.29" gradientTransform="translate(0 335.94) scale(1 -1)" gradientUnits="userSpaceOnUse"><stop offset="0" stop-color="#b9e6fc"/><stop offset="1" stop-color="#27c663"/></linearGradient><linearGradient id="e" x1="899" y1="246.2" x2="883.32" y2="61.36" gradientTransform="translate(0 335.94) scale(1 -1)" gradientUnits="userSpaceOnUse"><stop offset="0" stop-color="#b9e6fc"/><stop offset="1" stop-color="#27c663"/></linearGradient><linearGradient id="f" x1="886.98" y1="237.95" x2="874.15" y2="41.25" gradientTransform="translate(0 335.94) scale(1 -1)" gradientUnits="userSpaceOnUse"><stop offset="0" stop-color="#b9e6fc"/><stop offset="1" stop-color="#27c663"/></linearGradient><linearGradient id="g" x1="875.15" y1="229.48" x2="865.64" y2="20.97" gradientTransform="translate(0 335.94) scale(1 -1)" gradientUnits="userSpaceOnUse"><stop offset="0" stop-color="#b9e6fc"/><stop offset="1" stop-color="#27c663"/></linearGradient><linearGradient id="h" x1="863.53" y1="220.79" x2="857.78" y2=".53" gradientTransform="translate(0 335.94) scale(1 -1)" gradientUnits="userSpaceOnUse"><stop offset="0" stop-color="#b9e6fc"/><stop offset="1" stop-color="#27c663"/></linearGradient><linearGradient id="i" x1="852.12" y1="211.9" x2="850.58" y2="-20.04" xlink:href="#g"/><linearGradient id="j" x1="840.93" y1="202.79" x2="844.05" y2="-40.73" gradientTransform="translate(0 335.94) scale(1 -1)" gradientUnits="userSpaceOnUse"><stop offset="0" stop-color="#b9e6fc"/><stop offset="1" stop-color="#27c663"/></linearGradient><linearGradient id="k" x1="829.95" y1="193.48" x2="838.18" y2="-61.52" xlink:href="#e"/><linearGradient id="l" x1="819.21" y1="183.97" x2="832.98" y2="-82.41" gradientTransform="translate(0 335.94) scale(1 -1)" gradientUnits="userSpaceOnUse"><stop offset="0" stop-color="#b9e6fc"/><stop offset="1" stop-color="#27c663"/></linearGradient></defs><g id="a"/><g id="b"><g id="c"><g><path class="p" d="M127.7,28.46c76.36-2.28,126.82-49.61,280.99-15.74,154.17,33.87,222.38,95.68,377.72,108.31,155.34,12.64,217.76,57.39,346.62,111.45,193.47,81.16,541.32,97.79,541.32,97.79"/><path class="s" d="M109.71,53.35c76.88-4.41,127.22-56.15,282.86-24.06,155.64,32.1,224.96,96.2,381.56,105.64,156.6,9.44,219.93,55.51,350.27,109.79,195.69,81.48,546.23,90.18,546.23,90.18"/><path class="o" d="M92.28,78.64c77.36-6.56,127.44-62.73,284.52-32.44,157.08,30.28,227.64,96.65,385.42,102.86,157.78,6.2,222.09,53.58,353.97,108.02,197.99,81.74,551.04,82.43,551.04,82.43"/><path class="u" d="M75.44,104.32c77.79-8.73,127.47-69.32,285.98-40.89,158.51,28.43,230.4,97.05,389.3,99.97,158.91,2.93,224.25,51.59,357.71,106.17,200.36,81.95,555.75,74.53,555.75,74.53"/><path class="q" d="M59.18,130.38c78.16-10.91,127.3-75.94,287.23-49.4,159.93,26.53,233.24,97.37,393.2,96.98,159.96-.39,226.41,49.53,361.49,104.21,202.8,82.09,560.36,66.5,560.36,66.5"/><path class="m" d="M43.53,156.81c78.48-13.11,126.95-82.57,288.27-57.97,161.32,24.6,236.16,97.62,397.11,93.89,160.95-3.73,228.57,47.42,365.31,102.16,205.3,82.18,564.84,58.33,564.84,58.33"/><path class="r" d="M28.48,183.6c78.75-15.32,126.39-89.21,289.09-66.59,162.7,22.62,239.16,97.8,401.03,90.69,161.87-7.12,230.72,45.25,369.18,100,207.87,82.2,569.21,50.02,569.21,50.02"/><path class="n" d="M14.05,210.74c78.96-17.54,125.65-95.85,289.7-75.25,164.05,20.61,242.24,97.9,404.96,87.37,162.72-10.53,232.86,43.01,373.07,97.73,210.5,82.15,573.47,41.58,573.47,41.58"/><path class="t" d="M.24,238.21c79.12-19.78,124.71-102.49,290.1-83.95,165.39,18.55,245.4,97.93,408.9,83.95s235,40.71,377,95.36c213.19,82.04,577.6,33,577.6,33"/></g></g></g></svg>