<?xml version="1.0" encoding="UTF-8"?><svg xmlns="http://www.w3.org/2000/svg" xmlns:xlink="http://www.w3.org/1999/xlink" viewBox="0 0 2215.89 280.47"><defs><style>.m{opacity:.67;stroke:url(#i);stroke-width:1.67px;}.m,.n,.o,.p,.q,.r,.s,.t,.u{fill:none;}.m,.n,.o,.p,.q,.r,.s,.u{isolation:isolate;}.n{opacity:.89;stroke:url(#k);stroke-width:1.89px;}.o{opacity:.33;stroke:url(#f);stroke-width:1.33px;}.p{opacity:.11;stroke:url(#d);stroke-width:1.11px;}.q{opacity:.56;stroke:url(#h);stroke-width:1.56px;}.r{opacity:.78;stroke:url(#j);stroke-width:1.78px;}.s{opacity:.22;stroke:url(#e);stroke-width:1.22px;}.t{stroke:url(#l);stroke-width:2px;}.u{opacity:.44;stroke:url(#g);stroke-width:1.44px;}</style><linearGradient id="d" x1="1180.21" y1="122.72" x2="1171.15" y2="58.27" gradientTransform="translate(0 228.88) scale(1 -1)" gradientUnits="userSpaceOnUse"><stop offset="0" stop-color="#b9e6fc"/><stop offset="1" stop-color="#27c663"/></linearGradient><linearGradient id="e" x1="1167.85" y1="120.12" x2="1158.7" y2="45.6" gradientTransform="translate(0 228.88) scale(1 -1)" gradientUnits="userSpaceOnUse"><stop offset="0" stop-color="#b9e6fc"/><stop offset="1" stop-color="#27c663"/></linearGradient><linearGradient id="f" x1="1155.79" y1="117.31" x2="1146.9" y2="32.7" gradientTransform="translate(0 228.88) scale(1 -1)" gradientUnits="userSpaceOnUse"><stop offset="0" stop-color="#b9e6fc"/><stop offset="1" stop-color="#27c663"/></linearGradient><linearGradient id="g" x1="1144.05" y1="114.41" x2="1135.76" y2="19.69" xlink:href="#f"/><linearGradient id="h" x1="1132.6" y1="111.2" x2="1125.27" y2="6.37" gradientTransform="translate(0 228.88) scale(1 -1)" gradientUnits="userSpaceOnUse"><stop offset="0" stop-color="#b9e6fc"/><stop offset="1" stop-color="#27c663"/></linearGradient><linearGradient id="i" x1="1121.47" y1="107.8" x2="1115.45" y2="-7.12" gradientTransform="translate(0 228.88) scale(1 -1)" gradientUnits="userSpaceOnUse"><stop offset="0" stop-color="#b9e6fc"/><stop offset="1" stop-color="#27c663"/></linearGradient><linearGradient id="j" x1="1110.66" y1="104.21" x2="1106.3" y2="-20.79" gradientTransform="translate(0 228.88) scale(1 -1)" gradientUnits="userSpaceOnUse"><stop offset="0" stop-color="#b9e6fc"/><stop offset="1" stop-color="#27c663"/></linearGradient><linearGradient id="k" x1="1097.2" y1="101.53" x2="1094.84" y2="-33.53" gradientTransform="translate(0 228.88) scale(1 -1)" gradientUnits="userSpaceOnUse"><stop offset="0" stop-color="#b9e6fc"/><stop offset="1" stop-color="#27c663"/></linearGradient><linearGradient id="l" x1="1090.02" y1="96.58" x2="1090.02" y2="-48.5" gradientTransform="translate(0 228.88) scale(1 -1)" gradientUnits="userSpaceOnUse"><stop offset="0" stop-color="#b9e6fc"/><stop offset="1" stop-color="#27c663"/></linearGradient></defs><g id="a"/><g id="b"><g id="c"><path class="p" d="M134.99,.56c110.14,2.61,232.27,4.42,457.12,48.08,224.85,43.66,303.53,56.32,443.61,52,140.07-4.31,181.35,3.45,465.47,96.63,284.63,93.36,714.69,82.24,714.69,82.24"/><path class="s" d="M115.22,26.99c110.92-1.19,233.92-3.77,460.36,37.92,226.43,41.69,305.67,53.25,446.75,42.95,141.08-10.3,182.65-2.95,468.74,93.49,286.62,96.61,719.76,67.42,719.76,67.42"/><path class="o" d="M96.27,53.86c111.61-5.01,235.36-12.01,463.38,27.66,228.02,39.67,307.8,50.13,449.71,33.8,141.91-16.33,183.77-9.38,472.05,90.25,288.81,99.81,724.52,52.45,724.52,52.45"/><path class="u" d="M78.15,81.15c112.19-8.87,236.59-20.3,466.19,17.31,229.6,37.6,309.91,46.95,452.49,24.57,142.58-22.38,184.73-15.85,475.4,86.93,291.19,102.97,728.97,37.33,728.97,37.33"/><path class="q" d="M60.85,108.84c112.68-12.74,237.59-28.63,468.77,6.87,231.18,35.5,312.01,43.71,455.08,15.25,143.08-28.46,185.51-22.36,478.76,83.51,293.78,106.07,733.13,22.08,733.13,22.08"/><path class="m" d="M44.41,136.93c113.06-16.63,238.38-37.01,471.14-3.66,232.76,33.35,314.08,40.41,457.48,5.84,143.4-34.57,186.12-28.9,482.15,80.01,296.57,109.11,736.97,6.7,736.97,6.7"/><path class="r" d="M28.82,165.38c113.34-20.54,238.94-45.42,473.28-14.26,234.33,31.15,316.13,37.05,459.7-3.64,143.57-40.69,186.57-35.46,485.57,76.41,299.54,112.08,740.49-8.82,740.49-8.82"/><path class="n" d="M11.12,193.19c113.52-24.46,239.29-53.85,475.18-24.94,235.9,28.91,318.16,33.63,461.72-13.2,143.55-46.83,186.84-42.05,489,72.71,302.73,114.97,743.7-24.45,743.7-24.45"/><path class="t" d="M.24,223.35c113.6-28.4,239.41-62.32,476.86-35.69,237.45,26.63,320.17,30.15,463.54-22.83,143.37-52.98,186.93-48.66,492.46,68.91,306.08,117.79,746.58-40.2,746.58-40.2"/></g></g></svg>